<svg fill="none" height="55" viewBox="0 0 54 55" width="54" xmlns="http://www.w3.org/2000/svg"><g fill="#000"><path d="m18.7218 28.6c.1577 0 .3118-.0468.4437-.1347s.2357-.2131.2988-.3603c.063-.1471.0826-.3098.0562-.468-.0264-.1583-.0975-.3053-.2047-.423-1.3099-1.4508-2.199-3.2433-2.5683-5.1781s-.2044-3.936.4764-5.7811c.6808-1.845 1.8507-3.4615 3.3798-4.6696 1.529-1.2082 3.3571-1.9606 5.2809-2.17362 1.9239-.21301 3.868.12175 5.6162.96702 1.7482.8453 3.2319 2.168 4.286 3.8209 1.0542 1.6529 1.6374 3.5713 1.6849 5.5417.0475 1.9705-.4426 3.9157-1.4159 5.6193-.1088.1889-.1395.4141-.0853.6261.0541.2119.1888.3933.3742.5042.1855.1108.4066.1421.6147.0869s.3862-.1923.495-.3812c1.1305-1.9678 1.7021-4.2168 1.6512-6.4962-.0509-2.2793-.7224-4.4995-1.9395-6.4129-1.2172-1.9135-2.9322-3.44503-4.9539-4.4239s-4.2706-1.3666-6.4959-1.11997c-2.2254.24663-4.3398 1.11792-6.1074 2.51677-1.7677 1.3988-3.1192 3.2702-3.9038 5.4055s-.9716 4.4506-.54 6.6878c.4316 2.2371 1.4648 4.3082 2.9843 5.9824.0734.0806.1618.1455.2601.1908.0983.0454.2045.0702.3123.0732z"/><path d="m33.0264 23.254c.0993.039.2051.0578.3115.0551.1064-.0026.2112-.0266.3085-.0705s.1852-.107.2585-.1855c.0734-.0785.1308-.171.1691-.2721.4447-1.1957.59-2.4853.4229-3.7525-.1671-1.2673-.6414-2.4721-1.38-3.5059-.7387-1.0339-1.7185-1.864-2.851-2.4157-1.1325-.5516-2.382-.8073-3.6358-.7441-1.2538.0633-2.4724.4436-3.5458 1.1066-1.0734.6629-1.9679 1.5877-2.6026 2.6908-.6347 1.1032-.9897 2.3499-1.033 3.6277-.0433 1.2779.2265 2.5465.7851 3.6916.0482.0968.1147.1829.1956.2536.0809.0706.1747.1243.276.158s.2081.0468.3143.0384c.1063-.0083.2099-.0379.3049-.087s.1796-.1168.249-.1992c.0693-.0824.122-.178.1551-.2811.0331-.1032.0459-.212.0377-.3202-.0081-.1082-.0372-.2137-.0854-.3105-.4243-.8519-.6427-1.7947-.6372-2.75.02-.8769.2269-1.7388.6065-2.5261.3795-.7873.9226-1.4812 1.5916-2.0335.6689-.5522 1.4478-.9498 2.2826-1.165.8349-.2153 1.7056-.243 2.552-.0815.8464.1616 1.6482.5087 2.3499 1.0173.7016.5086 1.2862 1.1664 1.7134 1.928.4272.7615.6867 1.6086.7605 2.4825.0739.8738-.0397 1.7536-.3329 2.5783-.0393.1011-.0586.2091-.0568.3178s.0247.216.0674.3157c.0426.0996.1042.1897.1812.2651.0769.0753.1677.1344.2672.1739z"/><path d="m24.8832 47.3h10.7082c.2148 0 .4209-.0869.5728-.2416s.2372-.3646.2372-.5834v-3.7565l2.0574-2.948c.0981-.1396.1509-.3069.1512-.4785v-9.306c-.0014-.7041-.2767-1.3789-.7655-1.8768s-1.1514-.7782-1.8427-.7797h-.0918c-.3487-.0006-.694.0705-1.0152.209-.0312-.4158-.1586-.8181-.3719-1.174-.2132-.3559-.5063-.6554-.855-.8737-.3488-.2184-.7433-.3496-1.1514-.3827-.4081-.0332-.8181.0326-1.1965.1919v-6.1325c.0021-.6377-.2216-1.2548-.63-1.7381s-.9742-.8005-1.5936-.8934-1.251.0447-1.7788.3876c-.5279.3429-.9167.8682-1.0952 1.4794-.3965-.1965-.8357-.2867-1.2761-.2621-.4403.0246-.8672.1632-1.2403.4028-.373.2395-.6799.572-.8916.9661-.2116.394-.3211.8366-.318 1.2857v9.79l-.108-.176-.054-.077c-.2193-.2729-.4908-.4977-.7979-.6607s-.6435-.2608-.9888-.2876c-.3453-.0267-.6923.0182-1.0201.132-.3278.1139-.6294.2943-.8868.5303-.4742.4364-.7717 1.0371-.8346 1.6848-.0629.6478.1134 1.2962.4944 1.8187l5.7726 9.1465v3.7895c.0029.2169.0895.4239.2411.5763.1515.1523.356.2377.5689.2377zm-5.1678-16.027c.0925-.0865.201-.1532.3192-.1962.1183-.0431.2437-.0616.3691-.0544.1253.0072.248.0399.3607.0961.1127.0563.2133.135.2956.2315l1.5714 2.497c.0948.1494.2345.2637.3982.3257s.3427.0684.5103.0183.3148-.154.4197-.2963.1618-.3153.1622-.4932v-12.606c0-.2677.1044-.5244.2903-.7136.1858-.1893.4378-.2956.7006-.2956s.5149.1063.7007.2956c.1858.1892.2902.4459.2902.7136v10.0045c0 .2188.0854.4287.2373.5834s.3579.2416.5727.2416.4209-.0869.5728-.2416.2372-.3646.2372-.5834v-11.6325c0-.2677.1044-.5244.2903-.7136.1858-.1893.4378-.2956.7006-.2956s.5149.1063.7007.2956c.1858.1892.2902.4459.2902.7136v11.6325c0 .2188.0854.4287.2373.5834s.3579.2416.5727.2416.4209-.0869.5728-.2416.2372-.3646.2372-.5834v-3.025c0-.2677.1044-.5244.2903-.7136.1858-.1893.4378-.2956.7006-.2956s.5149.1063.7007.2956c.1858.1892.2902.4459.2902.7136v4.2845c0 .2188.0854.4287.2373.5834s.3579.2416.5727.2416.4209-.0869.5728-.2416.2372-.3646.2372-.5834v-.935s0 0 0-.0385v-1.1c0-.2669.1041-.5229.2895-.7117.1853-.1888.4366-.2948.6987-.2948h.0918c.2621 0 .5135.106.6988.2948s.2894.4448.2894.7117v9.064l-2.0574 2.948c-.098.1396-.1509.3069-.1512.4785v3.1735h-9.0936v-3.1955c-.0004-.1581-.0454-.3127-.1296-.4455l-5.94-9.35-.0432-.0605c-.1497-.196-.2193-.4434-.1941-.6904.0251-.247.1431-.4746.3291-.6351z"/></g><path d="m19.7154 31.273c.0925-.0865.201-.1532.3192-.1962.1183-.0431.2437-.0616.3691-.0544.1253.0072.248.0399.3607.0961.1127.0563.2133.135.2956.2315l1.5714 2.497c.0948.1494.2345.2637.3982.3257s.3427.0684.5103.0183.3148-.154.4197-.2963.1618-.3153.1622-.4932v-12.606c0-.2677.1044-.5244.2903-.7136.1858-.1893.4378-.2956.7006-.2956s.5149.1063.7007.2956c.1858.1892.2902.4459.2902.7136v10.0045c0 .2188.0854.4287.2373.5834s.3579.2416.5727.2416.4209-.0869.5728-.2416.2372-.3646.2372-.5834v-11.6325c0-.2677.1044-.5244.2903-.7136.1858-.1893.4378-.2956.7006-.2956s.5149.1063.7007.2956c.1858.1892.2902.4459.2902.7136v11.6325c0 .2188.0854.4287.2373.5834s.3579.2416.5727.2416.4209-.0869.5728-.2416.2372-.3646.2372-.5834v-3.025c0-.2677.1044-.5244.2903-.7136.1858-.1893.4378-.2956.7006-.2956s.5149.1063.7007.2956c.1858.1892.2902.4459.2902.7136v4.2845c0 .2188.0854.4287.2373.5834s.3579.2416.5727.2416.4209-.0869.5728-.2416.2372-.3646.2372-.5834v-.935s0 0 0-.0385v-1.1c0-.2669.1041-.5229.2895-.7117.1853-.1888.4366-.2948.6987-.2948h.0918c.2621 0 .5135.106.6988.2948s.2894.4448.2894.7117v9.064l-2.0574 2.948c-.098.1396-.1509.3069-.1512.4785v3.1735h-9.0936v-3.1955c-.0004-.1581-.0454-.3127-.1296-.4455l-5.94-9.35-.0432-.0605c-.1497-.196-.2193-.4434-.1941-.6904.0251-.247.1431-.4746.3291-.6351z" fill="#fff"/></svg>