<svg fill="none" height="55" viewBox="0 0 54 55" width="54" xmlns="http://www.w3.org/2000/svg"><path d="m11.7523 16.521c0-.3643.2953-.6597.6596-.6597h11.4339c.3643 0 .6596.2954.6596.6597v.958c0 .3643-.2953.6597-.6596.6597h-11.4339c-.3643 0-.6596-.2954-.6596-.6597z" fill="#000"/><path d="m17.7793 23.3766c-.3643 0-.6596-.2954-.6596-.6597v-11.4339c0-.3643.2953-.6596.6596-.6596h.9581c.3643 0 .6596.2953.6596.6596v11.4339c0 .3643-.2953.6597-.6596.6597z" fill="#000"/><circle cx="18" cy="17" r="11" stroke="#000" stroke-width="2"/><path d="m35.3869 22.2264-.0795.0459c-.3024.1739-.5665.407-.7766.6853-.2526-.3646-.5947-.6581-.9934-.8524-.3988-.1942-.8408-.2827-1.2836-.2569-.4428.0259-.8715.1652-1.245.4045-.3734.2394-.679.5707-.8875.9622-.5456-.3118-1.1862-.4144-1.802-.2884-.6158.1261-1.1646.472-1.5439.9731l-1.7793-3.0818c-.3462-.5997-.9165-1.0373-1.5853-1.2165-.6689-.1792-1.3816-.0854-1.9812.2608-.5997.3463-1.0373.9165-1.2165 1.5854-.1792.6688-.0854 1.3815.2608 1.9812l4.806 8.3242-.1846-.0929-.0846-.0385c-.3239-.1224-.6693-.1778-1.0153-.1629-.346.015-.6853.1-.9975.2499-.3122.15-.5907.3617-.8187.6223-.2279.2607-.4006.5649-.5076.8943-.1955.6095-.1564 1.2701.1094 1.8523.2658.5823.7393 1.0445 1.3279 1.296l9.496 4.8807 1.8603 3.2222c.1074.186.2843.3218.4918.3774s.4286.0265.6147-.0809l9.2922-5.3649c.1861-.1074.3218-.2844.3774-.4919s.0265-.4286-.0809-.6146l-1.8522-3.2081.3346-3.5353c.0164-.1678-.02-.3364-.104-.4825l-4.5657-7.908c-.1729-.2981-.403-.559-.6772-.7678-.2741-.2088-.5868-.3614-.9201-.4488-.3333-.0875-.6806-.1082-1.022-.0609-.3413.0472-.6699.1615-.9669.3363zm6.5987 9.4529-.3346 3.5353c-.0164.1677.02.3364.104.4825l1.5741 2.7264-7.866 4.5414-1.5741-2.7264c-.0779-.1342-.1928-.2432-.3309-.314l-9.7342-4.9801-.0671-.0299c-.1698-.0679-.3161-.1839-.4209-.3338s-.1636-.3271-.1692-.5099.0423-.3632.1378-.5192.2344-.2807.3998-.3589c.2196-.1068.4724-.1228.7037-.0446l2.5867 1.3374c.1581.0925.3429.1286.5243.1025.1813-.0261.3484-.1129.474-.2462.1257-.1333.2024-.3053.2177-.4878.0153-.1826-.0317-.3649-.1334-.5173l-6.1911-10.7233c-.1314-.2276-.167-.4981-.099-.7519.068-.2539.2341-.4703.4617-.6017s.4981-.167.7519-.099c.2539.068.4703.2341.6017.4617l4.9167 8.516c.1074.186.2843.3218.4918.3774.2076.0556.4286.0264.6147-.081.186-.1074.3218-.2843.3774-.4918s.0265-.4286-.0809-.6146l-1.9359-3.3531c-.1314-.2276-.167-.4981-.099-.7519.068-.2539.2341-.4703.4617-.6017s.498-.167.7519-.099c.2538.068.4703.2341.6017.4617l1.9359 3.3531c.1074.186.2843.3218.4918.3774s.4286.0264.6146-.081c.1861-.1074.3218-.2843.3774-.4918s.0265-.4286-.0809-.6146l-1.4904-2.5815c-.1314-.2276-.167-.4981-.099-.7519.068-.2539.2341-.4703.4617-.6017s.4981-.167.7519-.099c.2539.068.4703.2341.6017.4617l2.1033 3.643c.1074.1861.2843.3218.4918.3774.2076.0556.4286.0265.6147-.0809.186-.1074.3218-.2843.3774-.4918s.0265-.4286-.0809-.6147l-.459-.795s0 0-.0189-.0327l-.54-.9353c-.1311-.227-.1666-.4967-.0988-.7499.0679-.2531.2335-.469.4605-.6l.0795-.0459c.227-.1311.4967-.1666.7498-.0988.2532.0679.469.2335.6001.4605z" fill="#000"/><path d="m41.9856 31.6793-.3346 3.5353c-.0164.1677.02.3364.104.4825l1.5741 2.7264-7.866 4.5414-1.5741-2.7264c-.0779-.1342-.1928-.2432-.3309-.314l-9.7342-4.9801-.0671-.0299c-.1698-.0679-.3161-.1839-.4209-.3338s-.1636-.3271-.1692-.5099.0423-.3632.1378-.5192.2344-.2807.3998-.3589c.2196-.1068.4724-.1228.7037-.0446l2.5867 1.3374c.1581.0925.3429.1286.5243.1025.1813-.0261.3484-.1129.474-.2462.1257-.1333.2024-.3053.2177-.4878.0153-.1826-.0317-.3649-.1334-.5173l-6.1911-10.7233c-.1314-.2276-.167-.4981-.099-.7519.068-.2539.2341-.4703.4617-.6017s.4981-.167.7519-.099c.2539.068.4703.2341.6017.4617l4.9167 8.516c.1074.186.2843.3218.4918.3774.2076.0556.4286.0264.6147-.081.186-.1074.3218-.2843.3774-.4918s.0265-.4286-.0809-.6146l-1.9359-3.3531c-.1314-.2276-.167-.4981-.099-.7519.068-.2539.2341-.4703.4617-.6017s.498-.167.7519-.099c.2538.068.4703.2341.6017.4617l1.9359 3.3531c.1074.186.2843.3218.4918.3774s.4286.0264.6146-.081c.1861-.1074.3218-.2843.3774-.4918s.0265-.4286-.0809-.6146l-1.4904-2.5815c-.1314-.2276-.167-.4981-.099-.7519.068-.2539.2341-.4703.4617-.6017s.4981-.167.7519-.099c.2539.068.4703.2341.6017.4617l2.1033 3.643c.1074.1861.2843.3218.4918.3774.2076.0556.4286.0265.6147-.0809.186-.1074.3218-.2843.3774-.4918s.0265-.4286-.0809-.6147l-.459-.795s0 0-.0189-.0327l-.54-.9353c-.1311-.227-.1666-.4967-.0988-.7499.0679-.2531.2335-.469.4605-.6l.0795-.0459c.227-.1311.4967-.1666.7498-.0988.2532.0679.469.2335.6001.4605z" fill="#fff"/></svg>