<svg fill="none" height="54" viewBox="0 0 55 54" width="55" xmlns="http://www.w3.org/2000/svg"><g fill="#000"><path d="m35.123 40.7322c-.1944.0864-.3979.1674-.6105.243h.6105z"/><path d="m19.877 40.7322v.243h.6105c-.2127-.0756-.4162-.1566-.6105-.243z"/><path d="m36.773 41.58v-2.4732c.0054-.0773.0054-.1549 0-.2322 0-2.403-5.83-3.0402-9.273-3.0402s-9.273.6372-9.273 3.0456c-.0054.0773-.0054.1549 0 .2322v2.4678c-4.1525.8856-6.127 2.3814-6.127 3.8124 0 2.241 4.818 4.6494 15.4 4.6494s15.4-2.4084 15.4-4.6494c0-1.431-1.9745-2.9268-6.127-3.8124zm-16.896 2.7v-3.5478c.1943.0864.3978.1674.6105.243 2.013.702 4.95.9342 7.0125.9342s4.9995-.2322 7.0125-.9342c.2163-.0756.4198-.1566.6105-.243v3.5154l-.0385.0486c-.4015.4644-2.893 1.4148-7.5845 1.4148s-7.183-.9504-7.5845-1.431zm7.623-6.8256c4.686 0 7.183.9504 7.59 1.4202-.407.4644-2.904 1.4148-7.59 1.4148s-7.183-.9504-7.59-1.4094c.407-.4752 2.904-1.4256 7.59-1.4256zm0 10.9674c-8.888 0-13.75-2.0034-13.75-3.0294 0-.5832 1.54-1.4688 4.466-2.16v1.0476c0 2.3976 5.83 3.0348 9.273 3.0348s9.284-.621 9.284-3.0348v-1.026c2.926.6696 4.477 1.566 4.477 2.1384 0 1.0476-4.862 3.0294-13.75 3.0294z"/><path d="m16.456 23.5764h.0935c.3607.002.7181-.0678 1.0505-.2052.0338.4427.183.8695.4334 1.2392.2504.3696.5935.6698.9963.8716s.8517.2984 1.3035.2806c.4518-.0179.8914-.1497 1.2763-.3826.3208.5447.8335.9552 1.4415 1.1542.6079.1989 1.269.1725 1.8585-.0742v3.5532c.0311.6719.3249 1.3062.8202 1.7708.4953.4647 1.154.724 1.839.724.6851 0 1.3438-.2593 1.8391-.724.4953-.4646.7891-1.0989.8202-1.7708v-7.56c.8374.0126 1.6474-.2931 2.2605-.8532 1.1605-1.0422 1.3365-2.6406.4785-4.2498l-4.367-8.81281v-3.78c0-.21483-.0869-.42085-.2416-.57276-.1548-.1519-.3646-.23724-.5834-.23724h-10.9065c-.2188 0-.4286.08534-.5834.23724-.1547.15191-.2416.35793-.2416.57276v3.699l-2.09 2.88361c-.0989.1375-.1526.3014-.154.4698v9.1584c.0015.6913.2818 1.3539.7797 1.8427s1.1727.7641 1.8768.7655zm-1.0065-11.4858 2.0955-2.91061c.0973-.13801.1491-.30198.1485-.4698v-3.132h9.2565v3.1482c-.0001.12338.0281.2452.0825.3564l4.455 8.99101c.517.9666.473 1.7928-.121 2.322-.3182.2789-.7342.426-1.1605.4104v-.6966c0-.2148-.0869-.4209-.2416-.5728-.1548-.1519-.3646-.2372-.5834-.2372s-.4286.0853-.5834.2372c-.1547.1519-.2416.358-.2416.5728v9.882c-.0188.2502-.1333.4841-.3205.6548s-.4333.2656-.6888.2656c-.2554 0-.5015-.0949-.6887-.2656s-.3017-.4046-.3205-.6548v-9.8334c0-.2148-.0869-.4209-.2416-.5728-.1548-.1519-.3646-.2372-.5834-.2372s-.4286.0853-.5834.2372c-.1547.1519-.2416.358-.2416.5728v3.8718c0 .2621-.106.5134-.2948.6988-.1888.1853-.4448.2894-.7117.2894s-.5229-.1041-.7117-.2894c-.1888-.1854-.2948-.4367-.2948-.6988v-3.8718c0-.2148-.0869-.4209-.2416-.5728-.1548-.1519-.3646-.2372-.5834-.2372s-.4286.0853-.5834.2372c-.1547.1519-.2416.358-.2416.5728v2.9808c-.0188.2502-.1333.4841-.3205.6548s-.4333.2656-.6887.2656c-.2555 0-.5016-.0949-.6888-.2656s-.3017-.4046-.3205-.6548v-4.212c0-.2148-.0869-.4209-.2416-.5728-.1548-.1519-.3646-.2372-.5834-.2372s-.4286.0853-.5834.2372c-.1547.1519-.2416.358-.2416.5728v.9234.0378 1.08c0 .2621-.106.5134-.2948.6988-.1888.1853-.4448.2894-.7117.2894h-.0935c-.2669 0-.5229-.1041-.7117-.2894-.1888-.1854-.2948-.4367-.2948-.6988z"/><path d="m35.123 40.7322c-.1944.0864-.3979.1674-.6105.243h.6105z"/><path d="m19.877 40.7322v.243h.6105c-.2127-.0756-.4162-.1566-.6105-.243z"/></g><path d="m19.877 44.28v-3.5478c.1943.0864.3978.1674.6105.243 2.013.702 4.95.9342 7.0125.9342s4.9995-.2322 7.0125-.9342c.2163-.0756.4198-.1566.6105-.243v3.5154l-.0385.0486c-.4015.4644-2.893 1.4148-7.5845 1.4148s-7.183-.9504-7.5845-1.431zm7.623-6.8256c4.686 0 7.183.9504 7.59 1.4202-.407.4644-2.904 1.4148-7.59 1.4148s-7.183-.9504-7.59-1.4094c.407-.4752 2.904-1.4256 7.59-1.4256zm0 10.9674c-8.888 0-13.75-2.0034-13.75-3.0294 0-.5832 1.54-1.4688 4.466-2.16v1.0476c0 2.3976 5.83 3.0348 9.273 3.0348s9.284-.621 9.284-3.0348v-1.026c2.926.6696 4.477 1.566 4.477 2.1384 0 1.0476-4.862 3.0294-13.75 3.0294z" fill="#fff"/><path d="m15.4495 12.0906 2.0955-2.91061c.0973-.13801.1491-.30198.1485-.4698v-3.132h9.2565v3.1482c-.0001.12338.0281.2452.0825.3564l4.455 8.99101c.517.9666.473 1.7928-.121 2.322-.3182.2789-.7342.426-1.1605.4104v-.6966c0-.2148-.0869-.4209-.2416-.5728-.1548-.1519-.3646-.2372-.5834-.2372s-.4286.0853-.5834.2372c-.1547.1519-.2416.358-.2416.5728v9.882c-.0188.2502-.1333.4841-.3205.6548s-.4333.2656-.6888.2656c-.2554 0-.5015-.0949-.6887-.2656s-.3017-.4046-.3205-.6548v-9.8334c0-.2148-.0869-.4209-.2416-.5728-.1548-.1519-.3646-.2372-.5834-.2372s-.4286.0853-.5834.2372c-.1547.1519-.2416.358-.2416.5728v3.8718c0 .2621-.106.5134-.2948.6988-.1888.1853-.4448.2894-.7117.2894s-.5229-.1041-.7117-.2894c-.1888-.1854-.2948-.4367-.2948-.6988v-3.8718c0-.2148-.0869-.4209-.2416-.5728-.1548-.1519-.3646-.2372-.5834-.2372s-.4286.0853-.5834.2372c-.1547.1519-.2416.358-.2416.5728v2.9808c-.0188.2502-.1333.4841-.3205.6548s-.4333.2656-.6887.2656c-.2555 0-.5016-.0949-.6888-.2656s-.3017-.4046-.3205-.6548v-4.212c0-.2148-.0869-.4209-.2416-.5728-.1548-.1519-.3646-.2372-.5834-.2372s-.4286.0853-.5834.2372c-.1547.1519-.2416.358-.2416.5728v.9234.0378 1.08c0 .2621-.106.5134-.2948.6988-.1888.1853-.4448.2894-.7117.2894h-.0935c-.2669 0-.5229-.1041-.7117-.2894-.1888-.1854-.2948-.4367-.2948-.6988z" fill="#fff"/></svg>