<svg fill="none" height="75" viewBox="0 0 75 75" width="75" xmlns="http://www.w3.org/2000/svg"><g clip-rule="evenodd" fill="#fff" fill-rule="evenodd"><path d="m28.4063 63.2401c.7844.8016 2.0746.8016 2.859 0l41.035-41.9365c.7607-.7774.7607-2.0202 0-2.7976l-5.7778-5.9048c-.7845-.8016-2.0746-.8016-2.859 0l-41.035 41.9365c-.7607.7774-.7607 2.0202-.0001 2.7976z"/><path d="m37.0431 57.3353c.7607-.7774.7607-2.0202 0-2.7976l-24.8358-25.3813c-.7844-.8017-2.0745-.8017-2.85894 0l-5.77787 5.9048c-.76068.7773-.76068 2.0201 0 2.7975l24.83581 25.3814c.7844.8016 2.0746.8016 2.859 0z"/></g></svg>