<svg width="75" height="75" viewBox="0 0 75 75" fill="none" xmlns="http://www.w3.org/2000/svg">
<path fill-rule="evenodd" clip-rule="evenodd" d="M30.7224 55.6654C31.5068 56.4671 32.797 56.4671 33.5814 55.6654L62.2185 26.3992C62.9791 25.6219 62.9791 24.3791 62.2185 23.6017L58.8663 20.1759C58.0819 19.3742 56.7917 19.3742 56.0073 20.1759L27.3702 49.4421C26.6095 50.2194 26.6095 51.4622 27.3702 52.2396L30.7224 55.6654Z" fill="white"/>
<path fill-rule="evenodd" clip-rule="evenodd" d="M36.9335 52.2396C37.6942 51.4622 37.6942 50.2194 36.9335 49.4421L19.9139 32.0485C19.1294 31.2468 17.8393 31.2468 17.0549 32.0485L13.7027 35.4743C12.942 36.2517 12.942 37.4945 13.7027 38.2718L30.7224 55.6654C31.5068 56.4671 32.7969 56.4671 33.5814 55.6654L36.9335 52.2396Z" fill="white"/>
</svg>
