<svg fill="none" height="54" viewBox="0 0 55 54" width="55" xmlns="http://www.w3.org/2000/svg"><path d="m43.7965 36.5364-4.1965-4.1094-1.98-8.9424c-.0913-.6349-.4213-1.2132-.9253-1.621-.5039-.4078-1.1451-.6155-1.7972-.5822-.6173.0382-1.197.3044-1.6225.7452-.2567-.2496-.5631-.4447-.9-.5729-.3368-.1282-.697-.1868-1.058-.1723-.2997.0182-.5937.0877-.869.2052l-3.993-3.9096c-.5095-.4677-1.1808-.7279-1.8783-.7279-.6974 0-1.3688.2602-1.8782.7279-.1235.1238-.2341.2595-.33.405-.3093-.3012-.6892-.5233-1.1063-.6468-.4171-.1234-.8587-.1445-1.286-.0613-.4273.0831-.8273.268-1.1649.5383-.3376.2704-.6024.6179-.7713 1.0122l-1.749-1.7172c-.4989-.4891-1.1752-.7636-1.8802-.7631-.705.0006-1.3809.276-1.8791.7658-.4981.4898-.7777 1.1538-.7772 1.846s.2811 1.3558.78 1.8449l.0715.0702c-.3198.1222-.6115.3058-.858.54-.4968.4898-.7756 1.1529-.7756 1.8441s.2788 1.3543.7756 1.8441l2.552 2.5056c-.3167.1249-.6061.3082-.8525.54l-.066.0702c-.2473.2418-.4435.5292-.5774.8457-.1339.3164-.2028.6557-.2028.9984s.0689.682.2028.9984c.1339.3165.3301.6039.5774.8457l10.054 9.9144c.1211.1189.2767.1981.4455.2268l3.5695.6156 2.662 2.619c.1555.1505.3646.2357.583.2376.1083.0002.2156-.0207.3157-.0615.1001-.0407.1909-.1006.2673-.1761l1.1715-1.1826 1.7985 1.8036c.0762.0778.1676.1399.2687.1826.101.0426.2098.065.3198.0658.11-.0008.2187-.0232.3198-.0658.101-.0427.1924-.1048.2687-.1826l8.3765-8.2134c.1551-.1537.242-.3614.242-.5778-.0002-.1068-.0222-.2125-.0647-.3108-.0426-.0983-.1047-.1873-.1828-.2616zm-19.932-17.82c.1988-.1659.4513-.257.7122-.257.261 0 .5134.0911.7123.257l3.861 3.834c-.2775.4663-.3969 1.0071-.341 1.5444-.0049.0304-.0049.0614 0 .0918l.044.1998-5.3295-5.2326c.0904-.1587.2054-.3027.341-.4266zm6.831 24.8238-2.266-2.2302c-.122-.1178-.2772-.1968-.4455-.2268l-3.564-.5832-9.9-9.72c-.0937-.0918-.1679-.2008-.2186-.3208s-.0768-.2486-.0768-.3785.0261-.2585.0768-.3785.1249-.229.2186-.3208l.0715-.0702c.1922-.1793.4471-.2792.7122-.2792s.5201.0999.7123.2792l4.279 4.2012c.159.1256.3598.1889.5635.1776.2038-.0113.3961-.0963.5397-.2387s.2284-.3319.238-.5321c.0095-.2001-.0568-.3967-.1862-.5516l-8.5525-8.4078c-.1771-.1886-.273-.4372-.2677-.6936.0053-.2565.1114-.501.2962-.6824.1847-.1814.4338-.2856.695-.2908s.5144.0889.7065.2628l8.3655 8.2242c.0761.0757.1669.1358.2671.1766.1001.0408.2075.0615.3159.061.1085.0014.2162-.0189.3164-.0597.1003-.0409.191-.1014.2666-.1779.0771-.0748.1384-.164.1802-.2622.0418-.0983.0633-.2037.0633-.3102s-.0215-.2119-.0633-.3102c-.0418-.0982-.1031-.1874-.1802-.2622l-8.3655-8.2242-1.8095-1.7712c-.0945-.0919-.1695-.2012-.2206-.3217-.0512-.1205-.0775-.2497-.0775-.3803 0-.1305.0263-.2598.0775-.3803.0511-.1205.1261-.2298.2206-.3217.1921-.1793.4471-.2792.7122-.2792s.5201.0999.7123.2792l10.1915 9.9954h.0275c.1568.1482.3671.2292.5848.2252.2176-.0041.4247-.0928.5757-.2468.1509-.1539.2334-.3605.2293-.5742-.0041-.2136-.0945-.417-.2513-.5652l-6.7045-6.5502c-.0945-.0919-.1695-.2012-.2206-.3217-.0512-.1205-.0775-.2497-.0775-.3803 0-.1305.0263-.2598.0775-.3803.0511-.1205.1261-.2298.2206-.3217.1921-.1793.4471-.2793.7122-.2793s.5201.1.7123.2793l8.514 8.3646c.1253.125.2887.2063.4655.2316.1767.0254.357-.0067.5135-.0912.1572-.0837.2825-.2154.3569-.3751.0744-.1598.0939-.3389.0556-.5105l-.6215-2.8458c-.0166-.2456.0667-.4876.2317-.6729.165-.1852.3982-.2987.6483-.3153.2425-.0168.4823.0594.6689.2124s.3057.3711.3321.6084v.0756l2.365 10.6866c.0327.1512.1091.2899.22.3996l2.2715 2.2248zm4.158.6426-1.221-1.2366 5.3625-5.265c.1547-.1517.2418-.3576.242-.5724-.0014-.2145-.0883-.42-.242-.5724l-2.695-2.6298-1.815-8.2242-.385-1.701c-.0067-.2793.0933-.5509.2805-.7614.0702-.0854.1579-.1555.2574-.2057.0994-.0502.2084-.0794.3201-.0859.2425-.0168.4823.0594.6689.2124s.3057.3711.3321.6084v.0756l2.0405 9.18c.0327.1524.1113.2916.2255.3996l3.8115 3.7098z" fill="#000"/><path d="m23.8645 18.7164c.1988-.1659.4513-.257.7122-.257.261 0 .5134.0911.7123.257l3.861 3.834c-.2775.4663-.3969 1.0071-.341 1.5444-.0049.0304-.0049.0614 0 .0918l.044.1998-5.3295-5.2326c.0904-.1587.2054-.3027.341-.4266zm6.831 24.8238-2.266-2.2302c-.122-.1178-.2772-.1968-.4455-.2268l-3.564-.5832-9.9-9.72c-.0937-.0918-.1679-.2008-.2186-.3208s-.0768-.2486-.0768-.3785.0261-.2585.0768-.3785.1249-.229.2186-.3208l.0715-.0702c.1922-.1793.4471-.2792.7122-.2792s.5201.0999.7123.2792l4.279 4.2012c.159.1256.3598.1889.5635.1776.2038-.0113.3961-.0963.5397-.2387s.2284-.3319.238-.5321c.0095-.2001-.0568-.3967-.1862-.5516l-8.5525-8.4078c-.1771-.1886-.273-.4372-.2677-.6936.0053-.2565.1114-.501.2962-.6824.1847-.1814.4338-.2856.695-.2908s.5144.0889.7065.2628l8.3655 8.2242c.0761.0757.1669.1358.2671.1766.1001.0408.2075.0615.3159.061.1085.0014.2162-.0189.3164-.0597.1003-.0409.191-.1014.2666-.1779.0771-.0748.1384-.164.1802-.2622.0418-.0983.0633-.2037.0633-.3102s-.0215-.2119-.0633-.3102c-.0418-.0982-.1031-.1874-.1802-.2622l-8.3655-8.2242-1.8095-1.7712c-.0945-.0919-.1695-.2012-.2206-.3217-.0512-.1205-.0775-.2497-.0775-.3803 0-.1305.0263-.2598.0775-.3803.0511-.1205.1261-.2298.2206-.3217.1921-.1793.4471-.2792.7122-.2792s.5201.0999.7123.2792l10.1915 9.9954h.0275c.1568.1482.3671.2292.5848.2252.2176-.0041.4247-.0928.5757-.2468.1509-.1539.2334-.3605.2293-.5742-.0041-.2136-.0945-.417-.2513-.5652l-6.7045-6.5502c-.0945-.0919-.1695-.2012-.2206-.3217-.0512-.1205-.0775-.2497-.0775-.3803 0-.1305.0263-.2598.0775-.3803.0511-.1205.1261-.2298.2206-.3217.1921-.1793.4471-.2793.7122-.2793s.5201.1.7123.2793l8.514 8.3646c.1253.125.2887.2063.4655.2316.1767.0254.357-.0067.5135-.0912.1572-.0837.2825-.2154.3569-.3751.0744-.1598.0939-.3389.0556-.5105l-.6215-2.8458c-.0166-.2456.0667-.4876.2317-.6729.165-.1852.3982-.2987.6483-.3153.2425-.0168.4823.0594.6689.2124s.3057.3711.3321.6084v.0756l2.365 10.6866c.0327.1512.1091.2899.22.3996l2.2715 2.2248zm4.158.6426-1.221-1.2366 5.3625-5.265c.1547-.1517.2418-.3576.242-.5724-.0014-.2145-.0883-.42-.242-.5724l-2.695-2.6298-1.815-8.2242-.385-1.701c-.0067-.2793.0933-.5509.2805-.7614.0702-.0854.1579-.1555.2574-.2057.0994-.0502.2084-.0794.3201-.0859.2425-.0168.4823.0594.6689.2124s.3057.3711.3321.6084v.0756l2.0405 9.18c.0327.1524.1113.2916.2255.3996l3.8115 3.7098z" fill="#fff"/><g fill="#000"><path d="m22.6765 15.66c.2184-.0019.4275-.0871.583-.2376l3.564-3.5424c.1532-.1526.2391-.3582.2391-.5724s-.0859-.4198-.2391-.5724c-.0762-.0757-.167-.1359-.2671-.1769-.1-.0411-.2074-.0622-.3159-.0622-.1084 0-.2158.0211-.3159.0622-.1001.041-.1909.1012-.2671.1769l-3.564 3.4992c-.1317.11-.2249.258-.2664.4228-.0415.1649-.0291.3384.0353.496.0645.1576.1778.2913.3239.3823.146.0909.3175.1345.4902.1245z"/><path d="m16.2745 15.2118c.1547.1517.3644.2369.583.2369s.4283-.0852.583-.2369c.0771-.0748.1384-.164.1802-.2622.0418-.0983.0634-.2037.0634-.3102s-.0216-.2119-.0634-.3102c-.0418-.0982-.1031-.1874-.1802-.2622l-3.564-3.5046c-.1554-.1518-.3658-.2368-.585-.2363s-.4292.0865-.5838.239-.2412.3591-.2407.5743c.0006.2152.0881.4214.2435.5732z"/><path d="m19.7669 14.4234c.2188 0 .4287-.0853.5834-.2372s.2416-.358.2416-.5728v-4.9734c0-.21482-.0869-.42085-.2416-.57275-.1547-.15191-.3646-.23725-.5834-.23725s-.4286.08534-.5833.23725c-.1547.1519-.2417.35793-.2417.57275v4.9518c-.0029.1082.0163.2158.0564.3166.0402.1008.1005.1927.1774.2702s.1688.1391.2704.1811c.1015.0421.2106.0637.3208.0637z"/></g></svg>