<svg fill="none" height="54" viewBox="0 0 54 54" width="54" xmlns="http://www.w3.org/2000/svg"><path d="m34.4034 24.813h-.0918c-.3488-.0006-.6941.0692-1.0152.2052-.0364-.4421-.1859-.8673-.4342-1.2349-.2482-.3676-.5867-.6652-.9831-.8643-.3964-.199-.8373-.2927-1.2804-.2721-.4431.0205-.8734.1546-1.2497.3895-.3167-.5429-.8202-.952-1.4164-1.1508-.5963-.1987-1.2445-.1736-1.8236.0708v-3.5586c0-.6925-.2751-1.3566-.7647-1.8462-.4897-.4896-1.1538-.7647-1.8462-.7647-.6925 0-1.3566.2751-1.8462.7647s-.7647 1.1537-.7647 1.8462v9.612l-.1134-.1728-.054-.0756c-.2194-.268-.4908-.4887-.7979-.6487s-.6435-.2561-.9888-.2823c-.3453-.0263-.6924.0178-1.0201.1296-.3278.1117-.6295.2888-.8868.5206-.474.4301-.7705 1.0217-.8314 1.6589-.0609.6371.1181 1.2741.502 1.7863l5.7834 8.9748v3.7206c0 .2148.0853.4208.2372.5728.1519.1519.358.2372.5728.2372h10.7298c.2148 0 .4208-.0853.5727-.2372.1519-.152.2373-.358.2373-.5728v-3.7044l2.0574-2.8944c.098-.1371.1509-.3013.1512-.4698v-9.1314c-.0007-.3446-.0696-.6857-.2026-1.0035-.133-.3179-.3275-.6064-.5725-.8488-.2449-.2424-.5353-.434-.8545-.5637-.3193-.1297-.661-.1951-1.0056-.1922zm.9882 11.4858-2.0574 2.8944c-.0981.1371-.1509.3013-.1512.4698v3.1482h-9.0828v-3.1482c-.0004-.1552-.0454-.307-.1296-.4374l-5.94-9.18-.0432-.0594c-.1131-.1437-.1818-.3174-.1976-.4996-.0159-.1822.0218-.365.1084-.5261s.2183-.2935.3789-.3808c.1607-.0873.3434-.1259.5257-.1109.2436.0173.4705.1298.6318.3132l1.5714 2.4516c.0907.1591.2327.2828.4028.3509s.3582.0764.5336.0238c.1755-.0526.3279-.1632.4325-.3136.1045-.1505.155-.3319.1431-.5147v-12.3822c0-.2628.1044-.5148.2902-.7007.1858-.1858.4379-.2902.7007-.2902s.5148.1044.7007.2902c.1858.1859.2902.4379.2902.7007v9.8334c0 .2148.0853.4208.2372.5728.1519.1519.358.2372.5728.2372s.4208-.0853.5727-.2372c.1519-.152.2373-.358.2373-.5728v-3.8718c0-.2628.1044-.5148.2902-.7007.1858-.1858.4379-.2902.7007-.2902s.5148.1044.7007.2902c.1858.1859.2902.4379.2902.7007v3.8718c0 .2148.0853.4208.2372.5728.1519.1519.358.2372.5728.2372s.4208-.0853.5727-.2372c.1519-.152.2373-.358.2373-.5728v-2.9808c0-.2628.1044-.5148.2902-.7007.1858-.1858.4379-.2902.7007-.2902s.5148.1044.7007.2902c.1858.1859.2902.4379.2902.7007v4.2066c0 .2148.0853.4208.2372.5728.1519.1519.358.2372.5728.2372s.4208-.0853.5727-.2372c.1519-.152.2373-.358.2373-.5728v-.918s0 0 0-.0378v-1.08c0-.2621.1041-.5134.2894-.6988.1853-.1853.4367-.2894.6988-.2894h.0918c.2621 0 .5134.1041.6987.2894.1854.1854.2895.4367.2895.6988z" fill="#000"/><path d="m35.3916 36.2988-2.0574 2.8944c-.0981.1371-.1509.3013-.1512.4698v3.1482h-9.0828v-3.1482c-.0004-.1552-.0454-.307-.1296-.4374l-5.94-9.18-.0432-.0594c-.1131-.1437-.1818-.3174-.1976-.4996-.0159-.1822.0218-.365.1084-.5261s.2183-.2935.3789-.3808c.1607-.0873.3434-.1259.5257-.1109.2436.0173.4705.1298.6318.3132l1.5714 2.4516c.0907.1591.2327.2828.4028.3509s.3582.0764.5336.0238c.1755-.0526.3279-.1632.4325-.3136.1045-.1505.155-.3319.1431-.5147v-12.3822c0-.2628.1044-.5148.2902-.7007.1858-.1858.4379-.2902.7007-.2902s.5148.1044.7007.2902c.1858.1859.2902.4379.2902.7007v9.8334c0 .2148.0853.4208.2372.5728.1519.1519.358.2372.5728.2372s.4208-.0853.5727-.2372c.1519-.152.2373-.358.2373-.5728v-3.8718c0-.2628.1044-.5148.2902-.7007.1858-.1858.4379-.2902.7007-.2902s.5148.1044.7007.2902c.1858.1859.2902.4379.2902.7007v3.8718c0 .2148.0853.4208.2372.5728.1519.1519.358.2372.5728.2372s.4208-.0853.5727-.2372c.1519-.152.2373-.358.2373-.5728v-2.9808c0-.2628.1044-.5148.2902-.7007.1858-.1858.4379-.2902.7007-.2902s.5148.1044.7007.2902c.1858.1859.2902.4379.2902.7007v4.2066c0 .2148.0853.4208.2372.5728.1519.1519.358.2372.5728.2372s.4208-.0853.5727-.2372c.1519-.152.2373-.358.2373-.5728v-.918s0 0 0-.0378v-1.08c0-.2621.1041-.5134.2894-.6988.1853-.1853.4367-.2894.6988-.2894h.0918c.2621 0 .5134.1041.6987.2894.1854.1854.2895.4367.2895.6988z" fill="#fff"/><g fill="#000"><path d="m26.7516 15.12 3.4884-3.4776c.1431-.1536.221-.3566.2173-.5665-.0037-.2098-.0888-.4101-.2372-.5585s-.3486-.2334-.5584-.2371c-.2099-.0037-.413.0742-.5665.2173l-3.4992 3.4992c-.0869.0728-.1576.163-.2074.2648s-.0778.2129-.082.3262c-.0041.1133.0155.2262.0577.3314s.106.2004.1872.2794c.0813.079.1783.1401.2846.1792.1064.0392.2198.0556.3329.0482s.2234-.0385.3238-.0912c.1003-.0527.1885-.1259.2588-.2148z"/><path d="m19.8936 14.958c.1518.1547.3588.2427.5756.2447.2167.0021.4253-.0821.58-.2339s.2427-.3588.2447-.5756c.0021-.2167-.0821-.4253-.2339-.58l-3.4992-3.4992c-.1535-.1431-.3566-.221-.5665-.2173-.2098.0037-.41.0887-.5584.2371-.1485.1485-.2335.3487-.2372.5585-.0037.2099.0742.4129.2173.5665z"/><path d="m24.1326 13.3596v-4.95181c0-.21482-.0854-.42085-.2373-.57275-.1519-.15191-.3579-.23725-.5727-.23725-.2149 0-.4209.08534-.5728.23725-.1519.1519-.2372.35793-.2372.57275v4.95181c0 .2148.0853.4208.2372.5728.1519.1519.3579.2372.5728.2372.2148 0 .4208-.0853.5727-.2372.1519-.152.2373-.358.2373-.5728z"/></g></svg>