<svg fill="none" height="75" viewBox="0 0 75 75" width="75" xmlns="http://www.w3.org/2000/svg"><path d="m15.3908 52.747c-.7811.7811-.7811 2.0474 0 2.8285l5.0338 5.0337c.781.7811 2.0474.7811 2.8284 0l14.747-14.747 14.7471 14.747c.781.7811 2.0473.7811 2.8284 0l5.0338-5.0337c.781-.7811.781-2.0474 0-2.8285l-14.747-14.747 14.747-14.747c.781-.7811.781-2.0474 0-2.8285l-5.0338-5.0338c-.7811-.781-2.0474-.781-2.8284 0l-14.7471 14.7471-14.747-14.7471c-.781-.781-2.0474-.781-2.8284 0l-5.0338 5.0338c-.7811.7811-.7811 2.0474 0 2.8285l14.747 14.747z" fill="#fff"/></svg>