<svg fill="none" height="54" viewBox="0 0 55 54" width="55" xmlns="http://www.w3.org/2000/svg"><path d="m21.945 38.6316v3.7206c0 .2148.0869.4208.2417.5727.1547.152.3645.2373.5833.2373h10.9065c.2188 0 .4287-.0853.5834-.2373.1547-.1519.2416-.3579.2416-.5727v-3.7044l2.0955-2.8944c.0999-.1371.1537-.3013.154-.4698v-9.1314c-.0014-.6904-.281-1.3521-.7777-1.8408s-1.1701-.7646-1.8733-.7674h-.0935c-.3552-.0006-.7069.0692-1.034.2052-.0374-.4049-.1713-.7955-.3908-1.1402-.2196-.3448-.5187-.6339-.8731-.8442s-.7543-.3357-1.1672-.3662-.8274.0348-1.2099.1906v-6.0588c.0021-.6261-.2257-1.232-.6416-1.7065-.416-.4746-.9923-.786-1.6232-.8772s-1.2741.0439-1.8117.3806c-.5377.3367-.9337.8524-1.1155 1.4525-.4037-.1917-.8504-.2793-1.2981-.2545-.4477.0247-.8816.1611-1.2608.3961-.3792.2351-.6911.5611-.9064.9473-.2153.3861-.3269.8198-.3242 1.2601v9.612l-.11-.1728-.055-.0756c-.2234-.268-.4998-.4887-.8126-.6487s-.6555-.2561-1.0072-.2823c-.3517-.0263-.7051.0178-1.039.1296-.3338.1117-.6411.2888-.9032.5206-.4828.4301-.7847 1.0217-.8468 1.6588-.062.6372.1203 1.2742.5113 1.7864zm-4.4385-11.2158c.0938-.0824.2033-.1459.3221-.1867.1189-.0408.2447-.0582.3704-.0511.1257.007.2487.0383.3621.0921.1133.0537.2147.129.2984.2213l1.6005 2.4516c.092.1574.2351.28.4064.3481.1714.068.3611.0776.5386.0272.1776-.0505.3328-.158.4407-.3054.1079-.1473.1622-.326.1543-.5073v-12.3768c0-.2628.1064-.5149.2956-.7007.1893-.1858.446-.2902.7137-.2902.2676 0 .5244.1044.7136.2902.1893.1858.2956.4379.2956.7007v9.8334c0 .2148.0869.4208.2417.5727.1547.1519.3645.2373.5833.2373s.4287-.0854.5834-.2373.2416-.3579.2416-.5727v-11.4318c0-.2628.1064-.5149.2956-.7007.1893-.1858.446-.2902.7137-.2902.2676 0 .5244.1044.7136.2902.1893.1858.2956.4379.2956.7007v11.4318c0 .2148.0869.4208.2417.5727.1547.1519.3645.2373.5833.2373s.4287-.0854.5834-.2373.2416-.3579.2416-.5727v-2.9808c0-.2628.1064-.5149.2956-.7007.1893-.1858.446-.2902.7137-.2902.2676 0 .5244.1044.7136.2902.1893.1858.2956.4379.2956.7007v4.2066c0 .2148.0869.4208.2417.5727.1547.1519.3645.2373.5833.2373s.4287-.0854.5834-.2373.2416-.3579.2416-.5727v-.918s0 0 0-.0378v-1.08c0-.2621.1061-.5135.2948-.6988.1888-.1853.4448-.2894.7117-.2894h.088c.267 0 .523.1041.7117.2894.1888.1853.2948.4367.2948.6988v8.8776l-2.1065 2.8944c-.0998.1371-.1537.3013-.154.4698v3.1482h-9.251v-3.1482c-.0004-.1552-.0462-.307-.132-.4374l-6.05-9.18-.044-.0594c-.1525-.1925-.2233-.4353-.1977-.6779.0256-.2425.1457-.4659.3352-.6235z" fill="#000"/><path d="m17.5065 27.4158c.0938-.0824.2033-.1459.3221-.1867.1189-.0408.2447-.0582.3704-.0511.1257.007.2487.0383.3621.0921.1133.0537.2147.129.2984.2213l1.6005 2.4516c.092.1574.2351.28.4064.3481.1714.068.3611.0776.5386.0272.1776-.0505.3328-.158.4407-.3054.1079-.1473.1622-.326.1543-.5073v-12.3768c0-.2628.1064-.5149.2956-.7007.1893-.1858.446-.2902.7137-.2902.2676 0 .5244.1044.7136.2902.1893.1858.2956.4379.2956.7007v9.8334c0 .2148.0869.4208.2417.5727.1547.1519.3645.2373.5833.2373s.4287-.0854.5834-.2373.2416-.3579.2416-.5727v-11.4318c0-.2628.1064-.5149.2956-.7007.1893-.1858.446-.2902.7137-.2902.2676 0 .5244.1044.7136.2902.1893.1858.2956.4379.2956.7007v11.4318c0 .2148.0869.4208.2417.5727.1547.1519.3645.2373.5833.2373s.4287-.0854.5834-.2373.2416-.3579.2416-.5727v-2.9808c0-.2628.1064-.5149.2956-.7007.1893-.1858.446-.2902.7137-.2902.2676 0 .5244.1044.7136.2902.1893.1858.2956.4379.2956.7007v4.2066c0 .2148.0869.4208.2417.5727.1547.1519.3645.2373.5833.2373s.4287-.0854.5834-.2373.2416-.3579.2416-.5727v-.918s0 0 0-.0378v-1.08c0-.2621.1061-.5135.2948-.6988.1888-.1853.4448-.2894.7117-.2894h.088c.267 0 .523.1041.7117.2894.1888.1853.2948.4367.2948.6988v8.8776l-2.1065 2.8944c-.0998.1371-.1537.3013-.154.4698v3.1482h-9.251v-3.1482c-.0004-.1552-.0462-.307-.132-.4374l-6.05-9.18-.044-.0594c-.1525-.1925-.2233-.4353-.1977-.6779.0256-.2425.1457-.4659.3352-.6235z" fill="#fff"/></svg>