<svg fill="none" height="75" viewBox="0 0 75 75" width="75" xmlns="http://www.w3.org/2000/svg"><g fill="#fff"><path d="m58.4591 55.3669c5.197-4.0382 8.5409-10.3484 8.5409-17.4395 0-12.1904-9.8823-22.0727-22.0726-22.0727-8.1408 0-15.2523 4.4071-19.0787 10.9657l-2.4098-1.8186c4.3878-7.2791 12.3697-12.1471 21.4885-12.1471 13.8472 0 25.0726 11.2254 25.0726 25.0727 0 13.8472-11.2254 25.0726-25.0726 25.0726-9.0839 0-17.0395-4.8308-21.4379-12.0635l2.4087-1.8177c1.4127 2.3969 3.2654 4.5035 5.447 6.2089l.6505-6.1102c.5786-4.9684 4.6058-8.7315 9.4924-8.7315h6.6165c4.7463 0 8.9139 3.7631 9.4925 8.8784z"/><path d="m44.4128 38.4392c5.0882 0 9.2132-4.1205 9.2132-9.2104 0-5.084-4.125-9.2103-9.2132-9.2103-5.0825 0-9.2075 4.1263-9.2075 9.2103 0 5.0899 4.125 9.2104 9.2075 9.2104z"/><path d="m18.5938 47.7676-12.01616-8.8112c-.77019-.4417-.77019-1.4686 0-1.9103l12.01616-8.8112c.7702-.5909 2.0037 0 2.0037 1.0268v4.6982h10.169c.6198 0 1.2335.4417 1.2335 1.1759v5.8742c0 .5908-.4633 1.176-1.2335 1.176h-10.169v4.5548c0 1.0268-1.2335 1.6119-2.0037 1.0268z"/></g></svg>