<svg fill="none" height="75" viewBox="0 0 75 75" width="75" xmlns="http://www.w3.org/2000/svg"><path clip-rule="evenodd" d="m59.0681 11h-43.5112c-2.5173 0-4.5569 2.0396-4.5569 4.5569v43.5112c0 2.5173 2.0396 4.5569 4.5569 4.5569h43.5112c2.5173 0 4.5569-2.0396 4.5569-4.5569v-43.5112c0-2.5173-2.0396-4.5569-4.5569-4.5569zm1.617 47.6729c0 1.1117-.9004 2.0121-2.0121 2.0121h-42.7209c-.5352 0-1.045-.2113-1.424-.588-.3767-.379-.588-.8889-.588-1.4241v-7.9954l14.2516-12.0079c.4525-.379 1.1048-.402 1.5826-.0575l13.5237 9.7318c.4869.3469 1.1484.3147 1.5986-.078l15.7887-13.7466zm-23.6851-28.4911 5.1818-5.1818-5.1818-5.1818 3.8182-3.8182 5.1818 5.1818 5.1818-5.1818 3.8182 3.8182-5.1818 5.1818 5.1818 5.1818-3.8182 3.8182-5.1818-5.1818-5.1818 5.1818z" fill="#fff" fill-rule="evenodd"/></svg>