<svg fill="none" height="54" viewBox="0 0 54 54" width="54" xmlns="http://www.w3.org/2000/svg"><path d="m31.86 17.28v-3.78c0-.2148-.0853-.4208-.2372-.5728-.1519-.1519-.358-.2372-.5728-.2372h-10.7082c-.2148 0-.4208.0853-.5727.2372-.1519.152-.2373.358-.2373.5728v3.699l-2.052 2.8944c-.0971.1375-.1498.3015-.1512.4698v9.1368c0 .6917.2748 1.3551.7639 1.8443.4892.4891 1.1526.7639 1.8443.7639h.0918c.3552.0013.7066-.0723 1.0314-.216.036.4429.1854.869.4339 1.2374.2485.3683.5877.6665.9849.8656.3973.1992.8391.2926 1.2829.2714s.8747-.1564 1.2511-.3926c.2281.3907.5544.7149.9466.9403.3922.2255.8366.3444 1.289.3449.3395.001.6758-.0669.9882-.1998v3.5532c.0306.6719.319 1.3062.8053 1.7709.4863.4646 1.133.7239 1.8056.7239s1.3193-.2593 1.8056-.7239c.4863-.4647.7747-1.099.8053-1.7709v-7.56c.8267.0221 1.6291-.2803 2.2356-.8424 1.1394-1.0422 1.3122-2.6352.4698-4.2498zm2.7 11.88c-.3125.279-.7208.426-1.1394.4104v-.702c0-.2148-.0853-.4208-.2372-.5728-.1519-.1519-.358-.2372-.5728-.2372s-.4208.0853-.5727.2372c-.152.152-.2373.358-.2373.5728v9.882c-.0185.2502-.1309.4841-.3147.6548s-.4253.2656-.6762.2656c-.2508 0-.4924-.0949-.6762-.2656s-.2962-.4046-.3147-.6548v-9.8712c0-.2148-.0853-.4208-.2372-.5728-.1519-.1519-.358-.2372-.5728-.2372s-.4208.0853-.5727.2372c-.1519.152-.2373.358-.2373.5728v3.8718c0 .2621-.1041.5134-.2894.6988-.1853.1853-.4367.2894-.6988.2894s-.5134-.1041-.6988-.2894c-.1853-.1854-.2894-.4367-.2894-.6988v-3.8718c0-.2148-.0853-.4208-.2372-.5728-.1519-.1519-.358-.2372-.5728-.2372s-.4208.0853-.5727.2372c-.1519.152-.2373.358-.2373.5728v2.9808c-.0185.2502-.1309.4841-.3147.6548s-.4253.2656-.6762.2656c-.2508 0-.4924-.0949-.6762-.2656s-.2962-.4046-.3147-.6548v-4.2066c0-.2148-.0853-.4208-.2372-.5728-.1519-.1519-.358-.2372-.5728-.2372s-.4208.0853-.5727.2372c-.1519.152-.2373.358-.2373.5728v.918.0378 1.08c0 .2621-.1041.5134-.2894.6988-.1853.1853-.4367.2894-.6988.2894h-.0918c-.2574-.0042-.503-.1087-.6845-.2912-.1816-.1826-.2847-.4288-.2875-.6862v-8.8884l2.0574-2.8944c.0965-.1375.1474-.3018.1458-.4698v-3.1482h9.0882v3.1482c-.0001.1234.0276.2452.081.3564l4.374 8.991c.513.972.4698 1.7928-.135 2.3274z" fill="#000"/><path d="m34.56 29.16c-.3125.279-.7208.426-1.1394.4104v-.702c0-.2148-.0853-.4208-.2372-.5728-.1519-.1519-.358-.2372-.5728-.2372s-.4208.0853-.5727.2372c-.152.152-.2373.358-.2373.5728v9.882c-.0185.2502-.1309.4841-.3147.6548s-.4253.2656-.6762.2656c-.2508 0-.4924-.0949-.6762-.2656s-.2962-.4046-.3147-.6548v-9.8712c0-.2148-.0853-.4208-.2372-.5728-.1519-.1519-.358-.2372-.5728-.2372s-.4208.0853-.5727.2372c-.1519.152-.2373.358-.2373.5728v3.8718c0 .2621-.1041.5134-.2894.6988-.1853.1853-.4367.2894-.6988.2894s-.5134-.1041-.6988-.2894c-.1853-.1854-.2894-.4367-.2894-.6988v-3.8718c0-.2148-.0853-.4208-.2372-.5728-.1519-.1519-.358-.2372-.5728-.2372s-.4208.0853-.5727.2372c-.1519.152-.2373.358-.2373.5728v2.9808c-.0185.2502-.1309.4841-.3147.6548s-.4253.2656-.6762.2656c-.2508 0-.4924-.0949-.6762-.2656s-.2962-.4046-.3147-.6548v-4.2066c0-.2148-.0853-.4208-.2372-.5728-.1519-.1519-.358-.2372-.5728-.2372s-.4208.0853-.5727.2372c-.1519.152-.2373.358-.2373.5728v.918.0378 1.08c0 .2621-.1041.5134-.2894.6988-.1853.1853-.4367.2894-.6988.2894h-.0918c-.2574-.0042-.503-.1087-.6845-.2912-.1816-.1826-.2847-.4288-.2875-.6862v-8.8884l2.0574-2.8944c.0965-.1375.1474-.3018.1458-.4698v-3.1482h9.0882v3.1482c-.0001.1234.0276.2452.081.3564l4.374 8.991c.513.972.4698 1.7928-.135 2.3274z" fill="#fff"/></svg>