<svg fill="none" height="54" viewBox="0 0 55 54" width="55" xmlns="http://www.w3.org/2000/svg"><path d="m34.65 20.8602h-.0935c-.3641-.0061-.7256.0619-1.0615.1998-.0366-.4429-.1888-.869-.442-1.2374-.2531-.3683-.5986-.6665-1.0031-.8656-.4046-.1991-.8546-.2926-1.3066-.2714-.4521.0212-.891.1564-1.2743.3926-.2597-.4372-.6442-.7902-1.1058-1.0154-.4617-.2251-.9804-.3127-1.4921-.2518-.5118.0608-.9942.2675-1.3877.5944-.3936.3269-.681.7598-.8269 1.2452-.4039-.1929-.8513-.2815-1.2998-.2574-.4484.0242-.8832.1603-1.2632.3955s-.6925.5617-.9081.9485c-.2156.3869-.3271.8214-.3239 1.2624v1.2204c-.5843.0804-1.1388.3034-1.6125.6487s-.8516.8018-1.099 1.3277c-.354.7855-.4895 1.6491-.3929 2.5029.0966.8537.4219 1.667.9429 2.3571l3.784 4.32v3.6612c0 .2148.0869.4209.2416.5728s.3646.2372.5834.2372h10.901c.2188 0 .4286-.0853.5833-.2372.1548-.1519.2417-.358.2417-.5728v-3.6882l2.0955-2.8944c.0998-.1371.1537-.3013.154-.4698v-7.5168c-.0014-.6876-.2788-1.3469-.7719-1.8351s-1.1623-.766-1.8626-.7731zm.979 9.8658-2.079 2.8944c-.0999.1371-.1537.3013-.154.4698v3.1698h-9.2675v-3.1698c.0033-.1977-.0671-.3898-.198-.54l-3.971-4.5252c-.3151-.4493-.5096-.9695-.5654-1.5123-.0557-.5428.029-1.0906.2464-1.5927.1138-.2468.2817-.4658.4919-.6413.2101-.1755.4572-.3032.7236-.3739v1.9764c.0044.1704.0645.3348.1715.469s.2551.231.4225.2762c.1781.0448.3662.0323.5365-.0357.1703-.0681.3139-.1881.4095-.3423.0799-.1284.1218-.2761.121-.4266v-2.8404-1.9764c0-.2628.1063-.5148.2956-.7007.1893-.1858.446-.2902.7136-.2902.2677 0 .5244.1044.7137.2902.1892.1859.2956.4379.2956.7007v1.215c0 .2148.0869.4209.2416.5728s.3646.2372.5834.2372.4286-.0853.5833-.2372c.1548-.1519.2417-.358.2417-.5728v-2.808c0-.2628.1063-.5148.2956-.7007.1893-.1858.446-.2902.7136-.2902.2677 0 .5244.1044.7137.2902.1892.1859.2956.4379.2956.7007v2.808c0 .2148.0869.4209.2416.5728s.3646.2372.5834.2372.4286-.0853.5833-.2372c.1548-.1519.2417-.358.2417-.5728v-1.917c0-.2628.1063-.5148.2956-.7007.1893-.1858.446-.2902.7136-.2902.2677 0 .5244.1044.7137.2902.1892.1859.2956.4379.2956.7007v2.997c0 .2148.0869.4209.2416.5728s.3646.2372.5834.2372.4286-.0853.5833-.2372c.1548-.1519.2417-.358.2417-.5728v-.7938s0 0 0-.0378c0-.2621.106-.5134.2948-.6988.1887-.1853.4447-.2894.7117-.2894h.121c.2669 0 .5229.1041.7117.2894.1887.1854.2948.4367.2948.6988z" fill="#000"/><path d="m35.629 30.726-2.079 2.8944c-.0999.1371-.1537.3013-.154.4698v3.1698h-9.2675v-3.1698c.0033-.1977-.0671-.3898-.198-.54l-3.971-4.5252c-.3151-.4493-.5096-.9695-.5654-1.5123-.0557-.5428.029-1.0906.2464-1.5927.1138-.2468.2817-.4658.4919-.6413.2101-.1755.4572-.3032.7236-.3739v1.9764c.0044.1704.0645.3348.1715.469s.2551.231.4225.2762c.1781.0448.3662.0323.5365-.0357.1703-.0681.3139-.1881.4095-.3423.0799-.1284.1218-.2761.121-.4266v-2.8404-1.9764c0-.2628.1063-.5148.2956-.7007.1893-.1858.446-.2902.7136-.2902.2677 0 .5244.1044.7137.2902.1892.1859.2956.4379.2956.7007v1.215c0 .2148.0869.4209.2416.5728s.3646.2372.5834.2372.4286-.0853.5833-.2372c.1548-.1519.2417-.358.2417-.5728v-2.808c0-.2628.1063-.5148.2956-.7007.1893-.1858.446-.2902.7136-.2902.2677 0 .5244.1044.7137.2902.1892.1859.2956.4379.2956.7007v2.808c0 .2148.0869.4209.2416.5728s.3646.2372.5834.2372.4286-.0853.5833-.2372c.1548-.1519.2417-.358.2417-.5728v-1.917c0-.2628.1063-.5148.2956-.7007.1893-.1858.446-.2902.7136-.2902.2677 0 .5244.1044.7137.2902.1892.1859.2956.4379.2956.7007v2.997c0 .2148.0869.4209.2416.5728s.3646.2372.5834.2372.4286-.0853.5833-.2372c.1548-.1519.2417-.358.2417-.5728v-.7938s0 0 0-.0378c0-.2621.106-.5134.2948-.6988.1887-.1853.4447-.2894.7117-.2894h.121c.2669 0 .5229.1041.7117.2894.1887.1854.2948.4367.2948.6988z" fill="#fff"/></svg>