<svg fill="none" height="54" viewBox="0 0 55 54" width="55" xmlns="http://www.w3.org/2000/svg"><path d="m35.4421 18.9918h-.0936c-.3452-.0003-.6871.0658-1.0064.1944v-3.5262c-.001-.4282-.1091-.8496-.3149-1.2272s-.5029-.6998-.8652-.9382c-.3623-.2383-.7787-.3857-1.2126-.429-.434-.0433-.8721.0187-1.2758.1806v-.0972c-.0312-.6719-.3249-1.3062-.8202-1.7708-.4953-.4647-1.154-.724-1.8391-.724s-1.3438.2593-1.839.724c-.4953.4646-.7891 1.0989-.8202 1.7708v2.4246c-.4035-.1622-.8414-.2244-1.2751-.1811s-.8499.1907-1.2119.4292-.6586.5609-.8637.9386c-.2051.3776-.3124.7991-.3123 1.2271v9.072l-.1155-.1728-.055-.0756c-.4282-.5335-1.0546-.8781-1.7416-.9581-.6869-.08-1.3781.1112-1.9214.5315-.5434.4203-.8944 1.0354-.9759 1.7099-.0815.6744.1132 1.353.5414 1.8865l5.874 8.9586v3.7206c0 .2148.0869.4209.2416.5728s.3645.2372.5834.2372h10.9065c.2188 0 .4286-.0853.5833-.2372s.2417-.358.2417-.5728v-3.699l2.0955-2.8944c.0972-.138.149-.302.1484-.4698v-13.9968c0-.6917-.2798-1.3551-.778-1.8443-.4982-.4891-1.1739-.7639-1.8784-.7639zm1.0064 16.3458-2.0899 2.8944c-.0999.1371-.1537.3013-.1541.4698v3.1482h-9.2564v-3.1482c.0011-.1554-.0448-.3077-.132-.4374l-6.0225-9.18-.044-.0594c-.1486-.1883-.2193-.4248-.1979-.6621s.1333-.4579.3134-.6177c.0951-.0855.2073-.1508.3294-.1917s.2515-.0565.3801-.0459c.2477.0184.4785.1307.6435.3132l1.6005 2.4192c.0955.1492.238.2638.4058.3264.1679.0625.3519.0695.5242.0201.1723-.0495.3235-.1528.4306-.2943.1071-.1414.1643-.3133.1629-.4896v-11.826c0-.2621.106-.5134.2947-.6988.1888-.1853.4448-.2894.7118-.2894.2669 0 .5229.1041.7117.2894.1887.1854.2948.4367.2948.6988v9.2934c0 .2148.0869.4209.2416.5728s.3645.2372.5834.2372c.2188 0 .4286-.0853.5833-.2372s.2417-.358.2417-.5728v-14.1318c.0188-.2502.1333-.4841.3205-.6548s.4332-.2656.6887-.2656.5015.0949.6887.2656.3017.4046.3206.6548v14.1318c0 .2148.0869.4209.2416.5728s.3645.2372.5834.2372c.2188 0 .4286-.0853.5833-.2372s.2417-.358.2417-.5728v-11.61c.0188-.2502.1333-.4841.3205-.6548s.4332-.2656.6887-.2656.5015.0949.6887.2656.3017.4046.3205.6548v12.8358c0 .2148.087.4209.2417.5728s.3645.2372.5833.2372c.2189 0 .4287-.0853.5834-.2372s.2417-.358.2417-.5728v-6.8958c0-.2621.106-.5134.2947-.6988.1888-.1853.4448-.2894.7117-.2894h.0936c.2669 0 .5229.1041.7117.2894.1887.1854.2947.4367.2947.6988z" fill="#000"/><path d="m36.4485 35.3376-2.0899 2.8944c-.0999.1371-.1537.3013-.1541.4698v3.1482h-9.2564v-3.1482c.0011-.1554-.0448-.3077-.132-.4374l-6.0225-9.18-.044-.0594c-.1486-.1883-.2193-.4248-.1979-.6621s.1333-.4579.3134-.6177c.0951-.0855.2073-.1508.3294-.1917s.2515-.0565.3801-.0459c.2477.0184.4785.1307.6435.3132l1.6005 2.4192c.0955.1492.238.2638.4058.3264.1679.0625.3519.0695.5242.0201.1723-.0495.3235-.1528.4306-.2943.1071-.1414.1643-.3133.1629-.4896v-11.826c0-.2621.106-.5134.2947-.6988.1888-.1853.4448-.2894.7118-.2894.2669 0 .5229.1041.7117.2894.1887.1854.2948.4367.2948.6988v9.2934c0 .2148.0869.4209.2416.5728s.3645.2372.5834.2372c.2188 0 .4286-.0853.5833-.2372s.2417-.358.2417-.5728v-14.1318c.0188-.2502.1333-.4841.3205-.6548s.4332-.2656.6887-.2656.5015.0949.6887.2656.3017.4046.3206.6548v14.1318c0 .2148.0869.4209.2416.5728s.3645.2372.5834.2372c.2188 0 .4286-.0853.5833-.2372s.2417-.358.2417-.5728v-11.61c.0188-.2502.1333-.4841.3205-.6548s.4332-.2656.6887-.2656.5015.0949.6887.2656.3017.4046.3205.6548v12.8358c0 .2148.087.4209.2417.5728s.3645.2372.5833.2372c.2189 0 .4287-.0853.5834-.2372s.2417-.358.2417-.5728v-6.8958c0-.2621.106-.5134.2947-.6988.1888-.1853.4448-.2894.7117-.2894h.0936c.2669 0 .5229.1041.7117.2894.1887.1854.2947.4367.2947.6988z" fill="#fff"/></svg>