<svg enable-background="new 0 0 200 200" height="200" viewBox="0 0 200 200" width="200" xmlns="http://www.w3.org/2000/svg"><circle cx="285.5" cy="73.1" r="31.4"/><path d="m307.3 158.3h-42.8c-5.5 0-10-4.5-10-10v-8.6c0-17.3 14.1-31.4 31.4-31.4 17.3 0 31.4 14.1 31.4 31.4v8.6c0 5.5-4.5 10-10 10z"/><path d="m336.5 39.4c-2.8 0-5 2.2-5 5v29.5c0 2.8 2.2 5 5 5 2.8 0 5-2.2 5-5v-29.5c0-2.7-2.3-5-5-5z"/><path d="m356.2 59.2c0-2.8-2.2-5-5-5h-29.5c-2.8 0-5 2.2-5 5 0 2.8 2.2 5 5 5h29.5c2.8 0 5-2.3 5-5z"/><g fill="#fff"><path d="m506.7 41.7c-12.4 0-22.5 10.1-22.5 22.5v35.3c0 12.4 10.1 22.5 22.5 22.5 12.4 0 22.5-10.1 22.5-22.5v-35.3c0-12.4-10.1-22.5-22.5-22.5z"/><circle cx="506.7" cy="136.3" r="5"/><circle cx="475.3" cy="100.7" r="5"/><circle cx="538" cy="100.7" r="5"/><path d="m533 100.7c-.4 14.2-12.1 25.6-26.3 25.6-14.3 0-26-11.5-26.3-25.6h-10c.4 19.6 16.6 35.5 36.3 35.5 19.7 0 35.9-15.9 36.3-35.5z"/><path d="m506.7 131.3c-2.8 0-5 2.2-5 5v11.1c0 2.8 2.2 5 5 5 2.8 0 5-2.2 5-5v-11.1c0-2.7-2.3-5-5-5z"/><path d="m524.8 153.3c0-2.8-2.2-5-5-5h-26.1c-2.8 0-5 2.2-5 5 0 2.8 2.2 5 5 5h26.1c2.7 0 5-2.2 5-5z"/><path d="m729.6 116.6c-2-2-5.1-2-7.1 0l-17.5 17.6c-5.5 5.5-14.6 5.5-20.1 0s-5.5-14.6 0-20.1l17.6-17.6c2-2 2-5.1 0-7.1s-5.1-2-7.1 0l-17.7 17.6c-9.4 9.4-9.4 24.9 0 34.3s24.9 9.4 34.3 0l17.6-17.6c1.9-2 1.9-5.1 0-7.1z"/><path d="m760.2 58.8c-9.4-9.4-24.9-9.4-34.3 0l-17.6 17.6c-2 2-2 5.1 0 7.1s5.1 2 7.1 0l17.6-17.7c5.5-5.5 14.6-5.5 20.1 0s5.5 14.6 0 20.1l-17.6 17.6c-2 2-2 5.1 0 7.1s5.1 2 7.1 0l17.6-17.6c9.4-9.4 9.4-24.8 0-34.2z"/><path d="m712.2 113.9 20.6-20.6c1.9-1.9 1.9-5.1 0-7.1-1.9-1.9-5.1-1.9-7.1 0l-20.6 20.6c-1.9 1.9-1.9 5.1 0 7.1s5.1 1.9 7.1 0z"/></g><path d="m928.9 137.5h-55c-5.5 0-10-4.5-10-10v-55c0-5.5 4.5-10 10-10h55c5.5 0 10 4.5 10 10v55c0 5.5-4.5 10-10 10z"/><path d="m951.9 111.5c-8.9-5.1-8.9-17.9 0-23.1l9.3-5.4 23-13.3c2.8-1.6 6.3.4 6.3 3.6v26.7 26.6c0 3.2-3.5 5.2-6.3 3.6l-23-13.3z"/><circle cx="1116.4" cy="73.1" fill="#fff" r="31.4"/><path d="m1138.2 158.3h-42.8c-5.5 0-10-4.5-10-10v-8.6c0-17.3 14.1-31.4 31.4-31.4 17.3 0 31.4 14.1 31.4 31.4v8.6c0 5.5-4.5 10-10 10z" fill="#fff"/><path d="m1151.2 41.8c-1-.1-2.1-.1-3.1-.1-4.4 0-6.6 5.5-3.3 8.6 6.1 5.7 9.8 13.8 9.8 22.8s-3.8 17.1-9.9 22.9c-3.2 3-1.1 8.5 3.3 8.5h.1c18.1 0 32.6-15.2 31.3-33.6-.9-15.2-13-27.7-28.2-29.1z" fill="#fff"/><path d="m1148.6 108.3h-.1c-4.5 0-6.6 5.5-3.3 8.6 6.1 5.7 9.9 13.8 9.9 22.8v6.9c0 1.3-.6 4-1.4 4.7-2.8 2.4-1 7 2.6 7h13.8c5.5 0 10-4.5 10-10v-8.6c-.1-17.3-14.3-31.4-31.5-31.4z" fill="#fff"/><path d="m1397.8 135.4c-.4-4.5-3.2-8.5-8.9-13.4-6.9-5.7-12.2-8.1-16.6-7.7-5.2 0-8.4 3.1-12.1 6.8-3.7 3.7-8.6 1.8-9.8 1.2-4-2.1-10-6.4-19.1-15.3-10.8-10.4-15.4-16.8-17.1-20.6-1.3-3.2.5-6 1.6-7.2 6.6-7 11.9-13.2-1.4-28.9-5.3-6.1-10.1-8.5-14.6-8.5-1.7.1-3.4.7-4.9 1.4-.7.3-1.4.7-2 1.1-8.5 4.9-10.9 10-10.9 10-.8 1.4-1.4 2.7-1.8 3.9-.2.5-.3.9-.4 1.4-.4 1.8-.5 3.3-.5 3.9-.4 4.4.3 9.9 3 16.5.3.9.6 1.8 1 2.7 6.1 14.2 17 29.6 30.8 43 18.2 17.9 35.5 26.8 48.4 30.4s13.6 4.5 19.6.9c1-.4 1.9-1 2.8-1.7 5.9-4 10-9.6 11.7-13.3 0 0 0 0 0-.1.1-.2.2-.5.3-.7.6-1.9 1-3.8.9-5.8z" fill="#fff"/><path d="m1481.9 118c3.4 2.9 8.3 3.7 15.8 3.2 8.9-.9 14.3-2.9 17.2-6.3 3.7-3.7 3.7-8.2 3.7-13.4 0-5.2 4.8-7.3 6.1-7.8 4.3-1.4 11.6-2.5 24.3-2.7 15-.3 22.7.9 26.7 2.4 3.2 1.4 3.9 4.6 4 6.2.3 9.6.9 17.8 21.5 19.4 8 .6 13.2-1.1 16.3-4.3 1.1-1.3 1.9-2.9 2.5-4.5.3-.7.5-1.5.7-2.2 2.6-9.4.6-14.8.6-14.8-.4-1.5-.9-2.9-1.5-4-.2-.4-.5-.9-.7-1.3-1-1.6-1.9-2.7-2.4-3.1-2.9-3.4-7.2-6.8-13.8-9.6-.8-.4-1.7-.8-2.6-1.2-14.3-5.7-33-8.9-52.2-8.6-25.5.2-44.1 6.1-55.8 12.7s-12.7 6.4-14.5 13.2c-.4 1-.6 2-.8 3.2-1.3 7-.2 13.8 1.2 17.7v.1c.1.2.2.5.3.7.8 2 1.8 3.7 3.4 5z" fill="#fff"/><path d="m1766.1 137.5h-55c-5.5 0-10-4.5-10-10v-55c0-5.5 4.5-10 10-10h55c5.5 0 10 4.5 10 10v55c0 5.5-4.5 10-10 10z" fill="#fff"/><path d="m1789.1 111.5c-8.9-5.1-8.9-17.9 0-23.1l9.3-5.4 23-13.3c2.8-1.6 6.3.4 6.3 3.6v26.7 26.6c0 3.2-3.5 5.2-6.3 3.6l-23-13.3z" fill="#fff"/><path d="m1826.5 38.3c-2-2-5.4-2-7.4 0l-116.9 116.9c-2 2-2 5.4 0 7.4 2 2 5.4 2 7.4 0l116.9-116.9c2.1-2 2.1-5.3 0-7.4z" fill="#b3b4b4"/><path d="m2027.3 86.9h-3.2c-1.2 0-2.2-.8-2.6-1.9-.6-1.6-1.2-3.2-1.9-4.7-.5-1.1-.3-2.3.5-3.2l2.3-2.3c3.8-3.8 3.8-10 0-13.7l-4.8-4.8c-3.8-3.8-10-3.8-13.7 0l-2.3 2.3c-.8.8-2.1 1-3.2.5-1.5-.7-3.1-1.4-4.7-1.9-1.1-.4-1.9-1.4-1.9-2.6v-3.2c0-5.3-4.4-9.7-9.7-9.7h-6.8c-5.3 0-9.7 4.4-9.7 9.7v3.2c0 1.2-.8 2.2-1.9 2.6-1.6.6-3.2 1.2-4.7 1.9-1.1.5-2.3.3-3.2-.5l-2.3-2.3c-3.8-3.8-10-3.8-13.7 0l-4.8 4.8c-3.8 3.8-3.8 10 0 13.7l2.3 2.3c.8.8 1 2.1.5 3.2-.7 1.5-1.4 3.1-1.9 4.7-.4 1.1-1.4 1.9-2.6 1.9h-3.2c-5.3 0-9.7 4.4-9.7 9.7v6.8c0 5.3 4.4 9.7 9.7 9.7h3.2c1.2 0 2.2.8 2.6 1.9.6 1.6 1.2 3.2 1.9 4.7.5 1.1.3 2.3-.5 3.2l-2.3 2.3c-3.8 3.8-3.8 10 0 13.7l4.8 4.8c3.8 3.8 10 3.8 13.7 0l2.3-2.3c.8-.8 2.1-1 3.2-.5 1.5.7 3.1 1.4 4.7 1.9 1.1.4 1.9 1.4 1.9 2.6v3.2c0 5.3 4.4 9.7 9.7 9.7h6.8c5.3 0 9.7-4.4 9.7-9.7v-3.2c0-1.2.8-2.2 1.9-2.6 1.6-.6 3.2-1.2 4.7-1.9 1.1-.5 2.3-.3 3.2.5l2.3 2.3c3.8 3.8 10 3.8 13.7 0l4.8-4.8c3.8-3.8 3.8-10 0-13.7l-2.3-2.3c-.8-.8-1-2.1-.5-3.2.7-1.5 1.4-3.1 1.9-4.7.4-1.1 1.4-1.9 2.6-1.9h3.2c5.3 0 9.7-4.4 9.7-9.7v-6.8c0-5.3-4.4-9.7-9.7-9.7zm-48.6 41c-15.4 0-27.9-12.5-27.9-27.9s12.5-27.9 27.9-27.9 27.9 12.5 27.9 27.9-12.5 27.9-27.9 27.9z"/><path d="m2212.4 84.1c0 3.5-2.9 6.4-6.4 6.4h-64.3c-3.5 0-6.4-2.9-6.4-6.4 0-3.5 2.9-6.4 6.4-6.4h64.3c3.5-.1 6.4 2.8 6.4 6.4z"/><path d="m2122.7 86.4 33.9 19.5c1.8 1 4-.3 4-2.3v-39.1c0-2.1-2.2-3.4-4-2.3l-33.9 19.5c-1.8 1.1-1.8 3.7 0 4.7l33.9 19.5c1.8 1 4-.3 4-2.3v-39.1c0-2.1-2.2-3.4-4-2.3l-33.9 19.5c-1.8 1.1-1.8 3.7 0 4.7z"/><path d="m2180.3 116.9c0-3.5 2.9-6.4 6.4-6.4h64.3c3.5 0 6.4 2.9 6.4 6.4 0 3.5-2.9 6.4-6.4 6.4h-64.3c-3.5.1-6.4-2.8-6.4-6.4z"/><path d="m2270 114.6-33.9-19.5c-1.8-1-4 .3-4 2.3v39.1c0 2.1 2.2 3.4 4 2.3l33.9-19.5c1.8-1.1 1.8-3.7 0-4.7l-33.9-19.5c-1.8-1-4 .3-4 2.3v39.1c0 2.1 2.2 3.4 4 2.3l33.9-19.5c1.8-1.1 1.8-3.7 0-4.7z"/><path d="m2376.3 102.4c4.9 0 8.9-4 8.9-8.9s-4-8.9-8.9-8.9-8.9 4-8.9 8.9 3.9 8.9 8.9 8.9z"/><path d="m2426.3 97c-.7-.7-2-.7-2.7 0l-28.3 30.8c-1.5 1.6-4 1.6-5.4 0l-12.1-13.2c-.4-.4-.8-.5-1.4-.5-.5 0-.9.3-1.4.5l-10.7 11.6c-.6.7-1 1.6-1 2.5v7.9c0 2 1.6 3.7 3.7 3.7h73.5c2 0 3.7-1.6 3.7-3.7v-18.6c0-.9-.3-1.8-1-2.5z"/><path d="m2476.6 55.5c-.7-.8-1.5-1.2-2.6-1.4l-102.6-8.9c-2-.3-3.8 1.4-4.1 3.4l-1.6 18.4h-13.6c-2 0-3.7 1.6-3.7 3.7v80.5c0 2 1.6 3.7 3.7 3.7h103c2 0 3.7-1.6 3.7-3.7v-10.2l7.3.7h.3c.8 0 1.8-.3 2.4-.8.8-.7 1.2-1.5 1.4-2.6l7-80.1c.3-.9-.1-1.9-.6-2.7zm-25 90.5c0 .8-.7 1.5-1.5 1.5h-92.6c-.8 0-1.5-.7-1.5-1.5v-70c0-.8.7-1.5 1.5-1.5h92.6c.8 0 1.5.7 1.5 1.5zm11.8-13.4c-.1.8-.8 1.4-1.6 1.4l-1.5-.1c-.8-.1-1.4-.7-1.4-1.5v-61.6c0-2-1.6-3.7-3.7-3.7h-82l1.1-12.6c.1-.8.8-1.4 1.6-1.4l92.2 8.1c.8.1 1.4.8 1.4 1.6z"/><path d="m2389.3 95.4h1.6c.4.6 1 1 1.7 1h2.6c.7 0 1.4-.4 1.7-1h1.6c1.1 0 2-.9 2-2s-.9-2-2-2h-1.3c0-1.1-.9-2-2-2h-2.6c-1.1 0-2 .9-2 2h-1.3c-1.1 0-2 .9-2 2s.9 2 2 2z"/><path d="m2418 88.5h1.6c.4.6 1 1 1.7 1h2.6c.7 0 1.4-.4 1.7-1h1.6c1.1 0 2-.9 2-2s-.9-2-2-2h-1.3c0-1.1-.9-2-2-2h-2.6c-1.1 0-2 .9-2 2h-1.3c-1.1 0-2 .9-2 2s.9 2 2 2z"/><path d="m2399.7 101.9c0 1.1.9 2 2 2h1.6c.4.6 1 1 1.7 1h2.6c.7 0 1.4-.4 1.7-1h1.6c1.1 0 2-.9 2-2s-.9-2-2-2h-1.3c0-1.1-.9-2-2-2h-2.6c-1.1 0-2 .9-2 2h-1.3c-1.1 0-2 .9-2 2z"/><path d="m2427.4 97c0 1.1.9 2 2 2h1.6c.4.6 1 1 1.7 1h2.6c.7 0 1.4-.4 1.7-1h1.6c1.1 0 2-.9 2-2s-.9-2-2-2h-1.3c0-1.1-.9-2-2-2h-2.6c-1.1 0-2 .9-2 2h-1.3c-1.1 0-2 .9-2 2z"/><path d="m2622.8 41.7c-32.2 0-58.3 26.1-58.3 58.3s26.1 58.3 58.3 58.3 58.3-26.1 58.3-58.3-26.1-58.3-58.3-58.3zm0 105.7c-26.2 0-47.4-21.2-47.4-47.4s21.2-47.4 47.4-47.4 47.4 21.2 47.4 47.4-21.2 47.4-47.4 47.4z"/><circle cx="2600.9" cy="92.2" r="8.3"/><circle cx="2642.9" cy="92.2" r="8.3"/><path d="m2621.9 138.1c15.6 0 28.5-11.8 30.1-27 .2-1.7-1.2-3.3-3-3.3h-54.3c-1.8 0-3.1 1.5-3 3.3 1.7 15.2 14.6 27 30.2 27z"/><path d="m2660.3 39.4c-2.8 0-5 2.2-5 5v29.5c0 2.8 2.2 5 5 5 2.8 0 5-2.2 5-5v-29.5c0-2.7-2.3-5-5-5z" fill="#4d4d4e"/><path d="m2680 59.2c0-2.8-2.2-5-5-5h-29.5c-2.8 0-5 2.2-5 5 0 2.8 2.2 5 5 5h29.5c2.8 0 5-2.3 5-5z" fill="#4d4d4e"/><path d="m2907.6 40.6c-1.1-1.1-2.8-1.5-4.2-.9l-113 40.4c-1.5.5-2.6 1.9-2.7 3.6-.1 1.6.8 3.1 2.2 3.9l38.5 19.3 31.9-18.8-18.8 31.9 19.3 38.5c.7 1.4 2.1 2.2 3.6 2.2h.2c1.6-.1 3-1.1 3.6-2.7l40.4-113c.5-1.6.1-3.3-1-4.4z"/><path d="m2828.5 106.7v21.8c0 3 3.8 4.2 5.6 1.8l7.5-10.5 18.8-31.9z" fill="#666766"/><path d="m3124.6 55c-14-14-36.8-14-50.8 0-1.7 1.7-3.2 3.6-4.5 5.6-1.3-2-2.8-3.8-4.5-5.5-14-14-36.8-14-50.8 0s-14 36.8 0 50.8l48.3 48.3c3.9 3.9 10.1 3.9 14 0l48.3-48.3c14-14.2 14-36.9 0-50.9z"/><path d="m25 144v27.2c0 2.1 1.7 3.8 3.8 3.8h27.2c1.4 0 2.7-.5 3.6-1.5l83.6-83.5c2-2 2-5.3 0-7.3l-25.9-25.9c-2-2-5.3-2-7.3 0l-83.5 83.5c-1 1-1.5 2.3-1.5 3.7z" fill="#e6e6e6"/><path d="m170.9 62.2c5.5-5.5 5.5-14.3 0-19.8l-13.4-13.4c-5.5-5.5-14.3-5.5-19.8 0l-8.9 8.9c-2 2-2 5.3 0 7.3l25.9 25.9c2 2 5.3 2 7.3 0z" fill="#e6e6e6"/></svg>