<svg fill="none" height="55" viewBox="0 0 55 55" width="55" xmlns="http://www.w3.org/2000/svg" xmlns:xlink="http://www.w3.org/1999/xlink"><clipPath id="a"><path d="m0 0h55v55h-55z" transform="matrix(-1 0 0 1 55 0)"/></clipPath><g clip-path="url(#a)"><path d="m1.56422 42.1226 1.64022-5.3067c.0498-.1596.12998-.3069.23547-.4331 0 0 .28916-.3408.79837-.9464-.05201-.133-.08382-.2738-.09125-.416-.07812-2.0424 1.24954-6.2361 2.86181-11.1007.44662-1.3476.83283-2.5101 1.00406-3.1513.46168-1.6877 1.34386-3.2222 2.5601-4.4521.0675-.0631.1422-.118.2222-.1616 2.0643-1.1807 4.2542-2.2019 7.8855-3.8925l2.1478-1.0027-.0023.0006c1.4416-.6971 3.027-1.0424 4.6305-1.0058 2.4567-2.91594 4.1452-4.92122 4.2947-5.09669 1.1623-1.36997 3.2061-1.51141 4.5686-.31471 1.3931 1.22908 1.6337 3.33525.5511 4.83105-.1152.13623-1.1621 1.38005-2.7737 3.29195l21.5087 12.9381c.282.1717.4872.4467.5712.7686.0839.3219.037.6628-.1259.948l-7.813 13.5954.0006.0024c-.3422.5923-1.0901.7849-1.6734.434l-8.1836-4.9226c-4.0718 1.1583-7.7728.6602-11.1701-.3417-.3904.1043-.7778.2105-1.1457.3065-4.0976 1.069-6.8484 1.5313-8.9962.2412-.9702-.5836-1.6749-.9736-2.1369-1.2196l-4.36952 5.1795c-.10718.1291-.23858.2316-.38496.3052l-4.89755 2.4355c-.43974.2183-.96995.1469-1.34267-.1831-.37505-.3294-.52186-.8549-.37418-1.3307zm20.30528-28.589-2.1502 1.0033c-3.4901 1.626-5.627 2.6233-7.5694 3.7215l.0006.0024c-.8322.9022-1.4384 1.9981-1.7711 3.1947-.1906.7095-.56845 1.847-1.04494 3.2884-.68189 2.0561-1.65821 5.0105-2.24282 7.3069 4.11906-4.8891 10.90446-12.9414 15.98006-18.967-.4111.1199-.8136.2726-1.2022.4498zm10.8594-6.80683c-.3371-.2786-.822-.24308-1.1122.07528-.3416.4051-8.8327 10.48215-16.0762 19.08075.8962-.1833 1.8073-.2997 2.72-.3532l2.9101-3.4514c5.9629-7.0765 11.5613-13.72172 11.8364-14.04913.1894-.4488.0778-.97051-.2781-1.3023zm-9.6918 16.99313-1.4416 1.7109c1.6674.0452 3.3332-.0961 4.9653-.4233l-3.0572-1.839c-.1551.1821-.312.367-.4665.5514zm13.1209 10.4625c.3312-.1041.6884-.0608.9897.1185l7.5862 4.5653 6.5807-11.4517-20.8319-12.5309c-1.5528 1.8435-3.4039 4.0403-5.363 6.3639l4.4026 2.6483-.0024.0006c.302.1816.514.4827.585.8307.0733.3474-.003.7086-.2082.9921-1.5288 2.1254-4.8976 2.1701-8.4616 2.2151-4.1575.0532-7.1498.2525-8.2099 2.0913 2.4399.1168 4.9957 1.1234 7.6675 2.1757 4.4894 1.7687 9.5805 3.7751 15.2653 1.9811zm-19.8623.6013c.9849.5925 2.4874.5266 4.6028.091-.2916-.1136-.5808-.2277-.8672-.34-1.5397-.6449-3.1123-1.1978-4.7135-1.6521l-.7544.897c.454.2532 1.0259.5792 1.7323 1.0041zm-9.43632 4.2768 5.49102-6.516c-.1845.0127-.3708.0183-.5487.047l.0006.0024c-.5438.0939-1.0856-.2021-1.3114-.717-2.55648 3.0356-4.46971 5.3067-5.01911 5.9581l-.70066 2.2684z" fill="#fff"/></g></svg>