<svg fill="none" height="75" viewBox="0 0 75 75" width="75" xmlns="http://www.w3.org/2000/svg"><path d="m59.5358 30.219c0-1.6569-1.3432-3-3-3-1.6569 0-3 1.3431-3 3zm-3 32.781v3c1.6568 0 3-1.3431 3-3zm-37.4767 0h-3c0 1.6569 1.3432 3 3 3zm3-32.781c0-1.6569-1.3431-3-3-3-1.6568 0-3 1.3431-3 3zm15.4409-19.219 2.1299-2.11272c-.5633-.56787-1.33-.88728-2.1299-.88728s-1.5666.31941-2.1299.88728zm24.3701 28.8279c1.1668 1.1763 3.0663 1.184 4.2426.0172s1.184-3.0663.0172-4.2426zm-52.99998-4.2254c-1.16683 1.1763-1.15915 3.0758.01716 4.2426 1.17632 1.1668 3.07582 1.1591 4.24262-.0172zm34.82198 6.5833c0 3.3342-2.6747 5.9955-5.9231 5.9955v6c6.6078 0 11.9231-5.3935 11.9231-11.9955zm-5.9231 5.9955c-3.2483 0-5.923-2.6613-5.923-5.9955h-6c0 6.602 5.3153 11.9955 11.923 11.9955zm-5.923-5.9955c0-3.3341 2.6747-5.9954 5.923-5.9954v-6c-6.6077 0-11.923 5.3934-11.923 11.9954zm5.923-5.9954c3.2484 0 5.9231 2.6613 5.9231 5.9954h6c0-6.602-5.3153-11.9954-11.9231-11.9954zm15.7668-5.9714v32.781h6v-32.781zm3 29.781h-37.4767v6h37.4767zm-34.4767 3v-32.781h-6v32.781zm13.311-49.8873 26.5 26.7152 4.2598-4.2254-26.5-26.71522zm-22.2402 26.7152 26.5-26.7152-4.2598-4.22542-26.49998 26.71522z" fill="#fff"/></svg>