<svg fill="none" height="75" viewBox="0 0 75 75" width="75" xmlns="http://www.w3.org/2000/svg"><g clip-rule="evenodd" fill="#fff" fill-rule="evenodd"><path d="m50.3915 30.7514c-1.2401 3.1767-4.1549 5.2484-7.3922 5.2484l.0002.0002c-4.4172 0-7.9995-3.8062-7.9995-8.4994 0-3.4397 1.9499-6.5367 4.9397-7.8541 2.9898-1.3147 6.4296-.5869 8.7169 1.8433 2.2874 2.4301 2.9723 6.0849 1.7349 9.2616zm-3.695-4.8791c-.6199-1.5884-2.0798-2.6216-3.6972-2.6216l-.0001.0001c-2.2073 0-3.9997 1.9017-3.9997 4.2497 0 1.7184.975 3.2669 2.4699 3.9256 1.4948.6587 3.2147.2948 4.3597-.9217 1.1424-1.2165 1.4849-3.0438.8674-4.6321z"/><path d="m56.9003 10h-37.8006c-4.4725 0-8.0997 3.6944-8.0997 8.2497v38.5006c0 4.5553 3.6272 8.2497 8.0997 8.2497h37.8006c4.4725 0 8.0997-3.6944 8.0997-8.2497v-38.5006c0-4.5553-3.6272-8.2497-8.0997-8.2497zm-37.8006 4.1249h37.8006c2.235 0 4.0498 1.8484 4.0498 4.1248v32.8082l-7.8716-8.059c-1.1365-1.1601-2.6805-1.8149-4.2929-1.8149-1.6098 0-3.1538.6548-4.2928 1.8149l-4.4828 4.5503-11.2153-11.4105-.0008-.0008c-1.1389-1.1622-2.6826-1.8141-4.292-1.8141-1.6124 0-3.1564.6522-4.2929 1.8149l-5.1585 5.2927v-23.1817c0-2.2764 1.8149-4.1249 4.0499-4.1249zm-4.0498 42.6254v-9.474l8.0187-8.1673c.7999-.7811 2.0629-.7811 2.8628 0l21.3703 21.7661h-28.202c-2.235 0-4.0498-1.8484-4.0498-4.1248zm37.9878 4.1248h3.86l.0019-.0002c2.1844 0 3.9765-1.7634 4.0499-3.9883l-10.7319-10.918c-.7998-.7812-2.0629-.7812-2.8627 0v.0026l-4.4827 4.5502z"/></g></svg>