<svg fill="none" height="75" viewBox="0 0 75 75" width="75" xmlns="http://www.w3.org/2000/svg"><path d="m31.137 60.8348c-4.6728 4.6729-12.2962 4.6729-16.9717 0-4.67287-4.6729-4.67287-12.2963 0-16.9718l10.6058-10.6057c4.456-4.4561 11.5785-4.7021 16.2922-.6475.9492.8086 1.0606 2.2354.249 3.1817-.8086.9462-2.2353 1.0576-3.1816.249-2.9649-2.5517-7.3477-2.4317-10.1745.3984l-10.6058 10.6058c-2.9648 2.9648-2.9648 7.641 0 10.6057 2.9648 2.9649 7.641 2.9649 10.6058 0l10.0755-10.0755c.4189-.4306.9961-.6738 1.5966-.6767.6006-.0059 1.1807.2314 1.6055.6592.4248.4248.6621 1.0019.6592 1.6025-.0029.6035-.249 1.1777-.6797 1.5967l-10.0755 10.0755zm19.0928-19.0928c-4.456 4.4561-11.5785 4.7022-16.2923.6475v-.0029c-.4599-.3868-.7441-.9405-.791-1.5381-.0468-.6006.1436-1.1924.5332-1.6494.3926-.4541.9463-.7383 1.5469-.7823.5977-.0469 1.1894.1494 1.6436.542 2.9648 2.5517 7.3476 2.4317 10.1745-.3984l10.6057-10.6058c2.9648-2.9648 2.9648-7.641 0-10.6057-2.9648-2.9649-7.641-2.9649-10.6057 0l-10.0755 10.0755v-.003c-.419.4336-.9961.6797-1.5967.6827-.6035.0058-1.1807-.2315-1.6084-.6592-.4248-.4248-.6621-1.0049-.6592-1.6055.0059-.6035.249-1.1777.6826-1.5996l10.0755-10.0755c4.6729-4.67285 12.2963-4.67285 16.9718 0 4.6729 4.6729 4.6729 12.2963 0 16.9718z" fill="#fff"/></svg>