<svg width="75" height="75" viewBox="0 0 75 75" fill="none" xmlns="http://www.w3.org/2000/svg">
<path d="M32.8072 40.5455H57.5217C59.3409 40.5455 60.8169 39.0695 60.8169 37.2502C60.8169 35.431 59.3409 33.955 57.5217 33.955H32.8072C30.988 33.955 29.512 35.431 29.512 37.2502C29.512 39.0695 30.988 40.5455 32.8072 40.5455Z" fill="white"/>
<path d="M19.443 42.1931C21.4425 42.1931 23.2446 40.9896 24.0105 39.1424C24.7742 37.2953 24.3516 35.1692 22.9378 33.7555C21.524 32.3417 19.398 31.919 17.5508 32.6828C15.7037 33.4487 14.5001 35.2508 14.5001 37.2502C14.5001 39.9792 16.7141 42.1931 19.443 42.1931Z" fill="white"/>
<path d="M32.8073 55.5571H57.5217C59.341 55.5571 60.817 54.0811 60.817 52.2618C60.817 50.4426 59.341 48.9666 57.5217 48.9666H32.8073C30.988 48.9666 29.512 50.4426 29.512 52.2618C29.512 54.0811 30.988 55.5571 32.8073 55.5571Z" fill="white"/>
<path d="M14.5001 52.2618C14.5001 50.2624 15.7037 48.4603 17.5508 47.6944C19.398 46.9307 21.524 47.3533 22.9378 48.7671C24.3516 50.1808 24.7743 52.3069 24.0105 54.154C23.2446 56.0012 21.4425 57.2047 19.443 57.2047C16.7141 57.2047 14.5001 54.9908 14.5001 52.2618Z" fill="white"/>
<path d="M32.9903 25.5337H57.7047C59.524 25.5337 61 24.0576 61 22.2384C61 20.4191 59.524 18.9431 57.7047 18.9431H32.9903C31.171 18.9431 29.695 20.4191 29.695 22.2384C29.695 24.0576 31.171 25.5337 32.9903 25.5337Z" fill="white"/>
<path d="M19.6261 27.1813C21.6255 27.1813 23.4276 25.9777 24.1935 24.1306C24.9572 22.2834 24.5346 20.1574 23.1208 18.7436C21.7071 17.3298 19.581 16.9071 17.7339 17.6709C15.8867 18.4368 14.6832 20.2389 14.6832 22.2384C14.6832 24.9673 16.8971 27.1813 19.6261 27.1813Z" fill="white"/>
</svg>
