<svg fill="none" height="75" viewBox="0 0 75 75" width="75" xmlns="http://www.w3.org/2000/svg"><g fill="#fff"><path d="m32.8072 40.5455h24.7145c1.8192 0 3.2952-1.476 3.2952-3.2953 0-1.8192-1.476-3.2952-3.2952-3.2952h-24.7145c-1.8192 0-3.2952 1.476-3.2952 3.2952 0 1.8193 1.476 3.2953 3.2952 3.2953z"/><path d="m19.443 42.1931c1.9995 0 3.8016-1.2035 4.5675-3.0507.7637-1.8471.3411-3.9732-1.0727-5.3869-1.4138-1.4138-3.5398-1.8365-5.387-1.0727-1.8471.7659-3.0507 2.568-3.0507 4.5674 0 2.729 2.214 4.9429 4.9429 4.9429z"/><path d="m32.8073 55.5571h24.7144c1.8193 0 3.2953-1.476 3.2953-3.2953 0-1.8192-1.476-3.2952-3.2953-3.2952h-24.7144c-1.8193 0-3.2953 1.476-3.2953 3.2952 0 1.8193 1.476 3.2953 3.2953 3.2953z"/><path d="m14.5001 52.2618c0-1.9994 1.2036-3.8015 3.0507-4.5674 1.8472-.7637 3.9732-.3411 5.387 1.0727 1.4138 1.4137 1.8365 3.5398 1.0727 5.3869-.7659 1.8472-2.568 3.0507-4.5675 3.0507-2.7289 0-4.9429-2.2139-4.9429-4.9429z"/><path d="m32.9903 25.5337h24.7144c1.8193 0 3.2953-1.4761 3.2953-3.2953 0-1.8193-1.476-3.2953-3.2953-3.2953h-24.7144c-1.8193 0-3.2953 1.476-3.2953 3.2953 0 1.8192 1.476 3.2953 3.2953 3.2953z"/><path d="m19.6261 27.1813c1.9994 0 3.8015-1.2036 4.5674-3.0507.7637-1.8472.3411-3.9732-1.0727-5.387-1.4137-1.4138-3.5398-1.8365-5.3869-1.0727-1.8472.7659-3.0507 2.568-3.0507 4.5675 0 2.7289 2.2139 4.9429 4.9429 4.9429z"/></g></svg>