<svg fill="none" height="75" viewBox="0 0 75 75" width="75" xmlns="http://www.w3.org/2000/svg"><path clip-rule="evenodd" d="m16.7543 58.9955c0 3.3021 2.7104 6.0091 6.0091 6.0091h29.279c3.2988 0 6.0058-2.7071 6.0124-6.0091v-17.0917c0-3.3021-2.7104-6.0091-6.0091-6.0091h-29.279c-3.3021 0-6.0091 2.7104-6.0091 6.0091zm37.8266-31.8175v2.6245c0 1.1865-.9322 2.1154-2.1154 2.1154-1.1833 0-2.1154-.9322-2.1154-2.1154v-2.6245c0-7.11-5.8408-12.9472-12.9472-12.9472-7.11 0-12.9472 5.8408-12.9472 12.9472v2.6245c0 1.1832-.9321 2.1154-2.1154 2.1154s-2.1154-.9322-2.1154-2.1154v-2.6245c0-9.4765 7.7015-17.178 17.178-17.178s17.178 7.7018 17.178 17.178zm-14.7198 30.9671v-7.295c1.7467-.7706 2.954-2.5171 2.954-4.5464 0-3.0823-2.7741-5.4969-5.9592-4.9061-1.9008.3339-3.4935 1.8751-3.9044 3.7759-.5394 2.4916.7964 4.7519 2.8513 5.6766v7.295c0 1.1302.8989 2.0292 2.0291 2.0292s2.0292-.899 2.0292-2.0292z" fill="#fff" fill-rule="evenodd"/></svg>