<svg fill="none" height="75" viewBox="0 0 75 75" width="75" xmlns="http://www.w3.org/2000/svg"><g fill="#fff"><path d="m47 49c0-1.1046.8954-2 2-2h5c1.1046 0 2 .8954 2 2v5c0 1.1046-.8954 2-2 2h-5c-1.1046 0-2-.8954-2-2z"/><path d="m33 49c0-1.1046.8954-2 2-2h5c1.1046 0 2 .8954 2 2v5c0 1.1046-.8954 2-2 2h-5c-1.1046 0-2-.8954-2-2z"/><path d="m19 49c0-1.1046.8954-2 2-2h5c1.1046 0 2 .8954 2 2v5c0 1.1046-.8954 2-2 2h-5c-1.1046 0-2-.8954-2-2z"/><path d="m47 35c0-1.1046.8954-2 2-2h5c1.1046 0 2 .8954 2 2v5c0 1.1046-.8954 2-2 2h-5c-1.1046 0-2-.8954-2-2z"/><path d="m33 35c0-1.1046.8954-2 2-2h5c1.1046 0 2 .8954 2 2v5c0 1.1046-.8954 2-2 2h-5c-1.1046 0-2-.8954-2-2z"/><path d="m19 35c0-1.1046.8954-2 2-2h5c1.1046 0 2 .8954 2 2v5c0 1.1046-.8954 2-2 2h-5c-1.1046 0-2-.8954-2-2z"/><path d="m47 21c0-1.1046.8954-2 2-2h5c1.1046 0 2 .8954 2 2v5c0 1.1046-.8954 2-2 2h-5c-1.1046 0-2-.8954-2-2z"/><path d="m33 21c0-1.1046.8954-2 2-2h5c1.1046 0 2 .8954 2 2v5c0 1.1046-.8954 2-2 2h-5c-1.1046 0-2-.8954-2-2z"/><path d="m19 21c0-1.1046.8954-2 2-2h5c1.1046 0 2 .8954 2 2v5c0 1.1046-.8954 2-2 2h-5c-1.1046 0-2-.8954-2-2z"/></g></svg>