<svg fill="none" height="54" viewBox="0 0 54 54" width="54" xmlns="http://www.w3.org/2000/svg"><path d="m33.7662 21.7026h-.0918c-.3487-.0006-.694.0692-1.0152.2052-.0364-.4421-.1859-.8673-.4341-1.2349s-.5868-.6653-.9832-.8643-.8373-.2927-1.2804-.2722c-.443.0206-.8734.1547-1.2497.3896-.3166-.543-.8201-.952-1.4164-1.1508-.5962-.1987-1.2445-.1736-1.8236.0708v-3.5586c0-.6925-.275-1.3566-.7647-1.8462-.4896-.4896-1.1537-.7647-1.8462-.7647-.6924 0-1.3565.2751-1.8461.7647-.4897.4896-.7648 1.1537-.7648 1.8462v9.6174l-.1134-.1728-.054-.0756c-.2193-.268-.4907-.4887-.7978-.6487-.3072-.1601-.6435-.2561-.9889-.2824-.3453-.0262-.6923.0179-1.0201.1297-.3277.1117-.6294.2888-.8868.5206-.474.4301-.7704 1.0217-.8314 1.6588-.0609.6372.1181 1.2742.502 1.7864l5.778 8.9694v3.7098c0 .2148.0854.4208.2373.5727s.3579.2373.5727.2373h10.7136c.2149 0 .4209-.0854.5728-.2373s.2372-.3579.2372-.5727v-3.6882l2.0574-2.8944c.0981-.1371.1509-.3013.1512-.4698v-9.1476c-.0042-.6904-.2815-1.351-.7712-1.8376-.4897-.4867-1.152-.7598-1.8424-.7598zm.9882 11.4858-2.0574 2.8944c-.098.137-.1509.3013-.1512.4698v3.1482h-9.0882v-3.1482c-.0004-.1552-.0453-.307-.1296-.4374l-5.94-9.18-.0432-.0594c-.1459-.1884-.2152-.4248-.1942-.6622.021-.2373.1309-.4579.3076-.6176.0922-.0824.1996-.1459.3163-.1867s.2402-.0582.3636-.0512c.1234.0071.2442.0384.3555.0922.1113.0537.2109.129.293.2213l1.6038 2.4084c.0948.1467.2345.2589.3982.3197.1637.0609.3427.0672.5103.018s.3149-.1512.4197-.2909c.1049-.1397.1618-.3095.1622-.4842v-12.3552c0-.2628.1044-.5149.2903-.7007.1858-.1858.4378-.2902.7006-.2902s.5149.1044.7007.2902.2902.4379.2902.7007v9.8334c0 .2148.0854.4208.2373.5727s.3579.2373.5727.2373c.2149 0 .4209-.0854.5728-.2373s.2372-.3579.2372-.5727v-3.8718c0-.2628.1044-.5149.2903-.7007.1858-.1858.4378-.2902.7006-.2902s.5149.1044.7007.2902.2902.4379.2902.7007v3.8718c0 .2148.0854.4208.2373.5727s.3579.2373.5727.2373c.2149 0 .4209-.0854.5728-.2373s.2372-.3579.2372-.5727v-2.9808c0-.2628.1044-.5149.2903-.7007.1858-.1858.4378-.2902.7006-.2902s.5149.1044.7007.2902.2902.4379.2902.7007v4.2066c0 .2148.0854.4208.2373.5727s.3579.2373.5727.2373c.2149 0 .4209-.0854.5728-.2373s.2372-.3579.2372-.5727v-.918s0 0 0-.0378v-1.0908c0-.2621.1042-.5135.2895-.6988s.4367-.2894.6987-.2894h.0918c.2621 0 .5135.1041.6988.2894s.2894.4367.2894.6988z" fill="#000"/><path d="m34.7544 33.1884-2.0574 2.8944c-.098.137-.1509.3013-.1512.4698v3.1482h-9.0882v-3.1482c-.0004-.1552-.0453-.307-.1296-.4374l-5.94-9.18-.0432-.0594c-.1459-.1884-.2152-.4248-.1942-.6622.021-.2373.1309-.4579.3076-.6176.0922-.0824.1996-.1459.3163-.1867s.2402-.0582.3636-.0512c.1234.0071.2442.0384.3555.0922.1113.0537.2109.129.293.2213l1.6038 2.4084c.0948.1467.2345.2589.3982.3197.1637.0609.3427.0672.5103.018s.3149-.1512.4197-.2909c.1049-.1397.1618-.3095.1622-.4842v-12.3552c0-.2628.1044-.5149.2903-.7007.1858-.1858.4378-.2902.7006-.2902s.5149.1044.7007.2902.2902.4379.2902.7007v9.8334c0 .2148.0854.4208.2373.5727s.3579.2373.5727.2373c.2149 0 .4209-.0854.5728-.2373s.2372-.3579.2372-.5727v-3.8718c0-.2628.1044-.5149.2903-.7007.1858-.1858.4378-.2902.7006-.2902s.5149.1044.7007.2902.2902.4379.2902.7007v3.8718c0 .2148.0854.4208.2373.5727s.3579.2373.5727.2373c.2149 0 .4209-.0854.5728-.2373s.2372-.3579.2372-.5727v-2.9808c0-.2628.1044-.5149.2903-.7007.1858-.1858.4378-.2902.7006-.2902s.5149.1044.7007.2902.2902.4379.2902.7007v4.2066c0 .2148.0854.4208.2373.5727s.3579.2373.5727.2373c.2149 0 .4209-.0854.5728-.2373s.2372-.3579.2372-.5727v-.918s0 0 0-.0378v-1.0908c0-.2621.1041-.5135.2895-.6988.1853-.1853.4367-.2894.6987-.2894h.0918c.2621 0 .5135.1041.6988.2894s.2894.4367.2894.6988z" fill="#fff"/></svg>