<svg fill="none" height="54" viewBox="0 0 55 54" width="55" xmlns="http://www.w3.org/2000/svg"><path d="m37.8565 36.2232-1.1715-1.4688v-7.992c-.001-.1176-.0281-.2336-.0794-.3399s-.1256-.2004-.2176-.2757l-2.596-12.3498c-.1548-.6693-.5715-1.2519-1.1602-1.6221-.5886-.3702-1.3019-.4982-1.9858-.3564-.684.1419-1.2836.5421-1.6695 1.1144-.3859.5722-.5271 1.2705-.393 1.9441l.506 2.403-3.3-4.0662c-.3274-.4041-.7696-.7036-1.2705-.8608-.5009-.1571-1.0381-.1647-1.5434-.0219-.5054.1428-.9561.4297-1.2953.8243s-.5514.8791-.6098 1.3922c-.0432.3394-.0167.6838.0777 1.0131.0945.3292.255.6365.4723.9039l2.5245 3.1158-4.895 2.4624c-.4736.1947-.8798.5198-1.1695.936-.2897.4161-.4506.9057-.4634 1.4096-.0128.504.1231 1.0008.3914 1.4306.2682.4299.6573.7744 1.1205.992-.3116.0369-.6126.1342-.8855.2862-1.155.6372-1.5675 1.944-1.1 3.3912l1.2705 4.1256c.0576.185.1805.3439.3465.4482l6.127 3.8556 2.343 3.0456c.0768.1002.1766.1813.2912.2367.1147.0553.241.0834.3688.0819.1316.0003.2614-.0292.3795-.0864l9.306-4.752c.106-.0547.1988-.1313.2719-.2245s.1248-.2008.1516-.3155c.0306-.1166.0337-.2386.0089-.3565s-.0768-.2287-.1519-.3239zm-9.713 4.2174-2.013-2.6136c-.0605-.0756-.1329-.1412-.2145-.1944l-5.995-3.78-1.188-3.8556c-.11-.3348-.3025-1.1502.319-1.4904.1372-.0654.2868-.102.4392-.1076.1525-.0056.3044.02.4463.0752.1089.0342.2088.0916.2925.1682.0836.0765.149.1703.1915.2746l1.1 3.1212c.0746.201.2239.3669.418.4644l3.025 1.4418c.15.0711.3183.0962.4831.0721.1648-.024.3184-.0962.4409-.2071l5.4615-4.9842c.087-.0765.1566-.1701.2042-.2748.0477-.1047.0723-.218.0723-.3327s-.0246-.228-.0723-.3327c-.0476-.1047-.1172-.1983-.2042-.2748l-5.5-4.4604c-.1269-.1046-.2828-.1693-.4476-.1857-.1648-.0163-.3308.0164-.4764.0939l-4.323 2.322c-.1239.0454-.2557.0664-.3878.0618s-.262-.0348-.3823-.0887-.2286-.1305-.3187-.2255-.1603-.2065-.2065-.3281-.0676-.251-.0629-.3807.0354-.2573.0903-.3754.1329-.2244.2297-.3128c.0967-.0885.2103-.1574.3342-.2028l.0715-.0324 6.006-3.0294 9.0585 6.7014v7.8678c-.0005.1821.0615.359.176.5022l.737.918zm-7.458-13.4082c.1883-.0335.3726-.086.55-.1566l.088-.0378 3.8995-2.0898 4.312 3.5208-4.3615 3.9798-2.2-1.053-.9735-2.8026c-.1113-.3038-.2856-.5816-.5119-.8158-.2262-.2342-.4996-.4198-.8026-.545zm2.0295-12.3174c.0123-.1327.053-.2614.1193-.3777.0664-.1163.1569-.2176.2657-.2973.1033-.0817.2222-.1423.3497-.1785.1274-.0361.261-.0471.3928-.0321.2641.0311.5051.163.671.3672l6.3635 7.8678-4.323-3.1968c-.1243-.0913-.2723-.1463-.427-.1587s-.3098.0183-.4475.0885l-2.75-3.3696c-.0825-.0987-.1439-.2127-.1808-.3351-.0368-.1224-.0483-.2508-.0337-.3777zm7.4855-.189c-.054-.2571-.0018-.5247.1452-.7439.147-.2193.3767-.3722.6385-.4252s.5344-.0017.7577.1426.3791.3698.4331.6269l1.969 9.369-2.75-3.429z" fill="#000"/><path d="m28.1435 40.4406-2.013-2.6136c-.0605-.0756-.1329-.1412-.2145-.1944l-5.995-3.78-1.188-3.8556c-.11-.3348-.3025-1.1502.319-1.4904.1372-.0654.2868-.102.4392-.1076.1525-.0056.3044.02.4463.0752.1089.0342.2088.0916.2925.1682.0836.0765.149.1703.1915.2746l1.1 3.1212c.0746.201.2239.3669.418.4644l3.025 1.4418c.15.0711.3183.0962.4831.0721.1648-.024.3184-.0962.4409-.2071l5.4615-4.9842c.087-.0765.1566-.1701.2042-.2748.0477-.1047.0723-.218.0723-.3327s-.0246-.228-.0723-.3327c-.0476-.1047-.1172-.1983-.2042-.2748l-5.5-4.4604c-.1269-.1046-.2828-.1693-.4476-.1857-.1648-.0163-.3308.0164-.4764.0939l-4.323 2.322c-.1239.0454-.2557.0664-.3878.0618s-.262-.0348-.3823-.0887-.2286-.1305-.3187-.2255-.1603-.2065-.2065-.3281-.0676-.251-.0629-.3807.0354-.2573.0903-.3754.1329-.2244.2297-.3128c.0967-.0885.2103-.1574.3342-.2028l.0715-.0324 6.006-3.0294 9.0585 6.7014v7.8678c-.0005.1821.0615.359.176.5022l.737.918zm-5.4285-25.7256c.0123-.1327.053-.2614.1193-.3777.0664-.1163.1569-.2176.2657-.2973.1033-.0817.2222-.1423.3497-.1785.1274-.0361.261-.0471.3928-.0321.2641.0311.5051.163.671.3672l6.3635 7.8678-4.323-3.1968c-.1243-.0913-.2723-.1463-.427-.1587s-.3098.0183-.4475.0885l-2.75-3.3696c-.0825-.0987-.1439-.2127-.1808-.3351-.0368-.1224-.0483-.2508-.0337-.3777zm7.4855-.189c-.054-.2571-.0018-.5247.1452-.7439.147-.2193.3767-.3722.6385-.4252s.5344-.0017.7577.1426.3791.3698.4331.6269l1.969 9.369-2.75-3.429z" fill="#fff"/></svg>