<svg fill="none" height="54" viewBox="0 0 54 54" width="54" xmlns="http://www.w3.org/2000/svg"><path d="m38.259 19.98c-.7938-.162-2.2626-.1404-3.132 1.7928l-.54 1.1502 1.053-6.8796c.0377-.3598.0005-.7235-.1092-1.0683-.1096-.3448-.2894-.6631-.528-.9351-.2227-.2532-.4957-.4574-.8015-.5996-.3058-.1423-.6379-.2194-.9751-.2266-.6501-.0081-1.2821.2141-1.7842.6272-.502.4131-.8417.9905-.959 1.63l-.8748 4.0986v-6.4314c0-.6917-.2747-1.3551-.7639-1.8443-.4891-.4891-1.1525-.7639-1.8443-.7639-.6917 0-1.3551.2748-1.8442.7639-.4892.4892-.764 1.1526-.764 1.8443v8.937l-1.4796-4.6224c-.8046-2.5596-2.241-2.7756-3.3048-2.5002-1.755.4536-2.025 2.16-1.7118 3.483l2.5164 9.7686-2.2302-1.5282c-1.2528-.9774-2.5866-1.0368-3.564-.1566-.4813.439-.7785 1.044-.8316 1.6933s.1418 1.2946.5454 1.8059l7.4952 8.9748v3.6666c0 .2148.0854.4209.2373.5728s.3579.2372.5727.2372h10.7136c.2149 0 .4209-.0853.5728-.2372s.2372-.358.2372-.5728v-3.699l2.052-2.8944c.0524-.0741.0925-.1562.1188-.243l3.78-12.7548c.1026-.3174.1364-.653.0991-.9845-.0372-.3314-.1446-.6512-.3151-.9379-.1748-.299-.411-.5575-.6931-.7585-.282-.2011-.6034-.3401-.9431-.4079zm.3024 2.6028-3.7476 12.636-2.1276 3.0132c-.0964.1375-.1474.3018-.1458.4698v3.1482h-9.0936v-3.1482c.0069-.1973-.0606-.39-.189-.54l-7.668-9.18c-.1459-.1883-.2152-.4248-.1942-.6621s.1309-.458.3076-.6177c.135-.1188.54-.4968 1.5228.2592l4.05 2.8188c.136.093.297.1423.4617.1414s.3252-.0519.4601-.1464c.135-.0944.2379-.2278.2951-.3822s.066-.3226.0251-.4822l-3.051-11.8584c-.1134-.4914-.1944-1.3392.54-1.5282.405-.108.8802-.0918 1.3554 1.4148l3.0672 9.6012v.0324c.0104.0262.0231.0515.0378.0756.0105.0245.0232.048.0378.0702l.0378.0594.0594.0648.0432.0486.0702.054.054.0378.081.0432h.0594l.0918.027h.0594.2538.081.0378.0324l.081-.0324.0648-.0378.0648-.0432.0648-.054.0486-.0486.054-.0648.0378-.0648c.0146-.0204.0273-.0421.0378-.0648l.0324-.0756s0-.0486 0-.0756c.003-.0251.003-.0505 0-.0756.003-.0287.003-.0577 0-.0864 0 0 0 0 0-.0324v-14.1588c0-.2621.1042-.5134.2895-.6988.1853-.1853.4367-.2894.6987-.2894.2621 0 .5135.1041.6988.2894.1853.1854.2894.4367.2894.6988v14.1264.0486.108.0702c.0066.0278.0156.0549.027.081.0086.0226.0195.0443.0324.0648l.0378.0756.0432.0486c.0169.0258.0368.0493.0594.0702.0131.0157.0275.0302.0432.0432l.0756.0594.0648.0378.0702.0378.2376.0702c.0521.0056.1046.0056.1566 0h.135l.135-.0378.108-.0594.0756-.0594c.0184-.0095.0349-.0223.0486-.0378.0191-.0173.0355-.0373.0486-.0594.0208-.0171.039-.0371.054-.0594.0146-.0204.0273-.0421.0378-.0648 0 0 0-.0486.0378-.0756.0151-.0388.0277-.0785.0378-.1188.0024-.0107.0024-.0217 0-.0324l2.4732-11.5992c.0311-.2671.1574-.514.3558-.6955.1983-.1815.4555-.2854.7242-.2927h.0432c.1147-.0002.2281.0243.3324.0719.1044.0475.1973.1169.2724.2035.1904.1775.3063.4207.324.6804l-1.89 12.7332v.0432.0972.0702c-.0026.0269-.0026.0541 0 .081-.0023.0251-.0023.0505 0 .0756.0057.0245.0148.0482.027.0702l.0324.0702c.0102.0229.0229.0447.0378.0648.0149.0226.0312.0442.0486.0648l.054.0594.0594.0486.0594.0486.0756.0432h.0432.0756.081.027.189c.0885-.0026.1759-.019.2592-.0486.0812-.0292.1562-.0732.2214-.1296h.027c.0621-.0562.1149-.1218.1566-.1944v-.0378c.0018-.0162.0018-.0325 0-.0486l2.9214-6.5772c.4158-.9126.8856-.9558 1.3392-.864.1114.0256.2165.0732.3092.14.0928.0667.1712.1513.2308.2488.0811.0945.1378.2074.1651.3288s.0244.2477-.0085.3678z" fill="#000"/><path d="m38.5614 22.5828-3.7476 12.636-2.1276 3.0132c-.0964.1375-.1474.3018-.1458.4698v3.1482h-9.0936v-3.1482c.0069-.1973-.0606-.39-.189-.54l-7.668-9.18c-.1459-.1883-.2152-.4248-.1942-.6621s.1309-.458.3076-.6177c.135-.1188.54-.4968 1.5228.2592l4.05 2.8188c.136.093.297.1423.4617.1414s.3252-.0519.4601-.1464c.135-.0944.2379-.2278.2951-.3822s.066-.3226.0251-.4822l-3.051-11.8584c-.1134-.4914-.1944-1.3392.54-1.5282.405-.108.8802-.0918 1.3554 1.4148l3.0672 9.6012v.0324c.0104.0262.0231.0515.0378.0756.0105.0245.0232.048.0378.0702l.0378.0594.0594.0648.0432.0486.0702.054.054.0378.081.0432h.0594l.0918.027h.0594.2538.081.0378.0324l.081-.0324.0648-.0378.0648-.0432.0648-.054.0486-.0486.054-.0648.0378-.0648c.0146-.0204.0273-.0421.0378-.0648l.0324-.0756s0-.0486 0-.0756c.003-.0251.003-.0505 0-.0756.003-.0287.003-.0577 0-.0864 0 0 0 0 0-.0324v-14.1588c0-.2621.1042-.5134.2895-.6988.1853-.1853.4367-.2894.6987-.2894.2621 0 .5135.1041.6988.2894.1853.1854.2894.4367.2894.6988v14.1264.0486.108.0702c.0066.0278.0156.0549.027.081.0086.0226.0195.0443.0324.0648l.0378.0756.0432.0486c.0169.0258.0368.0493.0594.0702.0131.0157.0275.0302.0432.0432l.0756.0594.0648.0378.0702.0378.2376.0702c.0521.0056.1046.0056.1566 0h.135l.135-.0378.108-.0594.0756-.0594c.0184-.0095.0349-.0223.0486-.0378.0191-.0173.0355-.0373.0486-.0594.0208-.0171.039-.0371.054-.0594.0146-.0204.0273-.0421.0378-.0648 0 0 0-.0486.0378-.0756.0151-.0388.0277-.0785.0378-.1188.0024-.0107.0024-.0217 0-.0324l2.4732-11.5992c.0311-.2671.1574-.514.3558-.6955.1983-.1815.4555-.2854.7242-.2927h.0432c.1147-.0002.2281.0243.3324.0719.1044.0475.1973.1169.2724.2035.1904.1775.3063.4207.324.6804l-1.89 12.7332v.0432.0972.0702c-.0026.0269-.0026.0541 0 .081-.0023.0251-.0023.0505 0 .0756.0057.0245.0148.0482.027.0702l.0324.0702c.0102.0229.0229.0447.0378.0648.0149.0226.0312.0442.0486.0648l.054.0594.0594.0486.0594.0486.0756.0432h.0432.0756.081.027.189c.0885-.0026.1759-.019.2592-.0486.0812-.0292.1562-.0732.2214-.1296h.027c.0621-.0562.1149-.1218.1566-.1944v-.0378c.0018-.0162.0018-.0324 0-.0486l2.9214-6.5772c.4158-.9126.8856-.9558 1.3392-.864.1114.0256.2165.0732.3092.14.0928.0667.1712.1513.2308.2488.0811.0945.1378.2074.1651.3288s.0244.2477-.0085.3678z" fill="#fff"/></svg>