<svg fill="none" height="54" viewBox="0 0 55 54" width="55" xmlns="http://www.w3.org/2000/svg"><path d="m44.7682 39.7756-1.6112-2.0201v-10.9919c-.0014-.1618-.0386-.3214-.1092-.4676-.0705-.1462-.1727-.2756-.2993-.3791l-3.5704-16.98546c-.2129-.9205-.786-1.72184-1.5956-2.23097s-1.7906-.68517-2.7313-.49013c-.9406.19505-1.7654.74555-2.2962 1.5326-.5307.78705-.7249 1.74749-.5405 2.67386l.6959 3.305-4.5387-5.59247c-.4502-.55573-1.0583-.96775-1.7473-1.18387-.6889-.21613-1.4277-.22664-2.1227-.03019-.6951.19645-1.3151.59101-1.7815 1.1337-.4665.5427-.7584 1.20911-.8388 1.91482-.0593.46681-.023.94051.107 1.39331.1299.4528.3507.8755.6495 1.2433l3.4721 4.2853-6.7324 3.3867c-.6514.2678-1.21.7149-1.6084 1.2873-.3985.5724-.6199 1.2457-.6375 1.9388-.0175.6931.1694 1.3764.5383 1.9676.369.5912.9042 1.065 1.5411 1.3643-.4285.0508-.8424 1.5599-1.2178 1.769-1.5886.8764-2.1559 2.6737-1.5129 4.6641l1.7474 5.6742c.0793.2545.2482.473.4765.6165l8.4269 5.3028 3.2224 2.8134c.1057.1379.2429.2494.4006.3255.1577.0762.3315.1148.5072.1127.181.0005.3596-.0402.5219-.1188l12.7991-6.5357c.146-.0752.2736-.1806.3741-.3088s.1716-.2762.2084-.4339c.0422-.1604.0464-.3281.0123-.4903s-.1056-.3146-.209-.4455zm-13.3589 5.8004-2.7686-2.2192c-.0832-.104-.1828-.1943-.295-.2674l-8.2453-5.1989-1.6339-5.3028c-.1513-.4605-.4161-1.582.4387-2.0499.1888-.0899.3945-.1403.6042-.148s.4187.0276.6137.1035c.1499.047.2872.126.4023.2313s.205.2343.2634.3777l1.5129 4.2928c.1027.2765.308.5046.5749.6387l4.1605 1.983c.2063.0977.4379.1323.6645.0992s.4379-.1324.6063-.2849l7.5115-8.2304c.1197-.1052.2154-.234.281-.378.0655-.144.0994-.2999.0994-.4576s-.0339-.3136-.0994-.4576c-.0656-.1439-.1613-.2727-.281-.3779l-7.5645-6.1347c-.1744-.1438-.3889-.2328-.6156-.2553-.2266-.0226-.4549.0224-.6552.1291l-5.9457 3.1936c-.1703.0624-.3516.0912-.5333.0849s-.3604-.0478-.5258-.1219-.3144-.1795-.4383-.3102c-.1239-.1306-.2204-.284-.284-.4512-.0636-.1673-.093-.3452-.0865-.5237.0064-.1784.0486-.3538.1241-.5162s.1829-.3086.316-.4303c.133-.1217.2892-.2165.4596-.2789l.0983-.0445 8.2604-4.1666 12.4588 9.2169v10.8211c-.0007.2504.0846.4937.242.6907l1.0137 1.2625zm-10.2574-17.0657c.259-.0461.5125-1.4936.7564-1.5908l.1211-.052 5.3632-2.8742 5.9306 4.8424-5.9987 6.849-3.0258-1.4482-1.3389-3.8546c-.153-.4178-.3928-.7999-.7039-1.1221-.3112-.3221-.6872-.5774-1.104-.7495zm2.7913-18.3163c.017-.1825.073-.35951.1642-.51945s.2157-.29926.3653-.4089c.1422-.11232.3057-.19576.481-.24549s.3589-.06474.5402-.04416c.3633.04272.6948.22415.9229.50504l8.7521 10.82106-5.9457-4.3967c-.1709-.1256-.3745-.2012-.5872-.2183-.2128-.0171-.4261.0251-.6156.1217l-3.7822-4.6344c-.1134-.1358-.1979-.2925-.2485-.4609-.0507-.1684-.0665-.345-.0465-.5195zm10.2953-.25992c-.0743-.35357-.0024-.72161.1998-1.02316.2021-.30154.518-.5119.8781-.58478s.735-.00232 1.0421.19616.5214.50861.5956.86218l2.7081 12.88582-3.7822-4.7162z" fill="#000"/><g fill="#fff"><path d="m31.4093 45.576-2.7686-2.2192c-.0832-.104-.1828-.1943-.295-.2674l-8.2453-5.1989-1.6339-5.3028c-.1513-.4605-.4161-1.582.4387-2.0499.1888-.0899.3945-.1403.6042-.148s.4187.0276.6137.1035c.1499.047.2872.126.4023.2313s.205.2343.2634.3777l1.5129 4.2928c.1027.2765.308.5046.5749.6387l4.1605 1.983c.2063.0977.4379.1323.6645.0992s.4379-.1324.6063-.2849l7.5115-8.2304c.1197-.1052.2154-.234.281-.378.0655-.144.0994-.2999.0994-.4576s-.0339-.3136-.0994-.4576c-.0656-.1439-.1613-.2727-.281-.3779l-7.5645-6.1347c-.1744-.1438-.3889-.2328-.6156-.2553-.2266-.0226-.4549.0224-.6552.1291l-5.9457 3.1936c-.1703.0624-.3516.0912-.5333.0849s-.3604-.0478-.5258-.1219-.3144-.1795-.4383-.3102c-.1239-.1306-.2204-.284-.284-.4512-.0636-.1673-.093-.3452-.0865-.5237.0064-.1784.0486-.3538.1241-.5162s.1829-.3086.316-.4303c.133-.1217.2892-.2165.4596-.2789l.0983-.0445 8.2604-4.1666 12.4588 9.2169v10.8211c-.0007.2504.0846.4937.242.6907l1.0137 1.2625zm-7.4661-35.382c.017-.1825.073-.35951.1642-.51945s.2157-.29926.3653-.4089c.1422-.11232.3057-.19576.481-.24549s.3589-.06474.5402-.04416c.3633.04272.6948.22415.9229.50504l8.7521 10.82106-5.9457-4.3967c-.1709-.1256-.3745-.2012-.5872-.2183-.2128-.0171-.4261.0251-.6156.1217l-3.7822-4.6344c-.1134-.1358-.1979-.2925-.2485-.4609-.0507-.1684-.0665-.345-.0465-.5195zm10.2953-.25992c-.0743-.35357-.0024-.72161.1998-1.02316.2021-.30154.518-.5119.8781-.58478s.735-.00232 1.0421.19616.5214.50861.5956.86218l2.7081 12.88582-3.7822-4.7162z"/><circle cx="19.5" cy="27.5" r="2.5" stroke="#000" stroke-width="1.5"/></g></svg>