<svg fill="none" height="55" viewBox="0 0 54 55" width="54" xmlns="http://www.w3.org/2000/svg"><path d="m40.7808 12.881c-.1064-.0015-.212.0184-.3108.0586-.0988.0401-.1889.0996-.2651.1752-.0763.0756-.1371.1658-.1791.2653-.0421.0996-.0644.2066-.0658.3149v1.727c-3.2893-2.7646-7.421-4.2767-11.6856-4.2767-4.2647 0-8.3963 1.5121-11.6856 4.2767v-1.727c-.0028-.2169-.0894-.4239-.241-.5763-.1516-.1523-.356-.2377-.569-.2377-.1068.0007-.2125.0229-.3108.0654-.0984.0425-.1875.1044-.2623.1821s-.1338.1697-.1735.2707-.0594.209-.058.3178l.0486 3.542c.0028.215.0879.4204.2372.5724.1492.1521.3509.2387.562.2416l3.4776.055c.2148 0 .4208-.0869.5727-.2416.152-.1548.2373-.3646.2373-.5834s-.0853-.4286-.2373-.5834c-.1519-.1547-.3579-.2416-.5727-.2416h-1.3878c2.9495-2.3778 6.6009-3.6716 10.3626-3.6716 3.7616 0 7.4131 1.2938 10.3626 3.6716h-1.3824c-.2148 0-.4209.0869-.5728.2416-.1519.1548-.2372.3646-.2372.5834s.0853.4286.2372.5834c.1519.1547.358.2416.5728.2416l3.4776-.055c.2111-.0029.4127-.0895.562-.2416.1493-.152.2344-.3574.2372-.5724l.054-3.542c.0014-.1088-.0183-.2168-.058-.3178-.0398-.101-.0987-.193-.1735-.2707s-.1639-.1396-.2623-.1821c-.0983-.0425-.204-.0647-.3108-.0654z" fill="#000"/><path d="m32.7186 16.368c-.1735-.4248-.4529-.796-.8106-1.0769s-.7813-.4617-1.2288-.5245c-.4474-.0628-.9032-.0054-1.3222.1665-.419.1718-.7866.4523-1.0664.8134-.2958-.33-.669-.5781-1.0847-.7211-.4156-.143-.8601-.1762-1.2918-.0965-.4317.0796-.8364.2696-1.1763.5521-.34.2825-.6039.6483-.7672 1.063l-3.6126 9.0805-.0378-.2035c.0015-.0311.0015-.0624 0-.0935-.1055-.3348-.2764-.6443-.5023-.9101-.226-.2657-.5024-.4822-.8127-.6363-.3102-.1542-.6479-.2428-.9926-.2606s-.6895.0356-1.0134.157c-.6054.2207-1.1076.6645-1.4075 1.2439-.2999.5793-.3757 1.2521-.2125 1.8856l1.9872 10.67-1.3932 3.5145c-.0438.1019-.067.2118-.0681.323-.001.1113.02.2216.0619.3244.0418.1027.1037.1958.1818.2736s.1708.1387.2726.179l9.9306 4.037c.1.0447.2079.0682.3172.0693.1092.0011.2175-.0203.3184-.0629.1009-.0427.1923-.1057.2686-.1852.0764-.0796.1362-.174.1758-.2777l1.3878-3.498 2.9916-1.947c.141-.0922.2504-.2268.3132-.385l3.4236-8.6295c.1285-.3236.1931-.6697.1902-1.0188-.0029-.349-.0734-.694-.2073-1.0152-.1339-.3213-.3286-.6126-.5731-.8572-.2444-.2446-.5338-.4377-.8516-.5683l-.0864-.0385c-.3309-.1445-.6876-.2176-1.0476-.2145.1195-.397.1456-.817.0762-1.2262-.0695-.4092-.2325-.7959-.4759-1.129-.2435-.3331-.5605-.6031-.9254-.7883-.3649-.1851-.7674-.2802-1.1751-.2775l2.2626-5.7035c.2544-.6452.2485-1.3666-.0162-2.0075zm-1.485 1.4135-4.2768 10.7855c-.0684.1822-.0712.3832-.0078.5674.0633.1841.1886.3394.3537.4383s.3593.135.548.1019c.1888-.033.36-.1332.4831-.2826.0491-.0616.0891-.1301.1188-.2035l1.1178-2.7885c.0981-.248.2889-.4461.5304-.5508.2416-.1047.514-.1074.7575-.0074.2435.0999.438.2942.5408.5402s.1054.5235.0073.7715l-1.5768 3.971c-.0574.1025-.0925.2163-.103.3338-.0105.1176.0039.236.0422.3473.0383.1114.0995.2131.1797.2983.0801.0852.1773.1519.2849.1955.1076.0437.2232.0634.3389.0577s.2289-.0366.3318-.0906c.103-.054.1934-.1299.2652-.2225.0717-.0927.1231-.1999.1507-.3145l.3456-.869v-.0275l.405-1.023c.0993-.2461.2903-.4421.5312-.5451.2408-.1031.5119-.1049.754-.0049l.0864.0385c.2416.1012.434.2957.5352.541s.1029.5214.0048.768l-3.2886 8.371-2.9916 1.9525c-.141.0922-.2504.2268-.3132.385l-1.1826 2.9755-8.424-3.4705 1.1772-2.9755c.0565-.141.0734-.2953.0486-.4455l-2.0358-10.945s0-.0495 0-.0715c-.065-.2334-.041-.4833.0671-.6995.1082-.2162.2925-.3828.5161-.4665.2314-.0879.4875-.0795.7129.0234.2253.103.4018.2921.4913.5266l.54 2.915c.0335.1741.1213.3326.2503.4519.1289.1194.2922.1931.4656.2104s.3477-.0228.4969-.1144c.1493-.0915.2655-.2297.3316-.3939l4.6386-11.6875c.0492-.1225.1216-.2339.2131-.3279s.2003-.1687.3202-.2198c.1199-.051.2485-.0775.3784-.0779.13-.0004.2587.0253.3789.0756.2416.1012.434.2957.5352.541s.1029.5214.0048.768l-.648 1.65-3.051 7.6505c-.0695.2004-.0603.4205.0256.6142.086.1937.242.3461.4355.4256.1936.0794.4098.0797.6036.0007.1938-.0789.3501-.231.4365-.4245l3.6828-9.2895.5994-1.485c.0981-.248.2889-.4461.5304-.5508.2416-.1047.514-.1074.7575-.0074.2435.0999.438.2942.5408.5402s.1054.5235.0073.7715z" fill="#000"/><path d="m31.2336 17.7815-4.2768 10.7855c-.0684.1822-.0712.3832-.0078.5674.0633.1841.1886.3394.3537.4383s.3593.135.548.1019c.1888-.033.36-.1332.4831-.2826.0491-.0616.0891-.1301.1188-.2035l1.1178-2.7885c.0981-.248.2889-.4461.5304-.5508.2416-.1047.514-.1074.7575-.0074.2435.0999.438.2942.5408.5402s.1054.5235.0073.7715l-1.5768 3.971c-.0574.1025-.0925.2163-.103.3338-.0105.1176.0039.236.0422.3473.0383.1114.0995.2131.1797.2983.0801.0852.1773.1519.2849.1955.1076.0437.2232.0634.3389.0577s.2289-.0366.3318-.0906c.103-.054.1934-.1299.2652-.2225.0717-.0927.1231-.1999.1507-.3145l.3456-.869v-.0275l.405-1.023c.0993-.2461.2903-.4421.5312-.5451.2408-.1031.5119-.1049.754-.0049l.0864.0385c.2416.1012.434.2957.5352.541s.1029.5214.0048.768l-3.2886 8.371-2.9916 1.9525c-.141.0922-.2504.2268-.3132.385l-1.1826 2.9755-8.424-3.4705 1.1772-2.9755c.0565-.141.0734-.2953.0486-.4455l-2.0358-10.945s0-.0495 0-.0715c-.065-.2334-.041-.4833.0671-.6995.1082-.2162.2925-.3828.5161-.4665.2314-.0879.4875-.0795.7129.0234.2253.103.4018.2921.4913.5266l.54 2.915c.0335.1741.1213.3326.2503.4519.1289.1194.2922.1931.4656.2104s.3477-.0228.4969-.1144c.1493-.0915.2655-.2297.3316-.3939l4.6386-11.6875c.0492-.1225.1216-.2339.2131-.3279s.2003-.1687.3202-.2198c.1199-.051.2485-.0775.3784-.0779.13-.0004.2587.0253.3789.0756.2416.1012.434.2957.5352.541s.1029.5214.0048.768l-.648 1.65-3.051 7.6505c-.0695.2004-.0603.4205.0256.6142.086.1937.242.3461.4355.4256.1936.0794.4098.0797.6036.0007.1938-.0789.3501-.231.4365-.4245l3.6828-9.2895.5994-1.485c.0981-.248.2889-.4461.5304-.5508.2416-.1047.514-.1074.7575-.0074.2435.0999.438.2942.5408.5402s.1054.5235.0073.7715z" fill="#fff"/></svg>