<svg fill="none" height="55" viewBox="0 0 55 55" width="55" xmlns="http://www.w3.org/2000/svg"><path d="m22.066 18.15c-.0663-.087-.1492-.1599-.244-.2146-.0947-.0546-.1994-.0899-.3079-.1037s-.2187-.0059-.3241.0232c-.1054.0292-.204.079-.29.1466l-.99.7975c.066-.2017.1394-.3997.22-.594.5785-1.4067 1.5293-2.6292 2.7502-3.5362 1.221-.907 2.666-1.4643 4.1798-1.6118l-1.21 1.0285c-.0823.0722-.1496.16-.198.2582-.0485.0982-.0771.2051-.0842.3144-.0072.1093.0073.2189.0425.3226s.0905.1995.1627.2818c.0723.0823.16.1496.2582.1981.0983.0484.2051.077.3144.0842.1093.0071.2189-.0073.3226-.0425.1037-.0353.1995-.0906.2818-.1628l2.695-2.3045c.1539-.1462.2455-.3462.2558-.5582.0102-.2121-.0617-.4199-.2008-.5803l-2.2-2.75c-.1371-.17066-.3364-.27987-.554-.30359-.2177-.02373-.4358.03998-.6065.17709-.1706.13712-.2798.33642-.3036.55406-.0237.21763.04.43574.1771.60644l.979 1.2155c-2.1158.1524-4.1295.9695-5.7533 2.3346-1.6238 1.365-2.7748 3.2082-3.2887 5.2664l-1.1605-1.353c-.1472-.1392-.3405-.2194-.5431-.2253-.2025-.0058-.4002.0631-.5552.1936-.155.1306-.2565.3136-.2852.5142s.0174.4047.1295.5735l2.3045 2.695c.1397.1627.3373.2646.5509.2841.2135.0195.4263-.0449.5931-.1796l2.75-2.2c.1684-.136.2766-.3327.3013-.5477.0247-.2151-.0361-.4312-.1693-.6018z" fill="#000"/><path d="m39.1545 27.445-.1045-.033c-.3283-.1327-.6799-.1982-1.034-.1925.1977-.6297.1514-1.3107-.1298-1.9078-.2813-.5971-.7768-1.0666-1.3882-1.3152-.4553-.1824-.9525-.2339-1.4355-.1485-.0612-.4537-.2416-.8831-.5227-1.2444-.2812-.3614-.653-.6417-1.0778-.8126-.3198-.129-.6617-.1944-1.0065-.1925l1.353-3.3495c.2621-.6494.2572-1.3761-.0137-2.0219s-.7858-1.1585-1.4328-1.4266c-.3236-.1309-.6697-.1967-1.0188-.1937-.349.003-.694.0747-1.0152.2111-.3213.1364-.6126.3347-.8572.5837s-.4377.5437-.5683.8674l-3.729 9.031-.0385-.2035c.0019-.0311.0019-.0624 0-.0935-.1074-.3347-.2815-.6443-.5116-.9101-.2302-.2657-.5117-.4822-.8277-.6363-.316-.1542-.6599-.2428-1.011-.2606-.3512-.0178-.7023.0356-1.0322.157-.6166.2207-1.1281.6645-1.4336 1.2439-.3055.5793-.3827 1.2521-.2164 1.8856l2.024 10.67-1.419 3.5145c-.0447.1019-.0682.2118-.0693.323-.0011.1113.0203.2216.0629.3244.0427.1027.1057.1958.1852.2736.0796.0778.174.1387.2777.179l10.1145 4.0865c.0978.0398.2024.0604.308.0605.1644-.0002.3251-.0495.4613-.1416s.2418-.2228.3032-.3754l1.4135-3.498 3.047-1.947c.1436-.0922.2551-.2268.319-.385l3.487-8.6295c.1309-.3236.1967-.6697.1937-1.0187-.003-.3491-.0747-.6941-.2111-1.0153-.1364-.3213-.3347-.6126-.5837-.8572-.249-.2445-.5437-.4377-.8674-.5683zm-.066 2.838-3.388 8.3875-3.047 1.947c-.1436.0923-.2551.2268-.319.385l-1.199 2.9975-8.5855-3.487 1.199-2.9755c.0589-.1465.0742-.307.044-.462l-2.0735-10.945s0-.0495 0-.0715c-.0662-.2334-.0418-.4833.0684-.6995.1101-.2162.2978-.3828.5256-.4665.2357-.0879.4965-.0795.7261.0234.2295.103.4093.2921.5004.5266l.55 2.915c.0341.1741.1235.3326.2549.4519.1314.1194.2977.1931.4743.2104s.3541-.0228.5061-.1144c.152-.0915.2704-.2297.3377-.3939l4.7245-11.6875c.1012-.2434.2939-.4373.5366-.5402.2427-.1028.5161-.1063.7614-.0098.2461.1012.4421.2957.5451.541.1031.2453.1049.5214.0049.768l-3.7455 9.3115c-.06.1981-.0433.4115.0468.5979.09.1864.2468.3321.4393.4083.1924.0761.4065.0772.5997.0028.1932-.0743.3514-.2185.4432-.404l1.4795-3.6575c.1024-.2425.2952-.4355.5375-.5382s.5151-.1069.7605-.0118c.2461.1012.4421.2957.5451.541.1031.2453.1049.5214.0049.768l-1.4465 3.6685c-.0422.1124-.0593.2326-.0503.3523.0091.1197.0442.236.1028.3408.0587.1047.1395.1954.2368.2657s.2088.1185.3267.1412h.033.121c.0689-.0024.1373-.0135.2035-.033h.055c.0598-.0209.117-.0486.1705-.0825.0572-.0409.109-.089.154-.143l.033-.044c.0472-.0585.0861-.1233.1155-.1925l1.1385-2.816c.1012-.2434.2939-.4373.5366-.5402.2427-.1028.5161-.1064.7614-.0098.2461.1012.4421.2957.5451.541.1031.2453.1049.5214.0049.768l-1.5675 3.982c-.0461.1014-.0712.2111-.0738.3224-.0025.1114.0175.2221.0588.3255.0414.1034.1033.1974.1819.2762.0787.0789.1725.141.2758.1826s.214.0619.3254.0596c.1113-.0023.221-.0271.3225-.073.1015-.0458.1927-.1118.2681-.1938.0753-.082.1332-.1785.1703-.2835l.352-.869v-.033l.4125-1.023c.1012-.2461.2957-.4421.541-.5451.2453-.1031.5214-.1049.768-.0049l.088.0385c.2461.1012.4421.2957.5452.541.103.2453.1048.5214.0048.768z" fill="#000"/><path d="m39.0885 30.283-3.388 8.3875-3.047 1.947c-.1436.0923-.2551.2268-.319.385l-1.199 2.9975-8.5855-3.487 1.199-2.9755c.0589-.1465.0742-.307.044-.462l-2.0735-10.945s0-.0495 0-.0715c-.0662-.2334-.0418-.4833.0684-.6995.1101-.2162.2978-.3828.5256-.4665.2357-.0879.4965-.0795.7261.0234.2295.103.4093.2921.5004.5266l.55 2.915c.0341.1741.1235.3326.2549.4519.1314.1194.2977.1931.4743.2104s.3541-.0228.5061-.1144c.152-.0915.2704-.2297.3377-.3939l4.7245-11.6875c.1012-.2434.2939-.4373.5366-.5402.2427-.1028.5161-.1063.7614-.0098.2461.1012.4421.2957.5451.541.1031.2453.1049.5214.0049.768l-3.7455 9.3115c-.06.1981-.0433.4115.0468.5979.09.1864.2468.3321.4393.4083.1924.0761.4065.0772.5997.0028.1932-.0743.3514-.2185.4432-.404l1.4795-3.6575c.1024-.2425.2952-.4355.5375-.5382s.5151-.1069.7605-.0118c.2461.1012.4421.2957.5451.541.1031.2453.1049.5214.0049.768l-1.4465 3.6685c-.0422.1124-.0593.2326-.0503.3523.0091.1197.0442.236.1028.3408.0587.1047.1395.1954.2368.2657s.2088.1185.3267.1412h.033.121c.0689-.0024.1373-.0135.2035-.033h.055c.0598-.0209.117-.0486.1705-.0825.0572-.0409.109-.089.154-.143l.033-.044c.0472-.0585.0861-.1233.1155-.1925l1.1385-2.816c.1012-.2434.2939-.4373.5366-.5402.2427-.1028.5161-.1064.7614-.0098.2461.1012.4421.2957.5451.541.1031.2453.1049.5214.0049.768l-1.5675 3.982c-.0461.1014-.0712.2111-.0738.3224-.0025.1114.0175.2221.0588.3255.0414.1034.1033.1974.1819.2762.0787.0789.1725.141.2758.1826s.214.0619.3254.0596c.1113-.0023.221-.0271.3225-.073.1015-.0458.1927-.1118.2681-.1938.0753-.082.1332-.1785.1703-.2835l.352-.869v-.033l.4125-1.023c.1012-.2461.2957-.4421.541-.5451.2453-.1031.5214-.1049.768-.0049l.088.0385c.2461.1012.4421.2957.5452.541.103.2453.1048.5214.0048.768z" fill="#fff"/></svg>