<svg width="75" height="75" viewBox="0 0 75 75" fill="none" xmlns="http://www.w3.org/2000/svg">
<path fill-rule="evenodd" clip-rule="evenodd" d="M22.1997 58.5415L23.0075 50.9532C23.6751 45.2209 28.3215 40.8793 33.9593 40.8793H41.5931C47.069 40.8793 51.8775 45.2209 52.5449 51.1227L53.6148 58.5722C59.8377 53.8363 63.8548 46.351 63.8548 37.9274C63.8548 23.6081 52.2467 12 37.9274 12C23.6081 12 12 23.6081 12 37.9274C12 46.3328 15.9997 53.804 22.1997 58.5415ZM66.8548 37.9274C66.8548 53.9036 53.9035 66.8548 37.9274 66.8548C21.9512 66.8548 9 53.9036 9 37.9274C9 21.9513 21.9512 9.00004 37.9274 9.00004C53.9035 9.00004 66.8548 21.9513 66.8548 37.9274ZM47.9634 27.8915C47.9634 33.7639 43.2041 38.5179 37.3336 38.5179C31.4698 38.5179 26.7106 33.7639 26.7106 27.8915C26.7106 22.0259 31.4698 17.2652 37.3336 17.2652C43.2041 17.2652 47.9634 22.0259 47.9634 27.8915Z" fill="white"/>
</svg>
