<svg fill="none" height="75" viewBox="0 0 75 75" width="75" xmlns="http://www.w3.org/2000/svg"><path clip-rule="evenodd" d="m22.1997 58.5415.8078-7.5883c.6676-5.7323 5.314-10.0739 10.9518-10.0739h7.6338c5.4759 0 10.2844 4.3416 10.9518 10.2434l1.0699 7.4495c6.2229-4.7359 10.24-12.2212 10.24-20.6448 0-14.3193-11.6081-25.9274-25.9274-25.9274s-25.9274 11.6081-25.9274 25.9274c0 8.4054 3.9997 15.8766 10.1997 20.6141zm44.6551-20.6141c0 15.9762-12.9513 28.9274-28.9274 28.9274-15.9762 0-28.9274-12.9512-28.9274-28.9274 0-15.9761 12.9512-28.92736 28.9274-28.92736 15.9761 0 28.9274 12.95126 28.9274 28.92736zm-18.8914-10.0359c0 5.8724-4.7593 10.6264-10.6298 10.6264-5.8638 0-10.623-4.754-10.623-10.6264 0-5.8656 4.7592-10.6263 10.623-10.6263 5.8705 0 10.6298 4.7607 10.6298 10.6263z" fill="#fff" fill-rule="evenodd"/></svg>