<svg fill="none" height="75" viewBox="0 0 75 75" width="75" xmlns="http://www.w3.org/2000/svg"><g clip-rule="evenodd" fill="#fff" fill-rule="evenodd"><path d="m61.5759 14.2227c-9.6303-9.63025-25.4157-9.63025-35.046 0-8.2939 8.2939-9.6302 21.1342-3.7458 30.7662l-14.1785 13.9116c-2.1408 2.4075-2.1408 6.1533 0 8.2939 2.4075 2.4075 6.1533 2.4075 8.5609 0l13.9116-13.9116c9.6302 5.8867 22.2055 4.5483 30.4976-3.7458 9.8991-9.6302 9.8991-25.4155 0-35.3145zm-5.0842 5.3508c6.689 6.9557 6.689 17.9241 0 24.613-6.9558 6.9557-17.9242 6.9557-24.88 0-6.6889-6.6889-6.6889-17.6573 0-24.613 6.9558-6.6889 17.9242-6.6889 24.88 0z"/><path d="m54.9249 31.0992c0 2.7077 4.3353 2.4377 4.0628-.2701-.2701-3.7928-1.8952-7.0431-4.3353-9.4809-2.4376-2.7077-5.9603-4.0628-9.4806-4.3353-2.7077-.2701-2.9802 3.7928-.27 4.0628 2.4376.2701 4.8753 1.3551 6.7727 3.2503 1.8951 1.8952 2.9801 4.0629 3.2502 6.7729z"/></g></svg>