<svg fill="none" height="75" viewBox="0 0 75 75" width="75" xmlns="http://www.w3.org/2000/svg"><path d="m20.3115 22.6552c-8.1885 0-14.84476 6.6563-14.84476 14.8448s6.65626 14.8447 14.84476 14.8447c4.626 0 8.751-2.124 11.4697-5.4375l14.9385 8.7188c-.4072 1.1865-.624 2.4375-.624 3.75 0 6.4687 5.25 11.7187 11.7188 11.7187 6.4687 0 11.7187-5.25 11.7187-11.7187 0-6.4688-5.25-11.7188-11.7187-11.7188-3.4688 0-6.5772 1.5147-8.7188 3.9229l-14.9535-8.7187c.6416-1.6553 1.0166-3.4688 1.0166-5.3584s-.375-3.6885-1.0166-5.3584l14.9535-8.7187c2.1416 2.4052 5.25 3.9228 8.7188 3.9228 6.4687 0 11.7187-5.25 11.7187-11.7187-.0029-6.47461-5.2529-11.72476-11.7217-11.72476-6.4689 0-11.7188 5.25-11.7188 11.71876 0 1.3125.2344 2.5781.624 3.75l-14.9385 8.7187c-2.7158-3.3105-6.8408-5.4375-11.4667-5.4375zm0 25.002c-5.5928 0-10.1573-4.5615-10.1573-10.1572 0-5.5928 4.5615-10.1573 10.1573-10.1573 5.5927 0 10.1572 4.5615 10.1572 10.1573 0 5.5927-4.5615 10.1572-10.1572 10.1572zm37.5 4.6875c3.876 0 7.0312 3.1553 7.0312 7.0313s-3.1552 7.0312-7.0312 7.0312-7.0313-3.1552-7.0313-7.0312 3.1582-7.0313 7.0313-7.0313zm0-43.75196c3.876 0 7.0312 3.15526 7.0312 7.03126s-3.1552 7.0312-7.0312 7.0312-7.0313-3.1552-7.0313-7.0312c0-3.8731 3.1582-7.03126 7.0313-7.03126z" fill="#fff"/></svg>