<svg fill="none" height="55" viewBox="0 0 55 55" width="55" xmlns="http://www.w3.org/2000/svg"><path d="m17.996 19.0135c.0745.0817.1646.1477.2651.1939.1004.0462.2092.0717.3197.0751.1105.0033.2206-.0156.3237-.0556s.1971-.1004.2764-.1775.1423-.1693.1852-.2712.0649-.2114.0647-.322-.0227-.22-.066-.3217c-.0434-.1018-.1067-.1937-.1863-.2705l-1.1-1.144h6.05c.2188 0 .4286-.0869.5833-.2416.1548-.1548.2417-.3646.2417-.5834s-.0869-.4287-.2417-.5834c-.1547-.1547-.3645-.2416-.5833-.2416h-6.05l1.1-1.144c.0796-.0768.1429-.1687.1863-.2705.0433-.1017.0658-.2111.066-.3217s-.0218-.2201-.0647-.322-.1059-.1942-.1852-.2712c-.0793-.0771-.1733-.1375-.2764-.1775s-.2132-.0589-.3237-.0556c-.1105.0034-.2193.0289-.3197.0751-.1005.0462-.1906.1122-.2651.1939l-2.4695 2.541c-.1495.154-.2332.3601-.2332.5747 0 .2147.0837.4208.2332.5748z" fill="#000"/><path d="m38.401 29.502c-.1349-.3213-.3322-.6127-.5805-.8572s-.5426-.4373-.866-.5673l-.1045-.0275c-.3283-.1327-.6799-.1982-1.034-.1925.1218-.397.1483-.817.0776-1.2262s-.2368-.7959-.4847-1.129-.5708-.6031-.9425-.7883c-.3716-.1851-.7816-.2802-1.1969-.2775l2.3155-5.7365c.2622-.6494.2573-1.3761-.0136-2.0219s-.7859-1.1585-1.4329-1.4266c-.5275-.2178-1.1118-.2572-1.6639-.1122-.552.1449-1.0416.4663-1.3941.9152-.3013-.33-.6814-.5781-1.1047-.7211s-.8761-.1762-1.3157-.0966c-.4397.0797-.852.2697-1.1982.5522s-.6151.6483-.7814 1.063l-3.7015 9.097-.0385-.2035c.0016-.0311.0016-.0624 0-.0935-.1074-.3348-.2814-.6443-.5116-.9101-.2302-.2657-.5117-.4822-.8277-.6363-.316-.1542-.6599-.2428-1.011-.2606s-.7022.0356-1.0322.157c-.6166.2207-1.1281.6645-1.4336 1.2439-.3054.5793-.3826 1.2521-.2164 1.8856l2.024 10.67-1.419 3.5145c-.0446.1019-.0682.2118-.0693.323-.0011.1113.0203.2216.063.3244.0426.1027.1056.1958.1852.2736.0795.0778.174.1387.2776.179l10.1145 4.0865c.1019.0447.2118.0682.3231.0693.1112.0011.2215-.0203.3243-.0629.1028-.0427.1958-.1057.2736-.1852.0778-.0796.1387-.174.179-.2777l1.4135-3.498 3.047-1.947c.1436-.0922.2551-.2268.319-.385l3.487-8.6295c.1337-.3326.1983-.689.1898-1.0473-.0085-.3584-.0899-.7113-.2393-1.0372zm-1.5125 1.4135-3.388 8.3875-3.0415 1.947c-.1436.0922-.255.2268-.319.385l-1.2045 2.9755-8.5855-3.465 1.199-2.9755c.0589-.1465.0742-.307.044-.462l-2.068-10.945s0-.0495 0-.0715c-.0662-.2334-.0417-.4833.0684-.6995s.2979-.3828.5256-.4665c.2357-.0879.4966-.0795.7261.0234.2295.103.4093.2921.5004.5266l.55 2.915c.0239.1798.1063.3468.2345.475.1283.1283.2952.2107.475.2345.1819.0132.3631-.0334.516-.1327.1529-.0992.2691-.2458.331-.4173l4.7245-11.6875c.1-.248.2943-.4461.5403-.5508s.5235-.1074.7715-.0074c.248.0999.4461.2942.5508.5402s.1074.5235.0074.7715l-.66 1.65-3.091 7.6615c-.0461.1014-.0712.2111-.0737.3224-.0026.1114.0174.2221.0588.3255.0413.1034.1032.1974.1819.2762.0786.0789.1725.141.2758.1826s.2139.0619.3253.0596c.1113-.0023.2211-.0271.3226-.073.1015-.0458.1926-.1118.268-.1938.0753-.082.1333-.1785.1703-.2835l3.751-9.2895.6105-1.507c.1013-.2434.2939-.4373.5367-.5402.2427-.1028.5161-.1064.7613-.0098.2461.1012.4421.2957.5452.541.103.2453.1048.5214.0048.768l-4.334 10.7855c-.0696.1822-.0725.3832-.008.5674.0646.1841.1922.3394.3604.4383.1681.0989.3659.135.5581.1019.1923-.033.3666-.1332.492-.2826.0501-.0616.0908-.1301.121-.2035l1.1385-2.816c.1024-.2465.2979-.4426.5441-.5456s.5231-.1046.7704-.0044c.2461.1012.4421.2957.5452.541.103.2453.1048.5214.0048.768l-1.606 3.971c-.0461.1014-.0712.2111-.0737.3224-.0026.1114.0174.2221.0588.3255.0413.1034.1032.1974.1819.2762.0786.0789.1725.141.2758.1826s.2139.0619.3253.0596c.1113-.0023.2211-.0271.3226-.073.1015-.0458.1926-.1118.268-.1938.0753-.082.1333-.1785.1703-.2835l.352-.869v-.033l.4125-1.023c.1024-.2451.297-.4402.5419-.5431s.5204-.1054.7671-.0069l.088.0385c.2461.1012.4421.2957.5452.541.103.2453.1048.5214.0048.768z" fill="#000"/><path d="m36.8885 30.9155-3.388 8.3875-3.0415 1.947c-.1436.0922-.255.2268-.319.385l-1.2045 2.9755-8.5855-3.465 1.199-2.9755c.0589-.1465.0742-.307.044-.462l-2.068-10.945s0-.0495 0-.0715c-.0662-.2334-.0417-.4833.0684-.6995s.2979-.3828.5256-.4665c.2357-.0879.4966-.0795.7261.0234.2295.103.4093.2921.5004.5266l.55 2.915c.0239.1798.1063.3468.2345.475.1283.1283.2952.2107.475.2345.1819.0132.3631-.0334.516-.1327.1529-.0992.2691-.2458.331-.4173l4.7245-11.6875c.1-.248.2943-.4461.5403-.5508s.5235-.1074.7715-.0074c.248.0999.4461.2942.5508.5402s.1074.5235.0074.7715l-.66 1.65-3.091 7.6615c-.0461.1014-.0712.2111-.0737.3224-.0026.1114.0174.2221.0588.3255.0413.1034.1032.1974.1819.2762.0786.0789.1725.141.2758.1826s.2139.0619.3253.0596c.1113-.0023.2211-.0271.3226-.073.1015-.0458.1926-.1118.268-.1938.0753-.082.1333-.1785.1703-.2835l3.751-9.2895.6105-1.507c.1013-.2434.2939-.4373.5367-.5402.2427-.1028.5161-.1064.7613-.0098.2461.1012.4421.2957.5452.541.103.2453.1048.5214.0048.768l-4.334 10.7855c-.0696.1822-.0725.3832-.008.5674.0646.1841.1922.3394.3604.4383.1681.0989.3659.135.5581.1019.1923-.033.3666-.1332.492-.2826.0501-.0616.0908-.1301.121-.2035l1.1385-2.816c.1024-.2465.2979-.4426.5441-.5456s.5231-.1046.7704-.0044c.2461.1012.4421.2957.5452.541.103.2453.1048.5214.0048.768l-1.606 3.971c-.0461.1014-.0712.2111-.0737.3224-.0026.1114.0174.2221.0588.3255.0413.1034.1032.1974.1819.2762.0786.0789.1725.141.2758.1826s.2139.0619.3253.0596c.1113-.0023.2211-.0271.3226-.073.1015-.0458.1926-.1118.268-.1938.0753-.082.1333-.1785.1703-.2835l.352-.869v-.033l.4125-1.023c.1024-.2451.297-.4402.5419-.5431s.5204-.1054.7671-.0069l.088.0385c.2461.1012.4421.2957.5452.541.103.2453.1048.5214.0048.768z" fill="#fff"/></svg>