<svg fill="none" height="54" viewBox="0 0 54 54" width="54" xmlns="http://www.w3.org/2000/svg"><g fill="#000"><path d="m17.1882 19.8774c.1496.1554.3549.245.5706.249.2157.0041.4242-.0778.5796-.2274.1554-.1497.2449-.3549.249-.5706.004-.2157-.0778-.4242-.2274-.5796l-1.08-1.1232h5.94c.2148 0 .4208-.0854.5727-.2373s.2373-.3579.2373-.5727-.0854-.4209-.2373-.5728-.3579-.2372-.5727-.2372h-5.94l1.08-1.1232c.1416-.1555.2172-.3599.2109-.5701-.0064-.2102-.0943-.4097-.2451-.5562-.1508-.1466-.3526-.2288-.5629-.2292-.2103-.0005-.4125.0809-.5639.2269l-2.4354 2.5002c-.1468.1512-.2289.3536-.2289.5643s.0821.4131.2289.5643z"/><path d="m38.0592 13.743c-.1517.1519-.2369.3577-.2369.5724 0 .2146.0852.4205.2369.5724l1.08 1.1232h-4.2768c-.2149 0-.4209.0853-.5728.2372s-.2372.358-.2372.5728.0853.4208.2372.5727c.1519.152.3579.2373.5728.2373h4.2714l-1.08 1.1232c-.1417.1554-.2173.3599-.2109.5701s.0942.4096.245.5562.3527.2288.563.2292.4125-.0809.5639-.2269l2.4246-2.4948c.1468-.1512.2289-.3536.2289-.5643s-.0821-.4131-.2289-.5643l-2.4246-2.4948c-.074-.0782-.1628-.1408-.2612-.1843s-.2045-.0669-.3121-.0689-.2145.0174-.3145.0572-.191.099-.2678.1744z"/><path d="m16.6212 42.3738c.0847.1969.2439.3522.4428.432l9.936 4.0122c.1001.0438.208.067.3172.0681.1092.001.2175-.02.3184-.0619.1009-.0418.1923-.1037.2687-.1818.0763-.0781.1361-.1708.1757-.2726l1.3878-3.429 2.9322-1.9008c.141-.0906.2504-.2226.3132-.378l3.4668-8.4888c.258-.6417.2512-1.3595-.0191-1.9962-.2702-.6367-.7818-1.1402-1.4227-1.4004l-.0864-.0324c-.324-.1309-.6711-.1952-1.0206-.189.1901-.6238.1391-1.2962-.1429-1.8842s-.7744-1.0487-1.3799-1.291c-.3075-.1222-.6356-.1845-.9666-.1836l2.2626-5.5998c.1282-.3183.1923-.6589.1887-1.002-.0037-.3432-.075-.6823-.21-.9978-.1349-.3155-.3308-.6013-.5764-.841s-.5361-.4286-.8549-.5558c-.518-.2072-1.089-.2424-1.6286-.1004-.5396.1419-1.0193.4535-1.3684.8888-.2582-.2867-.5774-.5118-.9342-.6588-.6397-.2525-1.3532-.2421-1.9853.029-.6321.271-1.1315.7807-1.3897 1.4182l-3.6504 8.91-.0378-.2268c.0018-.0306.0018-.0612 0-.0918-.1055-.328-.2762-.6314-.5018-.8919-.2256-.2604-.5015-.4727-.8111-.6239-.3096-.1513-.6466-.2385-.9907-.2564s-.6883.0339-1.012.1522c-.6054.2167-1.1076.6524-1.4075 1.2212-.2999.5689-.3757 1.2294-.2125 1.8514l1.9872 10.476-1.3932 3.4506c-.0407.0995-.0612.2062-.0603.3137.001.1076.0233.2139.0657.3127zm.9828-14.8878s0-.0486 0-.0702c-.065-.2292-.041-.4745.0672-.6868.1081-.2122.2924-.3758.516-.458.2314-.0863.4875-.0781.7129.023.2254.101.4019.2868.4913.517l.54 2.862c.0336.171.1213.3266.2503.4437.129.1172.2923.1896.4657.2066.1734.0169.3476-.0224.4969-.1123.1492-.09.2655-.2256.3315-.3868l4.6224-11.4642c.0994-.2416.2904-.434.5312-.5352s.5119-.1029.754-.0048c.2403.0994.4317.2894.5328.529s.1037.5093.0072.7508l-3.672 9.1422c-.0694.1968-.0602.4128.0257.603s.2419.3399.4355.4179.4098.0782.6035.0007c.1938-.0775.3502-.2268.4365-.4168l3.0348-7.5114 1.2474-3.0888c.0994-.239.2886-.4294.5269-.5304s.5067-.1044.7475-.0096c.2416.0993.4341.2903.5353.5312.1012.2408.1029.5119.0047.754l-4.2552 10.584c-.0684.1789-.0711.3763-.0078.557.0633.1808.1887.3333.3538.4304.165.0971.3592.1326.548.1001.1887-.0325.3599-.1308.483-.2775.0487-.0588.0887-.1243.1188-.1944l1.1178-2.7648c.0994-.2416.2904-.434.5312-.5352s.5119-.1029.754-.0048c.2403.0994.4317.2894.5328.529s.1037.5093.0072.7508l-1.566 3.9096c-.0452.0995-.0699.2072-.0724.3165-.0025.1094.0171.2181.0577.3196.0407.1015.1014.1938.1787.2712.0772.0774.1693.1384.2707.1793.1014.0408.2101.0607.3194.0585.1094-.0023.2171-.0267.3168-.0717.0996-.045.1891-.1097.2631-.1903.074-.0805.1308-.1752.1672-.2783l.3456-.8532v-.0324l.4266-1.0152c.0994-.2403.2895-.4317.5291-.5328.2395-.1011.5093-.1037.7507-.0072l.0864.0324c.2416.0993.4341.2903.5353.5311.1012.2409.1029.512.0047.7541l-3.3264 8.2404-2.9916 1.9116c-.141.0906-.2504.2226-.3132.378l-1.1826 2.9214-8.4132-3.402 1.1772-2.9214c.0578-.1439.0728-.3014.0432-.4536z"/><path d="m17.1882 19.8774c.1496.1554.3549.245.5706.249.2157.0041.4242-.0778.5796-.2274.1554-.1497.2449-.3549.249-.5706.004-.2157-.0778-.4242-.2274-.5796l-1.08-1.1232h5.94c.2148 0 .4208-.0854.5727-.2373s.2373-.3579.2373-.5727-.0854-.4209-.2373-.5728-.3579-.2372-.5727-.2372h-5.94l1.08-1.1232c.1416-.1555.2172-.3599.2109-.5701-.0064-.2102-.0943-.4097-.2451-.5562-.1508-.1466-.3526-.2288-.5629-.2292-.2103-.0005-.4125.0809-.5639.2269l-2.4354 2.5002c-.1468.1512-.2289.3536-.2289.5643s.0821.4131.2289.5643z"/><path d="m38.0592 13.743c-.1517.1519-.2369.3577-.2369.5724 0 .2146.0852.4205.2369.5724l1.08 1.1232h-4.2768c-.2149 0-.4209.0853-.5728.2372s-.2372.358-.2372.5728.0853.4208.2372.5727c.1519.152.3579.2373.5728.2373h4.2714l-1.08 1.1232c-.1417.1554-.2173.3599-.2109.5701s.0942.4096.245.5562.3527.2288.563.2292.4125-.0809.5639-.2269l2.4246-2.4948c.1468-.1512.2289-.3536.2289-.5643s-.0821-.4131-.2289-.5643l-2.4246-2.4948c-.074-.0782-.1628-.1408-.2612-.1843s-.2045-.0669-.3121-.0689-.2145.0174-.3145.0572-.191.099-.2678.1744z"/></g><path d="m17.604 27.486s0-.0486 0-.0702c-.065-.2292-.041-.4745.0672-.6868.1081-.2122.2924-.3758.516-.458.2314-.0863.4875-.0781.7129.023.2254.101.4019.2868.4913.517l.54 2.862c.0336.171.1213.3266.2503.4437.129.1172.2923.1896.4657.2066.1734.0169.3476-.0224.4969-.1123.1492-.09.2655-.2256.3315-.3868l4.6224-11.4642c.0994-.2416.2904-.434.5312-.5352s.5119-.1029.754-.0048c.2403.0994.4317.2894.5328.529s.1037.5093.0072.7508l-3.672 9.1422c-.0694.1968-.0602.4128.0257.603s.2419.3399.4355.4179.4098.0782.6035.0007c.1938-.0775.3502-.2268.4365-.4168l3.0348-7.5114 1.2474-3.0888c.0994-.239.2886-.4294.5269-.5304s.5067-.1044.7475-.0096c.2416.0993.4341.2903.5353.5312.1012.2408.1029.5119.0047.754l-4.2552 10.584c-.0684.1789-.0711.3763-.0078.557.0633.1808.1887.3333.3538.4304.165.0971.3592.1326.548.1001.1887-.0325.3599-.1308.483-.2775.0487-.0588.0887-.1243.1188-.1944l1.1178-2.7648c.0994-.2416.2904-.434.5312-.5352s.5119-.1029.754-.0048c.2403.0994.4317.2894.5328.529s.1037.5093.0072.7508l-1.566 3.9096c-.0452.0995-.0699.2072-.0724.3165-.0025.1094.0171.2181.0577.3196.0407.1015.1014.1938.1787.2712.0772.0774.1693.1384.2707.1793.1014.0408.2101.0607.3194.0585.1094-.0023.2171-.0267.3168-.0717.0996-.045.1891-.1097.2631-.1903.074-.0805.1308-.1752.1672-.2783l.3456-.8532v-.0324l.4266-1.0152c.0994-.2403.2895-.4317.5291-.5328.2395-.1011.5093-.1037.7507-.0072l.0864.0324c.2416.0993.4341.2903.5353.5311.1012.2409.1029.512.0047.7541l-3.3264 8.2404-2.9916 1.9116c-.141.0906-.2504.2226-.3132.378l-1.1826 2.9214-8.4132-3.402 1.1772-2.9214c.0578-.1439.0728-.3014.0432-.4536z" fill="#fff"/></svg>