<svg fill="none" height="55" viewBox="0 0 55 55" width="55" xmlns="http://www.w3.org/2000/svg"><path d="m39.27 10.725c-.1542-.1487-.3601-.2316-.5743-.2311-.2142.0004-.4198.0841-.5734.2334s-.2431.3525-.2496.5666.0706.4223.2148.5806l1.1 1.144h-4.345c-.2188 0-.4286.0869-.5833.2416-.1548.1548-.2417.3646-.2417.5834s.0869.4286.2417.5834c.1547.1547.3645.2416.5833.2416h4.3505l-1.1 1.144c-.1442.1583-.2213.3665-.2148.5806s.096.4173.2496.5666.3592.233.5734.2334c.2142.0005.4201-.0824.5743-.2311l2.4695-2.541c.1495-.154.2332-.3601.2332-.5748 0-.2146-.0837-.4207-.2332-.5747z" fill="#000"/><path d="m32.3895 23.9965c-.2052-.4827-.5487-.8938-.9872-1.1815-.4385-.2878-.9523-.4393-1.4768-.4355l2.3045-5.7035c.2416-.5904.2623-1.2482.0581-1.8526-.2042-.6045-.6196-1.115-1.1698-1.4379s-1.1984-.4365-1.8257-.3201c-.6272.1165-1.1914.4552-1.5891.9541-.3013-.33-.6814-.5781-1.1047-.7211-.4234-.143-.8761-.1763-1.3158-.0966s-.8519.2697-1.1981.5522-.6151.6482-.7814 1.063l-3.6795 9.0805-.0385-.2035c.0016-.0312.0016-.0624 0-.0935-.1074-.3348-.2815-.6443-.5116-.9101-.2302-.2658-.5117-.4822-.8277-.6363-.316-.1542-.6599-.2428-1.011-.2606-.3512-.0178-.7023.0356-1.0322.157-.6166.2207-1.1281.6645-1.4336 1.2439-.3055.5793-.3827 1.2521-.2164 1.8856l2.024 10.67-1.419 3.5145c-.0447.1019-.0682.2118-.0693.323-.0011.1113.0203.2216.0629.3244.0427.1027.1057.1958.1852.2736.0796.0778.174.1387.2777.179l10.1145 4.0865c.1019.0446.2118.0682.323.0693.1113.0011.2216-.0203.3244-.063.1027-.0426.1958-.1056.2736-.1851.0778-.0796.1387-.174.179-.2777l1.4135-3.498 3.014-1.9965c.1436-.0923.255-.2268.319-.385l3.487-8.6295c.1309-.3236.1967-.6698.1937-1.0188s-.0747-.694-.2111-1.0153c-.1364-.3212-.3347-.6125-.5837-.8571s-.5437-.4377-.8674-.5683l-.088-.0385c-.3355-.1338-.6949-.1974-1.056-.187.1934-.5896.1719-1.2287-.0605-1.804zm.5005 3.5035.088.0385c.2461.1012.4421.2957.5451.541.1031.2453.1049.5214.0049.768l-3.3825 8.404-3.047 1.947c-.1436.0922-.2551.2267-.319.385l-1.2045 2.9755-8.58-3.465 1.199-2.9755c.0589-.1466.0742-.307.044-.462l-2.068-10.945s0-.0495 0-.0715c-.0662-.2335-.0418-.4833.0684-.6995.1101-.2162.2978-.3828.5256-.4665.2357-.0879.4965-.0795.7261.0234.2295.1029.4093.2921.5004.5266l.55 2.915c.0341.1741.1235.3326.2549.4519s.2977.1931.4743.2104.3541-.0228.5061-.1144.2704-.2297.3377-.3939l4.7245-11.6875c.1023-.2465.2979-.4426.544-.5456.2462-.103.5231-.1046.7705-.0044.2461.1012.4421.2957.5451.541.1031.2453.1049.5214.0049.768l-.66 1.65-3.102 7.6615c-.0707.2004-.0614.4204.0261.6142.0875.1937.2464.3461.4436.4256.1971.0794.4174.0797.6147.0007.1974-.0789.3566-.231.4446-.4245l3.751-9.2895.6105-1.507c.0999-.248.2943-.4461.5403-.5508s.5235-.1074.7714-.0075c.248.1.4462.2943.5508.5403.1047.246.1074.5235.0075.7715l-4.3615 10.791c-.0697.1822-.0725.3832-.008.5673.0645.1842.1922.3395.3603.4384.1682.0989.3659.135.5582.1019s.3666-.1332.492-.2826c.05-.0616.0908-.1301.121-.2035l1.1385-2.816c.0501-.1225.1238-.234.217-.3279.0932-.094.2041-.1687.3262-.2198s.253-.0776.3854-.078.2635.0253.3859.0757c.2461.1012.4421.2957.5451.541.1031.2453.1049.5214.0049.768l-1.606 3.971c-.0831.2042-.0818.4331.0038.6363.0857.2032.2485.364.4527.4472.2042.0831.4331.0818.6363-.0039.2032-.0856.3641-.2484.4472-.4526l.352-.8525v-.033l.429-1.067c.1012-.2461.2957-.4421.541-.5452.2453-.103.5214-.1048.768-.0048z" fill="#000"/><path d="m32.89 27.5.088.0385c.2461.1012.4421.2957.5451.541.1031.2453.1049.5214.0049.768l-3.3825 8.404-3.047 1.947c-.1436.0922-.2551.2267-.319.385l-1.2045 2.9755-8.58-3.465 1.199-2.9755c.0589-.1466.0742-.307.044-.462l-2.068-10.945s0-.0495 0-.0715c-.0662-.2335-.0418-.4833.0684-.6995.1101-.2162.2978-.3828.5256-.4665.2357-.0879.4965-.0795.7261.0234.2295.1029.4093.2921.5004.5266l.55 2.915c.0341.1741.1235.3326.2549.4519s.2977.1931.4743.2104.3541-.0228.5061-.1144.2704-.2297.3377-.3939l4.7245-11.6875c.1023-.2465.2979-.4426.544-.5456.2462-.103.5231-.1046.7705-.0044.2461.1012.4421.2957.5451.541.1031.2453.1049.5214.0049.768l-.66 1.65-3.102 7.6615c-.0707.2004-.0614.4204.0261.6142.0875.1937.2464.3461.4436.4256.1971.0794.4174.0797.6147.0007.1974-.0789.3566-.231.4446-.4245l3.751-9.2895.6105-1.507c.0999-.248.2943-.4461.5403-.5508s.5235-.1074.7714-.0075c.248.1.4462.2943.5508.5403.1047.246.1074.5235.0075.7715l-4.3615 10.791c-.0697.1822-.0725.3832-.008.5673.0645.1842.1922.3395.3603.4384.1682.0989.3659.135.5582.1019s.3666-.1332.492-.2826c.05-.0616.0908-.1301.121-.2035l1.1385-2.816c.0501-.1225.1238-.234.217-.3279.0932-.094.2041-.1687.3262-.2198.1221-.051.253-.0776.3854-.078s.2635.0253.3859.0757c.2461.1012.4421.2957.5451.541.1031.2453.1049.5214.0049.768l-1.606 3.971c-.0831.2042-.0818.4331.0038.6363.0857.2032.2485.364.4527.4472.2042.0831.4331.0818.6363-.0039.2032-.0856.3641-.2484.4472-.4526l.352-.8525v-.033l.429-1.067c.1012-.2461.2957-.4421.541-.5452.2453-.103.5214-.1048.768-.0048z" fill="#fff"/></svg>