<svg fill="none" height="75" viewBox="0 0 75 75" width="75" xmlns="http://www.w3.org/2000/svg"><g fill="#fff"><path d="m41.5668 11.0663c-7.8438 0-15.2829 3.4923-20.3001 9.5186l-.0026-.0025c-.3558.4143-.5337.9531-.488 1.497.0458.544.305 1.0472.7269 1.3979.4194.3482.9608.516 1.5047.4601.5439-.056 1.0421-.3254 1.3827-.7523 4.2496-5.1011 10.5375-8.052 17.1762-8.052 12.3757-.0026 22.3666 9.989 22.3666 22.3666s-9.9909 22.3718-22.3666 22.3666c-6.6335-.0025-12.9189-2.961-17.1639-8.0624-.3406-.427-.8387-.6989-1.3826-.7523-.544-.0559-1.0879.1093-1.5072.4601-.4194.3482-.6812.8514-.7244 1.3979-.0458.5439.1321 1.0827.488 1.4945 5.0146 6.0262 12.4492 9.5238 20.2903 9.5264 14.5762.0076 26.4333-11.8597 26.4333-26.4333s-11.8597-26.4359-26.4333-26.4333z"/><path d="m9.03345 35.4637c-1.12344 0-2.03333.9124-2.03333 2.0359 0 1.1234.90989 2.0333 2.03333 2.0333h16.26405c1.1234 0 2.0333-.9099 2.0333-2.0333 0-1.1235-.9099-2.0359-2.0333-2.0359z"/><path d="m15.1361 27.3304c-1.1234 0-2.0333.9099-2.0333 2.0333 0 1.1235.9099 2.0333 2.0333 2.0333h10.1615c1.1234 0 2.0333-.9098 2.0333-2.0333 0-1.1234-.9099-2.0333-2.0333-2.0333z"/><path d="m15.1361 43.5996c-1.1234 0-2.0333.9124-2.0333 2.0333 0 1.1235.9099 2.0359 2.0333 2.0359h10.1615c1.1234 0 2.0333-.9124 2.0333-2.0359 0-1.1209-.9099-2.0333-2.0333-2.0333z"/><path d="m41.5388 21.205c-.5389.0076-1.0548.2313-1.431.6176-.3761.3863-.582.9074-.5744 1.4462v14.2307c0 .5389.2135 1.0574.5948 1.4411l8.1359 8.1282-.0026-.0026c.3787.4016.9023.6354 1.4513.6431.5516.0076 1.0828-.2059 1.4717-.5948.3888-.3889.6023-.9201.5947-1.4716-.0102-.549-.2415-1.0726-.643-1.4488l-7.536-7.536v-13.3894h.0025c.0076-.549-.2059-1.0802-.5948-1.469-.3888-.3889-.9201-.6024-1.469-.5948z"/></g></svg>