<svg fill="none" height="75" viewBox="0 0 75 75" width="75" xmlns="http://www.w3.org/2000/svg"><path clip-rule="evenodd" d="m54.8656 28.5198h-34.1864c-2.7869 0-3.1585 1.738-3.1977 2.4189v25.2157c0 6.2556 5.5337 11.3456 12.3342 11.3456h15.5984c6.8006 0 12.334-5.0902 12.334-11.3456v-25.1055c-.3105-2.0633-1.9806-2.4664-2.8825-2.5291zm-5.1708 30.0819c0 .96-.9017 1.7387-2.0132 1.7387s-2.0134-.7789-2.0134-1.7387v-21.9793c0-.96.9021-1.7385 2.0134-1.7385 1.1117 0 2.0132.7787 2.0132 1.7385zm-9.664 0c0 .96-.9021 1.7387-2.0134 1.7387-1.1117 0-2.0132-.7789-2.0132-1.7387v-21.9793c0-.96.9017-1.7385 2.0132-1.7385s2.0134.7787 2.0134 1.7385zm-9.664 0c0 .96-.9017 1.7387-2.0133 1.7387-1.1115 0-2.0133-.7789-2.0133-1.7387v-21.9793c0-.96.902-1.7385 2.0133-1.7385 1.1118 0 2.0133.7787 2.0133 1.7385zm28.6424-40.6841s-.3898-3.8347-3.8771-3.852l-10.502-.0481-.0139-2.0767c.0405-2.92201-2.4367-3.28915-3.332-3.32684l-.3121-.00058c-.0012.00022-.0074-.00005-.0074-.00005s-1.5008-.00637-3.3999-.01485l-3.075-.01421c-.708-.00295-1.396-.0058-2.0178-.0087-3.2467-.01318-3.32 3.21103-3.3222 3.32243l.0138 2.0498-9.3106-.0426c.0003.0012-4.8647.3659-4.8354 4.6601.0294 4.2941 3.4832 4.8161 3.4832 4.8161l36.8048.1651c.0048-.0009 3.7394-.4482 3.7171-3.742-.0229-3.2965-.0135-1.8869-.0135-1.8869z" fill="#fff" fill-rule="evenodd"/></svg>