<svg fill="none" height="75" viewBox="0 0 75 75" width="75" xmlns="http://www.w3.org/2000/svg"><path d="m41.8749 18.6927h-3.4405l1.7499-5.3866c.3509-1.1836.0592-2.3673-.8749-3.1949-.9343-.82759-2.1008-.94554-3.1512-.41379l-22.8058 11.12689c-1.0504.474-1.6336 1.5397-1.6336 2.6632 0 1.1837.6425 2.1893 1.6336 2.6633l22.8081 11.1269c1.1074.5317 2.3332.356 3.2082-.4739.8749-.8276 1.2258-2.0113.8157-3.1949l-1.7499-5.3866h3.4405c6.5918.1179 11.9576 5.5622 11.9576 12.2502v3.4331c0 6.6882-5.3659 12.1324-11.9576 12.1324h-4.0831c-6.5918-.0601-11.9576-5.4443-11.9576-12.1324v-.8276c0-2.6633-2.1008-4.7948-4.7256-4.7948-2.6249 0-4.7257 2.1315-4.7257 4.7948v.8276c0 11.9543 9.6244 21.7194 21.4065 21.7194h4.083c11.7821 0 21.4065-9.7651 21.4065-21.7194l.0022-3.4331c0-12.0147-9.5649-21.7798-21.4064-21.7798z" fill="#fff"/></svg>