<svg fill="none" height="55" viewBox="0 0 54 55" width="54" xmlns="http://www.w3.org/2000/svg"><path d="m36.3474 13.6235c-.3704-.5854-.9525-.9985-1.62-1.1495-.678-.1438-1.3843-.0094-1.9656.374-.2874.19-.5352.436-.7289.7239s-.3295.612-.3997.9536l-1.9008 9.0475-1.8738-9.0475c-.0702-.3416-.206-.6657-.3997-.9536s-.4414-.5339-.7289-.7239c-.4325-.2885-.9394-.4397-1.4563-.4342-.517.0055-1.0207.1673-1.4472.4649-.4265.2977-.7565.7177-.9481 1.2068-.1917.489-.2363 1.0251-.1282 1.54l1.6524 7.9695c-.3575-.3188-.7941-.5315-1.2621-.6151s-.9496-.0349-1.3923.141c-.4427.1758-.8296.4719-1.1185.8562-.2889.3842-.4688.8418-.5201 1.3229-.5355-.0608-1.0762.0528-1.5444.3245-.2986.1716-.5608.4019-.7712.6776-.2105.2758-.365.5913-.4546.9284-.0519.179-.0828.3636-.0918.55-.0053.0604-.0053.1211 0 .1815v6.6c.0003.1716.0532.3389.1512.4785l2.0412 2.948v3.7675c0 .2188.0854.4286.2373.5834.1519.1547.3579.2416.5727.2416h11.6748c.2148 0 .4209-.0869.5728-.2416.1519-.1548.2372-.3646.2372-.5834v-3.806l2.8404-4.4c.8316-1.2815.7938-2.706-.108-3.619l-1.4202-1.441 2.673-12.8645c.0721-.3421.0763-.6955.0123-1.0393-.0639-.3439-.1948-.6712-.3849-.9627zm-12.0096 1.65c-.0271-.1297-.0287-.2635-.0046-.3938s.0734-.2545.145-.3652c.0695-.1113.1603-.2071.267-.2818s.2271-.1266.354-.1527c.127-.0287.2583-.0314.3862-.0077.128.0236.25.0729.359.1452.1096.0722.2042.1657.2784.2752.0741.1095.1263.2328.1536.3628l2.2032 10.637h-1.4796c-.1813.0007-.3621.0191-.54.055zm-2.16 9.4325c.1538-.0852.3272-.1269.5022-.121.0896-.0003.1787.0127.2646.0385.1251.0343.2421.0938.3442.1751.102.0812.187.1825.2498.2979l1.08 1.9415c-.1695.3629-.2553.7605-.2508 1.1624.0046.4019.0993.7973.277 1.1562.1777.3588.4337.6715.7483.914.3147.2426.6796.4086 1.0669.4854-.0235.1382-.0753.2699-.152.3864s-.1766.2153-.2932.29-.2473.1236-.3836.1435c-.1364.0199-.2753.0104-.4078-.0279-.1251-.0343-.2421-.0938-.3441-.1751-.1021-.0812-.187-.1825-.2499-.2979l-1.8846-3.3825-.5994-1.1-.2916-.517c-.1255-.2287-.1591-.498-.0936-.7514.0655-.2533.2248-.471.4446-.6071zm-3.2778 2.948c.0568-.2127.1805-.4005.3522-.5346.1717-.1342.3818-.2072.5982-.2079.0896-.0011.1789.0119.2646.0385.1257.0345.2434.0941.3463.1753s.1889.1824.2531.2977l2.1924 3.927c.1296.2327.1632.5082.0933.7661s-.2375.4769-.4659.6089-.499.1662-.7522.095c-.2531-.0711-.4682-.2418-.5978-.4745l-2.1924-3.9435c-.1246-.2278-.1575-.496-.0918-.748zm15.4278 3.454c.54.55-.0378 1.452-.1026 1.551l-.0324.066-2.9376 4.554c-.0874.1336-.1343.2904-.135.451v3.2065h-10.0602v-3.212c-.0013-.1715-.0541-.3384-.1512-.4785l-2.0628-2.948v-2.7885l.9288 1.65c.229.4085.5598.7482.959.9848s.8526.3617 1.3144.3627c.4508.001.894-.1184 1.2852-.3465.4731-.2687.8511-.6825 1.08-1.1825.1187.0584.2415.1081.3672.1485.2293.0608.4651.0922.702.0935.6518.0012 1.2804-.2468 1.7613-.6949s.7793-1.0637.8361-1.7251h1.2258c.1455-.0008.2882-.0409.4134-.1163.1253-.0753.2286-.1833.2994-.3127.0624-.1224.0957-.2581.0972-.396 0-.2188-.0853-.4286-.2372-.5834-.1519-.1547-.358-.2416-.5728-.2416h-2.3058c-.1363.0103-.2732-.0082-.4021-.0543s-.2472-.1187-.3473-.2135c-.1001-.0947-.18-.2094-.2346-.337s-.0828-.2653-.0828-.4044c0-.1392.0282-.2769.0828-.4045s.1345-.2423.2346-.337c.1001-.0948.2184-.1674.3473-.2135s.2658-.0645.4021-.0543h2.8188c.1012.0024.2015.0209.297.055.0418.0162.0853.0272.1296.033.2034.0331.392.1291.54.275zm.8046-15.8235-2.4516 11.814-.729-.748c-.2852-.2861-.6305-.5023-1.0098-.6325l2.2518-10.868c.0421-.1939.1393-.371.2795-.5091.1401-.138.3171-.2311.5088-.2674.1918-.0364.3897-.0145.5693.063.1796.0774.3328.207.4406.3725.0726.1134.1224.2403.1465.3734s.0221.2698-.0061.4021z" fill="#000"/><path d="m24.3378 15.2735c-.0271-.1297-.0287-.2635-.0046-.3938s.0734-.2545.145-.3652c.0695-.1113.1603-.2071.267-.2818s.2271-.1266.354-.1527c.127-.0287.2583-.0314.3862-.0077.128.0236.25.0729.359.1452.1096.0722.2042.1657.2784.2752.0741.1095.1263.2328.1536.3628l2.2032 10.637h-1.4796c-.1813.0007-.3621.0191-.54.055zm-2.16 9.4325c.1538-.0852.3272-.1269.5022-.121.0896-.0003.1787.0127.2646.0385.1251.0343.2421.0938.3442.1751.102.0812.187.1825.2498.2979l1.08 1.9415c-.1695.3629-.2553.7605-.2508 1.1624.0046.4019.0993.7973.277 1.1562.1777.3588.4337.6715.7483.914.3147.2426.6796.4086 1.0669.4854-.0235.1382-.0753.2699-.152.3864s-.1766.2153-.2932.29-.2473.1236-.3836.1435c-.1364.0199-.2753.0104-.4078-.0279-.1251-.0343-.2421-.0938-.3441-.1751-.1021-.0812-.187-.1825-.2499-.2979l-1.8846-3.3825-.5994-1.1-.2916-.517c-.1255-.2287-.1591-.498-.0936-.7514.0655-.2533.2248-.471.4446-.6071zm-3.2778 2.948c.0568-.2127.1805-.4005.3522-.5346.1717-.1342.3818-.2072.5982-.2079.0896-.0011.1789.0119.2646.0385.1257.0345.2434.0941.3463.1753s.1889.1824.2531.2977l2.1924 3.927c.1296.2327.1632.5082.0933.7661s-.2375.4769-.4659.6089-.499.1662-.7522.095c-.2531-.0711-.4682-.2418-.5978-.4745l-2.1924-3.9435c-.1246-.2278-.1575-.496-.0918-.748zm15.4278 3.454c.54.55-.0378 1.452-.1026 1.551l-.0324.066-2.9376 4.554c-.0874.1336-.1343.2904-.135.451v3.2065h-10.0602v-3.212c-.0013-.1715-.0541-.3384-.1512-.4785l-2.0628-2.948v-2.7885l.9288 1.65c.229.4085.5598.7482.959.9848s.8526.3617 1.3144.3627c.4508.001.894-.1184 1.2852-.3465.4731-.2687.8511-.6825 1.08-1.1825.1187.0584.2415.1081.3672.1485.2293.0608.4651.0922.702.0935.6518.0012 1.2804-.2468 1.7613-.6949s.7793-1.0637.8361-1.7251h1.2258c.1455-.0007.2882-.0409.4134-.1163.1253-.0753.2286-.1833.2994-.3127.0624-.1224.0957-.2581.0972-.396 0-.2188-.0853-.4286-.2372-.5834-.1519-.1547-.358-.2416-.5728-.2416h-2.3058c-.1363.0103-.2732-.0082-.4021-.0543s-.2472-.1187-.3473-.2135c-.1001-.0947-.18-.2094-.2346-.337s-.0828-.2653-.0828-.4044c0-.1392.0282-.2769.0828-.4045s.1345-.2423.2346-.337c.1001-.0948.2184-.1674.3473-.2135s.2658-.0646.4021-.0543h2.8188c.1012.0024.2015.0209.297.055.0418.0162.0853.0272.1296.033.2034.0331.392.1291.54.275zm.8046-15.8235-2.4516 11.814-.729-.748c-.2852-.2861-.6305-.5023-1.0098-.6325l2.2518-10.868c.0421-.1939.1393-.371.2795-.5091.1401-.138.3171-.2311.5088-.2674.1918-.0364.3897-.0145.5693.063.1796.0774.3328.207.4406.3725.0726.1134.1224.2403.1465.3734s.0221.2698-.0061.4021z" fill="#fff"/></svg>