<svg fill="none" height="75" viewBox="0 0 75 75" width="75" xmlns="http://www.w3.org/2000/svg"><path d="m63.9422 36.9085c-.0548-.2759-.1534-.5474-.3069-.7945-2.115-3.4255-4.9269-6.3079-8.2013-8.6121-1.4948-1.055-3.1013-1.9533-4.7736-2.6927-1.933-.8563-3.9056-1.5626-5.9659-2.0261-4.2783-.9601-8.653-1.0197-12.9706-.2759-1.8783.3267-3.7302.8343-5.5121 1.5229-1.9112.7394-3.7698 1.6223-5.5056 2.7192-3.3972 2.1519-6.3167 4.9439-8.6093 8.2589-.2454.3576-.4865.7284-.7188 1.097-.5041.8166-.5041 1.9709 0 2.7854 2.115 3.4254 4.9269 6.3079 8.2013 8.6075 1.4948 1.055 3.1013 1.9533 4.7736 2.6927 1.9331.8563 3.9056 1.5626 5.9659 2.0261 4.2783.9601 8.653 1.0197 12.9706.2759 1.8783-.3267 3.7303-.8343 5.5121-1.5229 1.9112-.7394 3.7698-1.6223 5.5057-2.7192 3.3971-2.1519 6.3166-4.9439 8.6092-8.2589.1797-.2649.355-.5297.526-.799.0263-.0398.0614-.0773.0833-.1148.1644-.2472.3112-.5297.3835-.8387.0044-.0221.0044-.0442.0044-.0618.1074-.415.1118-.8674.0285-1.2691zm-31.0609-7.6764c.778-.7835 1.749-1.3507 2.7944-1.6553.5918-.1766 1.2098-.2649 1.8301-.2715.3025 0 .5742.0772.811.2207.4865.2913.8065.8343.8328 1.4346.0395.9006-.7846 1.651-1.6438 1.6554-.149 0-.2959.011-.4383.0221-.2784.0551-.5523.1258-.8219.2251-.2148.1059-.4208.2207-.6246.3531-.0329.0221-.0702.0486-.1052.0707-.1052.0927-.2083.1876-.3113.2869-.0986.0993-.1928.203-.2849.309-.0263.0331-.0482.0706-.0701.1059-.1315.1987-.2455.4083-.3507.6224-.0986.2715-.1753.5474-.2236.8344-.0109.15-.0219.2913-.0219.4414-.0044.927-.7452 1.6156-1.6438 1.6553-.8832.0398-1.6482-.7901-1.6438-1.6553.0132-1.7304.6926-3.4233 1.9156-4.6548zm25.0029 8.4267c-.1425.1877-.2849.3708-.4274.5562.0701-.0926.1359-.1809.2082-.2758-1.2449 1.5714-2.6629 2.9906-4.2234 4.2442.092-.0706.1863-.1368.2783-.2096-.1863.1434-.3726.2869-.5523.4304.0921-.0707.1863-.1435.274-.2208-1.7271 1.3022-3.5988 2.4014-5.578 3.271.1052-.0441.2083-.0883.3113-.1324-.2192.0927-.4384.1876-.6532.2759.114-.0486.2236-.0993.3397-.1501-2.1588.8828-4.4097 1.4964-6.7178 1.8429.1096-.011.2192-.0265.3244-.0397-.2411.0331-.4866.0662-.7277.0993.1359-.0176.2696-.0397.4055-.0552-2.4153.2914-4.8613.2914-7.2767 0 .1359.0221.2696.0398.4055.0552-.2411-.0331-.4866-.0662-.7277-.0993.1096.0177.2148.0265.3244.0397-2.3013-.3421-4.5588-.9601-6.7178-1.8429.1139.0485.2235.0993.3397.1501-.2192-.0927-.4384-.1876-.6532-.2759.1052.0441.2083.0883.3113.1324-1.9769-.8718-3.8531-1.9643-5.578-3.271.0921.0707.1863.1501.274.2208-.1863-.1435-.3726-.287-.5523-.4304.092.0706.1863.1434.2783.2096-1.6262-1.3022-3.1012-2.792-4.3834-4.4407.0109.0177.0263.0397.0394.0552-.0328-.0442-.0701-.0927-.1052-.1369.0219.0265.0439.0552.0658.0839-.0548-.0772-.1096-.1545-.1644-.2317.0833-.1148.1578-.2252.2411-.3421-.0482.0618-.0986.1258-.1491.1942.1096-.1369.2083-.2803.3179-.4194-.0548.0773-.1096.1501-.1644.2252 1.2493-1.5936 2.6849-3.0348 4.2629-4.3039-.0833.0618-.1578.1214-.2367.1809.1863-.1434.3682-.2869.5523-.4303-.1052.0838-.2148.1655-.3178.2472 1.7359-1.3199 3.6273-2.4235 5.6153-3.2997-.1052.0442-.2082.0839-.3112.1258.2192-.0927.4383-.1876.6531-.2758-.1139.0485-.2301.0993-.3463.15.2192-.0882.4428-.1765.6685-.2648-.5654 1.2029-.903 2.494-1.0126 3.858-.1709 2.1807.3836 4.4474 1.5123 6.3124 1.0784 1.7922 2.7068 3.3151 4.607 4.1892 2.1589.9866 4.493 1.2757 6.8205.799 4.1906-.8498 7.693-4.4805 8.3287-8.7511.0877-.5849.1534-1.1698.1578-1.7613 0-.0044.0044-.0176.0044-.0221 0-.0044.0044-.0176.0044-.022v-.0044c0-.0177-.0044-.0331-.0044-.0486-.011-1.5494-.3507-3.1164-1.0082-4.5246.2082.0773.4208.1589.6246.2472-.1139-.0485-.2235-.0993-.3397-.1501.2192.0927.4384.1876.6532.2759-.1052-.0441-.2082-.0883-.3113-.1324 1.977.8718 3.8575 1.971 5.5845 3.2776-.092-.0773-.1863-.1501-.2849-.2252.1863.1435.3682.287.5523.4304-.0876-.0706-.1797-.1368-.2696-.2096 1.5561 1.247 2.9699 2.6662 4.2147 4.2266-.0657-.0883-.1315-.1766-.2016-.2648.1424.1876.2849.3752.4274.5562-.0767-.0994-.1535-.1943-.2302-.2914.1096.1435.2148.2914.3178.4414-.1052.1435-.2082.287-.3112.4304.0921-.0927.1644-.1854.2367-.2781z" fill="#fff"/></svg>