<svg fill="none" height="75" viewBox="0 0 75 75" width="75" xmlns="http://www.w3.org/2000/svg"><g clip-rule="evenodd" fill="#fff" fill-rule="evenodd"><path d="m58.3841 32.898h8.7809c1.5014 0 1.5014 2.4915 0 2.4915-3.536 0-3.5896 4.4767.0647 4.4767 1.2292 0 2.2354.9971 2.2354 2.2152v9.701c0 1.2181-1.0061 2.2152-2.2354 2.2152h-8.9105c-1.2292 0-2.2354-.9971-2.2354-2.2152v-9.701c0-1.2181 1.0061-2.2152 2.2354-2.2152 3.6542 0 3.6007-4.4767.0647-4.4767-1.5014 0-1.5012-2.4915.0002-2.4915z"/><path d="m35.8773 26.9487h11.2572c1.9253 0 1.9253 3.1923 0 3.1923-4.5332 0-4.6002 5.7416.0825 5.7416 1.5751 0 2.8668 1.2778 2.8668 2.8408v12.4356c0 1.5608-1.2895 2.8408-2.8668 2.8408h-11.4222c-1.5751 0-2.8668-1.2778-2.8668-2.8408v-12.4356c0-1.5608 1.2895-2.8408 2.8668-2.8408 4.6849 0 4.6157-5.7416.0825-5.7416-1.9253 0-1.9253-3.1923 0-3.1923z"/><path d="m9.59826 21h13.73134c2.3491 0 2.3491 3.8953 0 3.8953-5.5305 0-5.613 7.0037.1026 7.0037 1.9231 0 3.4958 1.5585 3.4958 3.4642v15.1726c0 1.9056-1.5727 3.4642-3.4958 3.4642h-13.93635c-1.92306-.0022-3.49585-1.5608-3.49585-3.4664v-15.1726c0-1.9035 1.57279-3.462 3.49585-3.462 5.71575 0 5.63085-7.0037.10262-7.0037-2.34916 0-2.34938-3.8953-.00021-3.8953z"/></g></svg>