<svg fill="none" height="55" viewBox="0 0 55 55" width="55" xmlns="http://www.w3.org/2000/svg"><path d="m12.1075 33.0784 1.6496-2.5964c.0499-.078.1146-.1453.1901-.1978 0 0 .2062-.1412.57-.3928-.0094-.078-.0067-.1574.0095-.2341.2479-1.0977 1.5687-3.1453 3.1402-5.5103.4353-.6552.8113-1.2202.996-1.5377.4919-.8341 1.1913-1.5282 2.0296-2.0139.0458-.0242.0944-.043.1442-.0551 1.2939-.3418 2.6335-.5812 4.8544-.9767l1.3141-.2354h-.0014c.8855-.1709 1.7992-.1346 2.6685.1076 1.7548-1.2108 2.961-2.0435 3.0675-2.1162.8288-.5677 1.9636-.3592 2.5364.4669.5849.8475.4164 2.0018-.3868 2.6475-.0822.0565-.8302.5731-1.9812 1.3668l9.8896 9.8718c.1294.1305.2022.3054.2022.4884 0 .1829-.0741.3578-.2035.487l-6.1955 6.1505v.0014c-.2709.2677-.7062.2664-.9744-.0014l-3.7628-3.7559c-2.3855.0511-4.3331-.7279-6.0433-1.7328-.2278.0014-.4542.0041-.6685.0041-2.3868 0-3.9529-.1359-4.9406-1.1207-.4462-.4453-.775-.7506-.992-.9457l-3.12 2.1498c-.0768.0538-.1631.0901-.2534.109l-3.0175.6161c-.2709.0552-.5499-.0565-.7062-.2838-.1577-.2274-.1631-.5274-.0149-.7601zm15.1418-12.3955-1.3153.2355c-2.1348.3807-3.4421.6148-4.6578.9295v.0014c-.5822.3646-1.0687.8637-1.4205 1.4543-.2048.3511-.5728.904-1.0377 1.6049-.6645.9996-1.6173 2.4363-2.2629 3.5773 2.9421-2.0301 7.7885-5.3733 11.4139-7.8753-.2412.0067-.4825.0323-.7197.0726zm6.8911-2.1148c-.1442-.195-.4137-.2435-.6173-.1143-.2439.1681-6.3086 4.3521-11.4825 7.9225.5148.0269 1.0283.0914 1.5337.1896l2.0782-1.4327c4.2589-2.9381 8.2576-5.6973 8.4543-5.8334.1671-.2125.1806-.5058.0337-.7318zm-7.7036 7.698-1.0296.7103c.9029.2556 1.8315.4116 2.7682.4641l-1.4057-1.4031c-.1105.0753-.2224.152-.3329.2287zm5.6673 7.3897c.1954-.0095.3841.0632.5229.2004l3.4878 3.4829 5.2184-5.1808-9.5784-9.5611c-1.1092.7655-2.4313 1.6776-3.8304 2.6422l2.0243 2.0206h-.0013c.1388.1386.2115.3283.2008.5233-.0095.1951-.1025.3767-.2548.4991-1.1361.9189-2.9798.4749-4.9299.0041-2.275-.5489-3.9353-.8583-4.7751-.0269 1.3141.4009 2.5648 1.2915 3.8722 2.2224 2.1968 1.5646 4.6874 3.339 8.043 3.1735zm-10.9181-2.4377c.4528.452 1.2817.6256 2.4973.6874-.1428-.1008-.2843-.2017-.4245-.3013-.748-.557-1.527-1.0695-2.3356-1.5336l-.5391.3726c.2116.1978.4771.4507.8019.7749zm-5.7549.9659 3.9218-2.7054c-.1024-.0188-.2048-.0417-.3059-.0511v.0013c-.31-.0255-.5634-.2583-.6132-.5636-1.8262 1.2605-3.1928 2.2036-3.5851 2.474l-.7049 1.1099z" fill="#000"/><path d="m27.2493 20.6829-1.3153.2355c-2.1348.3807-3.4421.6148-4.6578.9295v.0014c-.5822.3646-1.0687.8637-1.4205 1.4543-.2048.3511-.5728.904-1.0377 1.6049-.6645.9996-1.6173 2.4363-2.2629 3.5773 2.9421-2.0301 7.7885-5.3733 11.4139-7.8753-.2412.0067-.4825.0321-.7197.0724zm6.8911-2.1148c-.1442-.195-.4137-.2435-.6173-.1143-.2439.1681-6.3086 4.3521-11.4825 7.9225.5148.0269 1.0283.0914 1.5337.1896l2.0782-1.4327c4.2589-2.9381 8.2576-5.6973 8.4543-5.8334.1671-.2125.1805-.5057.0336-.7317zm-7.7036 7.698-1.0296.7103c.9029.2556 1.8315.4116 2.7682.4641l-1.4057-1.4031c-.1105.0753-.2224.152-.3329.2287zm5.6673 7.3897c.1954-.0095.3841.0632.5229.2004l3.4878 3.4829 5.2184-5.1808-9.5784-9.5611c-1.1092.7655-2.4313 1.6776-3.8304 2.6422l2.0243 2.0206h-.0013c.1388.1386.2115.3283.2008.5233-.0095.1951-.1025.3767-.2548.4991-1.1361.9189-2.9798.4749-4.9299.0041-2.275-.5489-3.9353-.8583-4.7751-.0269 1.3141.4009 2.5648 1.2915 3.8722 2.2224 2.1968 1.5646 4.6879 3.3392 8.0435 3.1738zm-10.9181-2.4377c.4528.452 1.2817.6256 2.4973.6874-.1428-.1008-.2843-.2017-.4245-.3013-.748-.557-1.527-1.0695-2.3356-1.5336l-.5391.3726c.2116.1978.4771.4507.8019.7749zm-5.7549.9659 3.9218-2.7054c-.1024-.0188-.2048-.0417-.3059-.0511v.0013c-.31-.0255-.5634-.2582-.6132-.5636-1.8262 1.2605-3.1928 2.2036-3.5851 2.474l-.7049 1.1099z" fill="#fff"/></svg>