<svg fill="none" height="75" viewBox="0 0 75 75" width="75" xmlns="http://www.w3.org/2000/svg"><path d="m53.1169 16.2355-19.1319 19.1189c-.0011.0011-.0022.0021-.0033.0032-.1114.109-.2163.2243-.3142.3453l-17.3963 17.3843v-16.3491c0-2.2085-1.7907-3.9927-3.9947-3.9927h-.0034l-.0493.0002-.0071.0001c-2.1826.0305-3.93833 1.8063-3.93833 3.9926v25.5417c-.01823.1491-.02837.3125-.02837.4773 0 2.2085 1.7908 3.9927 3.9949 3.9927h.0055c.0251 0 .0795.0001.1418-.0051.1108-.0042.2205-.0131.329-.0268h25.5568c2.2088 0 3.9949-1.7888 3.9949-3.9927 0-2.2084-1.7908-3.9926-3.9949-3.9926h-16.3598l19.1381-19.125.0003-.0003c.1049-.105.204-.2157.2968-.3314l17.4104-17.3985v16.3456c0 2.2087 1.7908 3.9926 3.9949 3.9926h.0461v.0001l.012-.0002c2.177-.0348 3.9332-1.8054 3.9332-3.9925v-26.0053c0-.0934-.0053-.1852-.0109-.2623h.0003v-.039-.0278l-.0021-.0278c-.0091-.1217-.026-.2248-.0388-.3013-.0109-.0739-.0229-.1286-.0348-.1759l-.0006.0001c-.0834-.3726-.2108-.6981-.3668-.9974l-.0016.0007c-.013-.0248-.0248-.0459-.0354-.0643l-.0154-.026-.0035-.0058-.0007-.0013-.0025.0012-.0049-.0083c-.0383-.0656-.0825-.1412-.1332-.2176-.0233-.0377-.0424-.0649-.0536-.08067l-.004-.00579-.0042-.00571-.0021-.00281c-.212-.30196-.4566-.56522-.7288-.79216l-.0139-.01387-.0307-.03067-.034-.02693c-.6542-.51772-1.4798-.83018-2.3728-.85617l-.011-.00032h-.0109l-26.0186.00022-.0095-.00028-.0134.00007-.0346.00021c-.0007 0-.0015 0-.0022 0-2.2077.00122-3.9926 1.78958-3.9926 3.99268 0 2.2084 1.7908 3.9926 3.9948 3.9926z" fill="#fff" stroke="#fff" stroke-width="1.5"/></svg>