<svg width="75" height="75" viewBox="0 0 75 75" fill="none" xmlns="http://www.w3.org/2000/svg">
<path fill-rule="evenodd" clip-rule="evenodd" d="M45.2195 25.866C45.2195 30.2103 41.6978 33.732 37.3535 33.732C33.0092 33.732 29.4875 30.2103 29.4875 25.866C29.4875 21.5217 33.0092 18 37.3535 18C41.6978 18 45.2195 21.5217 45.2195 25.866ZM60.8825 27.66C60.8825 30.8991 58.2567 33.525 55.0175 33.525C51.7784 33.525 49.1525 30.8991 49.1525 27.66C49.1525 24.4208 51.7784 21.795 55.0175 21.795C58.2567 21.795 60.8825 24.4208 60.8825 27.66ZM37.3535 56.502C28.7285 56.502 21.1385 54.984 21.7595 51.189C23.4155 41.253 28.5905 35.457 37.3535 35.457C46.1165 35.457 51.2915 41.322 52.9475 51.189C53.5685 54.984 45.9785 56.502 37.3535 56.502ZM26.0375 37.458L25.4165 38.079C22.5185 41.115 20.5865 45.393 19.7585 50.844C19.6895 50.982 19.6895 51.189 19.6895 51.396C13.2725 51.396 7.54551 50.292 8.02851 47.394C9.27051 39.942 13.1345 35.595 19.6895 35.595C22.1735 35.595 24.3125 36.216 26.0375 37.458ZM55.0175 35.595C61.6415 35.595 65.5055 40.011 66.6785 47.394C67.1615 50.292 61.5035 51.396 55.0865 51.327C55.0865 51.265 55.0726 51.189 55.0572 51.1054C55.0384 51.0029 55.0175 50.889 55.0175 50.775C54.1205 45.324 52.1885 41.046 49.3595 38.079C49.0835 37.872 48.8766 37.665 48.6696 37.4581L48.6696 37.458L48.6695 37.458L48.6695 37.458C50.3945 36.216 52.4645 35.595 55.0175 35.595ZM19.6895 33.525C22.9287 33.525 25.5545 30.8991 25.5545 27.66C25.5545 24.4208 22.9287 21.795 19.6895 21.795C16.4504 21.795 13.8245 24.4208 13.8245 27.66C13.8245 30.8991 16.4504 33.525 19.6895 33.525Z" fill="white"/>
</svg>
